M48
;Layer_Color=9474304
;FILE_FORMAT=2:5
INCH,LZ
;TYPE=PLATED
T1F00S00C0.02800
T2F00S00C0.03150
T3F00S00C0.03543
T4F00S00C0.03937
T5F00S00C0.04331
T6F00S00C0.05500
T7F00S00C0.05512
T8F00S00C0.07283
T9F00S00C0.08661
%
T01
X0336142Y024311
X0329724Y0250492
X0350303Y0250984
Y0258858
X0336142Y0271654
X0336614Y0286417
X0344646Y0280512
X0344488Y0300197
X0351378Y02942
X0358268Y028937
X0366142
X0375098
X0385827Y0276287
X0391732Y0280512
X0409449Y0255906
X0401575Y0235236
X038189Y0235728
X0374016
Y0248031
X0362205Y0310531
X0316494Y0308071
X032185Y0277559
X0314067Y0269148
X0413386Y0310039
X0452756Y0307087
X0466535Y0266732
X042126Y0216535
X0295276Y0213583
X028937Y0244094
X0273622
X0267717Y0259842
X0273622Y0292322
X0268701Y0297244
X0251969Y0300197
X028937Y028937
X0295276Y0283465
Y027559
X0307087Y0273425
X0305118Y0280512
X0309793Y0301
X0306102Y0312008
X0300197Y0317913
X0305118Y0324
X0311Y0329
X0304224Y0344488
X0308071Y0352362
X0312007Y0359252
X0312099Y0382965
X0306102Y0387795
X0285433
X0267865Y036411
X0287402Y0337598
X028248Y0316929
X0269685
X031551Y032
X0324Y032185
X0334646Y0337402
X0336614Y0355405
X0366803Y0356299
X0385827Y0350394
X0392717Y034252
X0360819Y0333996
X0352362Y032185
X0336614Y0387795
X0318898Y0377953
X0374016Y0393701
X0386811
X0402559Y0413386
X0444882Y0375984
Y0336614
T02
X0389764Y0208661
Y0216535
Y022441
X0413386
Y0216535
Y0208661
X0437008
Y0216535
Y022441
X0282331
Y0216535
Y0208661
X0259842
Y0216535
Y022441
X0236221
Y0216535
Y0208661
X0232283Y0405512
Y0413386
Y042126
X0255906
Y0413386
Y0405512
X0279528
Y0413386
Y042126
X0301378Y0413386
X0309252
X0317126
X0325
X0387795
Y042126
Y0405512
X0413386
Y0413386
Y042126
X0436673
Y0413386
Y0405512
T03
X0336142Y0214409
Y022441
X0346142
Y0214409
X0356142
Y022441
X0366142
Y0214409
X0359252Y0360965
Y0370965
Y0380965
T04
X0411024Y0281102
X027559Y032252
Y033252
Y034252
Y035252
X0205591
Y034252
Y033252
Y032252
Y031252
Y036252
X0411024Y032126
T05
X0342362Y0405512
X0352362
X0362362
X0372362
T06
X0402067Y0336299
Y0346299
Y0356299
Y0366299
Y0376299
Y0386299
X0414567
X0464567
Y0376299
Y0366299
Y0356299
Y0346299
Y0336299
T07
X0440945Y0246063
Y0261063
T08
X0433071Y028189
Y0300394
Y0318898
T09
X046063Y0208661
X0208661
Y042126
X046063
M30
