G04*
G04 #@! TF.GenerationSoftware,Altium Limited,Altium Designer,20.0.13 (296)*
G04*
G04 Layer_Color=8388736*
%FSLAX25Y25*%
%MOIN*%
G70*
G01*
G75*
%ADD19C,0.01968*%
%ADD20R,0.04724X0.05118*%
%ADD21R,0.05118X0.03937*%
%ADD22R,0.07874X0.19685*%
%ADD23R,0.03937X0.05118*%
%ADD24R,0.06693X0.03150*%
%ADD25R,0.10039X0.12992*%
%ADD26R,0.10039X0.03740*%
%ADD27R,0.10236X0.13780*%
%ADD28R,0.08858X0.08071*%
%ADD29R,0.06299X0.06299*%
%ADD30O,0.01181X0.05512*%
%ADD31O,0.05512X0.01181*%
%ADD32R,0.04724X0.04724*%
%ADD33C,0.04724*%
%ADD34C,0.05906*%
%ADD35R,0.05906X0.05906*%
%ADD36C,0.07500*%
%ADD37R,0.07500X0.07500*%
%ADD38R,0.04724X0.04724*%
%ADD39R,0.05906X0.05906*%
%ADD40C,0.05236*%
%ADD41C,0.07874*%
%ADD42R,0.07874X0.07874*%
%ADD43R,0.09843X0.09843*%
%ADD44C,0.09843*%
%ADD45C,0.11811*%
%ADD46C,0.05000*%
D19*
X472441Y202441D02*
Y427559D01*
X466850Y196850D02*
X472441Y202441D01*
X202150Y196850D02*
X466850D01*
X196850Y202150D02*
X202150Y196850D01*
X196850Y202150D02*
Y427850D01*
X202071Y433071D01*
X466929D01*
X472441Y427559D01*
D20*
X204724Y270669D02*
D03*
X213386D02*
D03*
X461417Y311024D02*
D03*
X452756D02*
D03*
X461417Y299213D02*
D03*
X452756D02*
D03*
D21*
X319882Y231299D02*
D03*
Y223425D02*
D03*
Y250984D02*
D03*
Y258858D02*
D03*
X346457Y327756D02*
D03*
Y335630D02*
D03*
X208661Y244094D02*
D03*
Y251969D02*
D03*
X385827Y263779D02*
D03*
Y255906D02*
D03*
X374016Y263779D02*
D03*
Y255906D02*
D03*
X354913Y242520D02*
D03*
Y234646D02*
D03*
X344882Y242520D02*
D03*
Y234646D02*
D03*
D22*
X304134Y223425D02*
D03*
Y258858D02*
D03*
D23*
X385827Y359252D02*
D03*
X377953D02*
D03*
X369094Y328740D02*
D03*
X376969D02*
D03*
Y316929D02*
D03*
X369094D02*
D03*
Y305118D02*
D03*
X376969D02*
D03*
X452756Y322835D02*
D03*
X460630D02*
D03*
X232283Y270669D02*
D03*
X224410D02*
D03*
X460630Y287402D02*
D03*
X452756D02*
D03*
X452756Y275590D02*
D03*
X460630D02*
D03*
D24*
X220472Y254724D02*
D03*
Y241339D02*
D03*
D25*
X421161Y255906D02*
D03*
D26*
X397736Y246850D02*
D03*
Y255906D02*
D03*
Y264961D02*
D03*
D27*
X393012Y291929D02*
D03*
Y318307D02*
D03*
D28*
X374016Y370965D02*
D03*
Y382185D02*
D03*
D29*
X387795Y383268D02*
D03*
Y369882D02*
D03*
D30*
X300197Y337402D02*
D03*
X302165D02*
D03*
X304134D02*
D03*
X306102D02*
D03*
X308071D02*
D03*
X310039D02*
D03*
X312008D02*
D03*
X313976D02*
D03*
X315945D02*
D03*
X317913D02*
D03*
X319882D02*
D03*
X321850D02*
D03*
X323819D02*
D03*
X325787D02*
D03*
X327756D02*
D03*
X329724D02*
D03*
Y292520D02*
D03*
X327756D02*
D03*
X325787D02*
D03*
X323819D02*
D03*
X321850D02*
D03*
X319882D02*
D03*
X317913D02*
D03*
X315945D02*
D03*
X313976D02*
D03*
X312008D02*
D03*
X310039D02*
D03*
X308071D02*
D03*
X306102D02*
D03*
X304134D02*
D03*
X302165D02*
D03*
X300197D02*
D03*
D31*
X337402Y329724D02*
D03*
Y327756D02*
D03*
Y325787D02*
D03*
Y323819D02*
D03*
Y321850D02*
D03*
Y319882D02*
D03*
Y317913D02*
D03*
Y315945D02*
D03*
Y313976D02*
D03*
Y312008D02*
D03*
Y310039D02*
D03*
Y308071D02*
D03*
Y306102D02*
D03*
Y304134D02*
D03*
Y302165D02*
D03*
Y300197D02*
D03*
X292520D02*
D03*
Y302165D02*
D03*
Y304134D02*
D03*
Y306102D02*
D03*
Y308071D02*
D03*
Y310039D02*
D03*
Y312008D02*
D03*
Y313976D02*
D03*
Y315945D02*
D03*
Y317913D02*
D03*
Y319882D02*
D03*
Y321850D02*
D03*
Y323819D02*
D03*
Y325787D02*
D03*
Y327756D02*
D03*
Y329724D02*
D03*
D32*
X325000Y413386D02*
D03*
D33*
X317126D02*
D03*
X301378D02*
D03*
X309252D02*
D03*
X389764Y216535D02*
D03*
Y208661D02*
D03*
X437008Y216535D02*
D03*
Y208661D02*
D03*
X413386Y216535D02*
D03*
Y208661D02*
D03*
X236221Y216535D02*
D03*
Y208661D02*
D03*
X259842Y216535D02*
D03*
Y208661D02*
D03*
X282331Y216535D02*
D03*
Y208661D02*
D03*
X436673Y413386D02*
D03*
Y421260D02*
D03*
X413386Y413386D02*
D03*
Y421260D02*
D03*
X387795Y413386D02*
D03*
Y421260D02*
D03*
X232283Y413386D02*
D03*
Y421260D02*
D03*
X255906Y413386D02*
D03*
Y421260D02*
D03*
X279528Y413386D02*
D03*
Y421260D02*
D03*
D34*
X336142Y224410D02*
D03*
Y214409D02*
D03*
X346142Y224410D02*
D03*
Y214409D02*
D03*
X356142Y224410D02*
D03*
Y214409D02*
D03*
X366142Y224410D02*
D03*
X359252Y360965D02*
D03*
Y370965D02*
D03*
X362362Y405512D02*
D03*
X352362D02*
D03*
X342362D02*
D03*
D35*
X366142Y214409D02*
D03*
X372362Y405512D02*
D03*
D36*
X464567Y376299D02*
D03*
Y366299D02*
D03*
Y346299D02*
D03*
Y356299D02*
D03*
Y386299D02*
D03*
X402067Y336299D02*
D03*
Y346299D02*
D03*
Y356299D02*
D03*
Y366299D02*
D03*
Y376299D02*
D03*
Y386299D02*
D03*
X414567D02*
D03*
D37*
X464567Y336299D02*
D03*
D38*
X389764Y224410D02*
D03*
X437008D02*
D03*
X413386D02*
D03*
X236221D02*
D03*
X259842D02*
D03*
X282331D02*
D03*
X436673Y405512D02*
D03*
X413386D02*
D03*
X387795D02*
D03*
X232283D02*
D03*
X255906D02*
D03*
X279528D02*
D03*
D39*
X359252Y380965D02*
D03*
D40*
X205591Y312520D02*
D03*
Y322520D02*
D03*
Y332520D02*
D03*
Y342520D02*
D03*
Y352520D02*
D03*
Y362520D02*
D03*
X275590Y352520D02*
D03*
Y342520D02*
D03*
Y332520D02*
D03*
Y322520D02*
D03*
X411024Y321260D02*
D03*
Y281102D02*
D03*
D41*
X440945Y261063D02*
D03*
D42*
Y246063D02*
D03*
D43*
X433071Y318898D02*
D03*
D44*
Y300394D02*
D03*
Y281890D02*
D03*
D45*
X208661Y208661D02*
D03*
X460630D02*
D03*
Y421260D02*
D03*
X208661D02*
D03*
D46*
X336614Y387795D02*
D03*
X306102Y312008D02*
D03*
X315510Y320000D02*
D03*
X316494Y308071D02*
D03*
X305118Y280512D02*
D03*
X309793Y301000D02*
D03*
X305118Y324000D02*
D03*
X311000Y329000D02*
D03*
X324000Y321850D02*
D03*
X409449Y255906D02*
D03*
X466535Y266732D02*
D03*
X374016Y248031D02*
D03*
X336142Y243110D02*
D03*
X321850Y277559D02*
D03*
X336142Y271654D02*
D03*
X350303Y258858D02*
D03*
Y250984D02*
D03*
X374016Y235728D02*
D03*
X413386Y310039D02*
D03*
X421260Y216535D02*
D03*
X452756Y307087D02*
D03*
X360819Y333996D02*
D03*
X375098Y289370D02*
D03*
X362205Y310531D02*
D03*
X366803Y356299D02*
D03*
X352362Y321850D02*
D03*
X366142Y289370D02*
D03*
X351378Y294200D02*
D03*
X358268Y289370D02*
D03*
X391732Y280512D02*
D03*
X344646D02*
D03*
X385827Y276287D02*
D03*
X295276Y213583D02*
D03*
X273622Y244094D02*
D03*
Y292322D02*
D03*
X267717Y259842D02*
D03*
X268701Y297244D02*
D03*
X289370Y244094D02*
D03*
Y289370D02*
D03*
X295276Y283465D02*
D03*
X307087Y273425D02*
D03*
X295276Y275590D02*
D03*
X314067Y269148D02*
D03*
X386811Y393701D02*
D03*
X374016D02*
D03*
X385827Y350394D02*
D03*
X392717Y342520D02*
D03*
X306102Y387795D02*
D03*
X285433D02*
D03*
X312099Y382965D02*
D03*
X318898Y377953D02*
D03*
X287402Y337598D02*
D03*
X282480Y316929D02*
D03*
X304224Y344488D02*
D03*
X312007Y359252D02*
D03*
X308071Y352362D02*
D03*
X336614Y355405D02*
D03*
X267865Y364110D02*
D03*
X269685Y316929D02*
D03*
X300197Y317913D02*
D03*
X251969Y300197D02*
D03*
X329724Y250492D02*
D03*
X381890Y235728D02*
D03*
X401575Y235236D02*
D03*
X334646Y337402D02*
D03*
X402559Y413386D02*
D03*
X444882Y375984D02*
D03*
Y336614D02*
D03*
X336614Y286417D02*
D03*
X344488Y300197D02*
D03*
M02*
