G04*
G04 #@! TF.GenerationSoftware,Altium Limited,Altium Designer,20.0.13 (296)*
G04*
G04 Layer_Physical_Order=1*
G04 Layer_Color=255*
%FSLAX25Y25*%
%MOIN*%
G70*
G01*
G75*
%ADD14C,0.01000*%
%ADD19C,0.01968*%
%ADD20R,0.04724X0.05118*%
%ADD21R,0.05118X0.03937*%
%ADD22R,0.07874X0.19685*%
%ADD23R,0.03937X0.05118*%
%ADD24R,0.06693X0.03150*%
%ADD25R,0.10039X0.12992*%
%ADD26R,0.10039X0.03740*%
%ADD27R,0.10236X0.13780*%
%ADD28R,0.08858X0.08071*%
%ADD29R,0.06299X0.06299*%
%ADD30O,0.01181X0.05512*%
%ADD31O,0.05512X0.01181*%
%ADD32R,0.04724X0.04724*%
%ADD33C,0.04724*%
%ADD34C,0.05906*%
%ADD35R,0.05906X0.05906*%
%ADD36C,0.07500*%
%ADD37R,0.07500X0.07500*%
%ADD38R,0.04724X0.04724*%
%ADD39R,0.05906X0.05906*%
%ADD40C,0.05236*%
%ADD41C,0.07874*%
%ADD42R,0.07874X0.07874*%
%ADD43R,0.09843X0.09843*%
%ADD44C,0.09843*%
%ADD45C,0.11811*%
%ADD46C,0.05000*%
%ADD47C,0.03937*%
%ADD48C,0.02000*%
G36*
X469264Y426243D02*
Y388678D01*
X468764Y388579D01*
X468716Y388695D01*
X467955Y389687D01*
X466962Y390448D01*
X465807Y390927D01*
X465067Y391024D01*
Y386299D01*
X464567D01*
Y385799D01*
X459842D01*
X459939Y385059D01*
X460418Y383904D01*
X461179Y382911D01*
X462171Y382150D01*
X463327Y381672D01*
X463546Y381643D01*
Y381138D01*
X463280Y381103D01*
X462080Y380607D01*
X461050Y379816D01*
X460260Y378786D01*
X459763Y377587D01*
X459593Y376299D01*
X459763Y375012D01*
X460260Y373812D01*
X461050Y372782D01*
X462080Y371992D01*
X463110Y371565D01*
Y371033D01*
X462080Y370606D01*
X461050Y369816D01*
X460260Y368786D01*
X459763Y367586D01*
X459593Y366299D01*
X459763Y365012D01*
X460260Y363812D01*
X461050Y362782D01*
X462080Y361992D01*
X463110Y361565D01*
Y361033D01*
X462080Y360607D01*
X461050Y359816D01*
X460789Y359476D01*
X436673D01*
X435851Y359368D01*
X435085Y359050D01*
X434427Y358545D01*
X414370Y338489D01*
X406985Y345874D01*
X407041Y346299D01*
X406871Y347586D01*
X406374Y348786D01*
X405584Y349816D01*
X404554Y350606D01*
X403524Y351033D01*
Y351565D01*
X404554Y351992D01*
X405584Y352782D01*
X406374Y353812D01*
X406871Y355012D01*
X407041Y356299D01*
X406871Y357587D01*
X406374Y358786D01*
X405584Y359816D01*
X404554Y360607D01*
X403524Y361033D01*
Y361565D01*
X404554Y361992D01*
X405584Y362782D01*
X406374Y363812D01*
X406871Y365012D01*
X407041Y366299D01*
X406871Y367586D01*
X406374Y368786D01*
X405584Y369816D01*
X404554Y370606D01*
X403354Y371103D01*
X403088Y371138D01*
Y371643D01*
X403307Y371672D01*
X404462Y372150D01*
X405455Y372912D01*
X406216Y373904D01*
X406695Y375059D01*
X406792Y375799D01*
X402067D01*
X397342D01*
X397439Y375059D01*
X397918Y373904D01*
X398679Y372912D01*
X399671Y372150D01*
X400827Y371672D01*
X401046Y371643D01*
Y371138D01*
X400780Y371103D01*
X399580Y370606D01*
X398550Y369816D01*
X397760Y368786D01*
X397606Y368415D01*
X397494Y368369D01*
X396836Y367864D01*
X391991Y363019D01*
X385827D01*
X385620Y362992D01*
X382677D01*
Y360049D01*
X382650Y359843D01*
Y359252D01*
X382677Y359046D01*
Y355512D01*
X388976D01*
Y356666D01*
X393307D01*
X394130Y356774D01*
X394896Y357091D01*
X395554Y357596D01*
X399841Y361884D01*
X400610Y361565D01*
Y361033D01*
X399580Y360607D01*
X398550Y359816D01*
X397760Y358786D01*
X397263Y357587D01*
X397093Y356299D01*
X397263Y355012D01*
X397760Y353812D01*
X398550Y352782D01*
X399580Y351992D01*
X400610Y351565D01*
Y351033D01*
X399580Y350606D01*
X398550Y349816D01*
X397760Y348786D01*
X397263Y347586D01*
X397093Y346299D01*
X397263Y345012D01*
X397760Y343812D01*
X398550Y342782D01*
X399580Y341992D01*
X400610Y341565D01*
Y341033D01*
X399580Y340606D01*
X398550Y339816D01*
X397760Y338786D01*
X397263Y337586D01*
X397093Y336299D01*
X397263Y335012D01*
X397760Y333812D01*
X398550Y332782D01*
X399580Y331992D01*
X400780Y331495D01*
X402067Y331326D01*
X403354Y331495D01*
X404554Y331992D01*
X405584Y332782D01*
X406374Y333812D01*
X406871Y335012D01*
X407020Y336146D01*
X407499Y336375D01*
X411193Y332680D01*
Y325922D01*
X410263Y324992D01*
X410032Y324961D01*
X409108Y324578D01*
X408923Y324437D01*
X399311D01*
Y326378D01*
X394726D01*
Y326476D01*
X394595Y327132D01*
X394224Y327688D01*
X384086Y337826D01*
X383530Y338198D01*
X382874Y338328D01*
X374665D01*
X374009Y338198D01*
X373453Y337826D01*
X368108Y332480D01*
X365945D01*
Y325000D01*
X372244D01*
Y331769D01*
X375375Y334900D01*
X382164D01*
X390224Y326840D01*
X390033Y326378D01*
X386713D01*
Y310236D01*
X399311D01*
Y318083D01*
X404775D01*
X405043Y317583D01*
X404913Y317388D01*
X404782Y316732D01*
Y301476D01*
X400855Y297549D01*
X400483Y296992D01*
X400353Y296337D01*
Y276287D01*
X400483Y275631D01*
X400855Y275075D01*
X405489Y270442D01*
X406045Y270070D01*
X406701Y269939D01*
X425471D01*
X427420Y267991D01*
Y264059D01*
X427362Y263583D01*
X426920Y263583D01*
X414961D01*
Y259082D01*
X411356D01*
X411305Y259121D01*
X410410Y259492D01*
X409449Y259618D01*
X408488Y259492D01*
X407592Y259121D01*
X407542Y259082D01*
X388779D01*
X388573Y259055D01*
X382087D01*
Y252756D01*
X383603D01*
Y247968D01*
X374952Y239318D01*
X374016Y239441D01*
X373055Y239315D01*
X372159Y238944D01*
X371390Y238354D01*
X370800Y237585D01*
X370429Y236689D01*
X370303Y235728D01*
X370429Y234767D01*
X370800Y233872D01*
X371390Y233103D01*
X372159Y232513D01*
X373055Y232142D01*
X374016Y232015D01*
X374977Y232142D01*
X375872Y232513D01*
X376641Y233103D01*
X377231Y233872D01*
X377602Y234767D01*
X377701Y235516D01*
X378205D01*
X378303Y234767D01*
X378674Y233872D01*
X379264Y233103D01*
X380033Y232513D01*
X380929Y232142D01*
X381890Y232015D01*
X382851Y232142D01*
X383746Y232513D01*
X384515Y233103D01*
X385105Y233872D01*
X385476Y234767D01*
X385484Y234830D01*
X394328Y243674D01*
X397736D01*
X398558Y243782D01*
X398600Y243799D01*
X403937D01*
Y249902D01*
X398600D01*
X398558Y249919D01*
X397736Y250027D01*
X393012D01*
X392190Y249919D01*
X392148Y249902D01*
X391535D01*
Y249648D01*
X391423Y249602D01*
X390766Y249097D01*
X388484Y246815D01*
X388184Y246976D01*
X388051Y247089D01*
Y252756D01*
X388573D01*
X388779Y252729D01*
X407542D01*
X407592Y252690D01*
X408488Y252319D01*
X409449Y252193D01*
X410410Y252319D01*
X411305Y252690D01*
X411356Y252729D01*
X414961D01*
Y248228D01*
X427362D01*
Y261127D01*
X427862Y261279D01*
X427922Y261190D01*
X436386Y252725D01*
X436942Y252354D01*
X437599Y252223D01*
X450787D01*
X451443Y252354D01*
X451999Y252725D01*
X457905Y258630D01*
X458277Y259187D01*
X458407Y259842D01*
Y271850D01*
X459877D01*
X463267Y268461D01*
X462949Y267693D01*
X462823Y266732D01*
X462949Y265771D01*
X463320Y264876D01*
X463910Y264107D01*
X464679Y263517D01*
X465575Y263146D01*
X466535Y263019D01*
X467496Y263146D01*
X468392Y263517D01*
X468764Y263803D01*
X469264Y263556D01*
Y203757D01*
X465534Y200027D01*
X378380D01*
X378255Y200395D01*
X378248Y200527D01*
X385813Y208092D01*
X386286Y207931D01*
X386312Y207736D01*
X386669Y206874D01*
X387237Y206134D01*
X387977Y205566D01*
X388839Y205209D01*
X389764Y205088D01*
X390689Y205209D01*
X391551Y205566D01*
X392291Y206134D01*
X392859Y206874D01*
X393216Y207736D01*
X393338Y208661D01*
X393216Y209586D01*
X392859Y210448D01*
X392291Y211189D01*
X391551Y211756D01*
X390689Y212113D01*
X390494Y212139D01*
X390334Y212613D01*
X390886Y213165D01*
X391353Y213359D01*
X411796D01*
X412461Y213083D01*
X413386Y212962D01*
X414311Y213083D01*
X414976Y213359D01*
X419353D01*
X419403Y213320D01*
X420299Y212949D01*
X421260Y212823D01*
X422221Y212949D01*
X423116Y213320D01*
X423167Y213359D01*
X435418D01*
X436083Y213083D01*
X437008Y212962D01*
X437933Y213083D01*
X438795Y213440D01*
X439535Y214008D01*
X440103Y214749D01*
X440460Y215610D01*
X440582Y216535D01*
X440460Y217460D01*
X440103Y218322D01*
X439535Y219062D01*
X438795Y219631D01*
X437933Y219988D01*
X437008Y220109D01*
X436083Y219988D01*
X435418Y219712D01*
X423167D01*
X423116Y219751D01*
X422221Y220122D01*
X421260Y220248D01*
X420299Y220122D01*
X419403Y219751D01*
X419353Y219712D01*
X414976D01*
X414311Y219988D01*
X413386Y220109D01*
X412461Y219988D01*
X411796Y219712D01*
X391353D01*
X390689Y219988D01*
X389764Y220109D01*
X388839Y219988D01*
X388214Y219729D01*
X387931Y220153D01*
X388645Y220866D01*
X393307D01*
Y227953D01*
X386221D01*
Y223290D01*
X372518Y209588D01*
X301694D01*
X299381Y211902D01*
X299588Y212402D01*
X309252D01*
Y221711D01*
X316142D01*
Y220276D01*
X323622D01*
Y226575D01*
X316142D01*
Y225139D01*
X309252D01*
Y234449D01*
X299016D01*
Y225139D01*
X295001D01*
X277149Y242991D01*
X277208Y243133D01*
X277334Y244094D01*
X277208Y245056D01*
X276837Y245951D01*
X276247Y246720D01*
X275478Y247310D01*
X274583Y247681D01*
X273622Y247807D01*
X272660Y247681D01*
X271765Y247310D01*
X270996Y246720D01*
X270406Y245951D01*
X270035Y245056D01*
X269909Y244094D01*
X270035Y243133D01*
X270406Y242238D01*
X270996Y241469D01*
X271765Y240879D01*
X272660Y240508D01*
X273622Y240382D01*
X274583Y240508D01*
X274725Y240567D01*
X293079Y222213D01*
X293635Y221842D01*
X294291Y221711D01*
X299016D01*
Y215479D01*
X298516Y215379D01*
X298491Y215439D01*
X297901Y216208D01*
X297132Y216798D01*
X296236Y217169D01*
X295276Y217296D01*
X294315Y217169D01*
X293419Y216798D01*
X292650Y216208D01*
X292060Y215439D01*
X291689Y214544D01*
X291563Y213583D01*
X291689Y212622D01*
X291863Y212203D01*
X291439Y211920D01*
X285701Y217658D01*
X285426Y218322D01*
X284858Y219062D01*
X284118Y219631D01*
X283256Y219988D01*
X282331Y220109D01*
X281406Y219988D01*
X280741Y219712D01*
X261432D01*
X260768Y219988D01*
X259842Y220109D01*
X258917Y219988D01*
X258253Y219712D01*
X237810D01*
X237145Y219988D01*
X236221Y220109D01*
X235296Y219988D01*
X234434Y219631D01*
X233693Y219062D01*
X233125Y218322D01*
X232768Y217460D01*
X232647Y216535D01*
X232768Y215610D01*
X233125Y214749D01*
X233693Y214008D01*
X234434Y213440D01*
X235296Y213083D01*
X236221Y212962D01*
X237145Y213083D01*
X237810Y213359D01*
X258253D01*
X258917Y213083D01*
X259842Y212962D01*
X260768Y213083D01*
X261432Y213359D01*
X280741D01*
X281208Y213165D01*
X281761Y212613D01*
X281600Y212139D01*
X281406Y212113D01*
X280544Y211756D01*
X279804Y211189D01*
X279236Y210448D01*
X278879Y209586D01*
X278757Y208661D01*
X278879Y207736D01*
X279236Y206874D01*
X279804Y206134D01*
X280544Y205566D01*
X281406Y205209D01*
X282331Y205088D01*
X283256Y205209D01*
X284118Y205566D01*
X284858Y206134D01*
X285426Y206874D01*
X285783Y207736D01*
X285808Y207931D01*
X286282Y208092D01*
X293846Y200527D01*
X293840Y200395D01*
X293715Y200027D01*
X203466D01*
X200027Y203466D01*
Y426535D01*
X203387Y429894D01*
X465613D01*
X469264Y426243D01*
D02*
G37*
G36*
X461050Y352782D02*
X462080Y351992D01*
X463110Y351565D01*
Y351033D01*
X462080Y350606D01*
X461050Y349816D01*
X460260Y348786D01*
X459763Y347586D01*
X459593Y346299D01*
X459763Y345012D01*
X460260Y343812D01*
X461050Y342782D01*
X462080Y341992D01*
X463149Y341549D01*
X463049Y341049D01*
X459817D01*
Y336799D01*
X464567D01*
Y336299D01*
X465067D01*
Y331549D01*
X469264D01*
Y272080D01*
X468896Y271955D01*
X468764Y271949D01*
X463779Y276934D01*
Y279331D01*
X458407D01*
Y282874D01*
X458350Y283161D01*
X458663Y283618D01*
X458744Y283661D01*
X463779D01*
Y291142D01*
X462344D01*
Y295472D01*
X464961D01*
Y302953D01*
X457874D01*
Y295472D01*
X458916D01*
Y291142D01*
X457480D01*
Y285164D01*
X457018Y284973D01*
X455905Y286085D01*
Y291142D01*
X449606D01*
Y283661D01*
X453481D01*
X454979Y282164D01*
Y279150D01*
X453256D01*
Y275590D01*
Y272031D01*
X454979D01*
Y260553D01*
X450077Y255651D01*
X441492D01*
X441459Y256151D01*
X442234Y256253D01*
X443435Y256750D01*
X444466Y257542D01*
X445257Y258573D01*
X445755Y259774D01*
X445859Y260563D01*
X440945D01*
X436031D01*
X436135Y259774D01*
X436632Y258573D01*
X437424Y257542D01*
X438455Y256750D01*
X439656Y256253D01*
X440431Y256151D01*
X440398Y255651D01*
X438308D01*
X430848Y263112D01*
Y268701D01*
X430717Y269357D01*
X430346Y269913D01*
X427393Y272866D01*
X426837Y273237D01*
X426181Y273368D01*
X407411D01*
X403781Y276997D01*
Y295626D01*
X407708Y299554D01*
X408080Y300110D01*
X408210Y300766D01*
Y316022D01*
X409830Y317642D01*
X410032Y317558D01*
X411024Y317428D01*
X412015Y317558D01*
X412940Y317941D01*
X413733Y318550D01*
X414342Y319344D01*
X414725Y320268D01*
X414755Y320499D01*
X416616Y322360D01*
X417121Y323018D01*
X417439Y323784D01*
X417547Y324606D01*
Y332680D01*
X437989Y353122D01*
X460789D01*
X461050Y352782D01*
D02*
G37*
%LPC*%
G36*
X436673Y424834D02*
X435748Y424712D01*
X434886Y424355D01*
X434146Y423787D01*
X433578Y423047D01*
X433221Y422185D01*
X433099Y421260D01*
X433221Y420335D01*
X433578Y419473D01*
X434146Y418733D01*
X434886Y418165D01*
X435748Y417808D01*
X436673Y417686D01*
X437598Y417808D01*
X438460Y418165D01*
X439200Y418733D01*
X439768Y419473D01*
X440125Y420335D01*
X440247Y421260D01*
X440125Y422185D01*
X439768Y423047D01*
X439200Y423787D01*
X438460Y424355D01*
X437598Y424712D01*
X436673Y424834D01*
D02*
G37*
G36*
X413386D02*
X412461Y424712D01*
X411599Y424355D01*
X410859Y423787D01*
X410291Y423047D01*
X409934Y422185D01*
X409812Y421260D01*
X409934Y420335D01*
X410291Y419473D01*
X410859Y418733D01*
X411599Y418165D01*
X412461Y417808D01*
X413386Y417686D01*
X414311Y417808D01*
X415173Y418165D01*
X415913Y418733D01*
X416481Y419473D01*
X416838Y420335D01*
X416960Y421260D01*
X416838Y422185D01*
X416481Y423047D01*
X415913Y423787D01*
X415173Y424355D01*
X414311Y424712D01*
X413386Y424834D01*
D02*
G37*
G36*
X279528D02*
X278603Y424712D01*
X277741Y424355D01*
X277000Y423787D01*
X276432Y423047D01*
X276076Y422185D01*
X275954Y421260D01*
X276076Y420335D01*
X276432Y419473D01*
X277000Y418733D01*
X277741Y418165D01*
X278603Y417808D01*
X279528Y417686D01*
X280453Y417808D01*
X281314Y418165D01*
X282055Y418733D01*
X282623Y419473D01*
X282980Y420335D01*
X283101Y421260D01*
X282980Y422185D01*
X282623Y423047D01*
X282055Y423787D01*
X281314Y424355D01*
X280453Y424712D01*
X279528Y424834D01*
D02*
G37*
G36*
X255906D02*
X254980Y424712D01*
X254119Y424355D01*
X253378Y423787D01*
X252810Y423047D01*
X252453Y422185D01*
X252332Y421260D01*
X252453Y420335D01*
X252810Y419473D01*
X253378Y418733D01*
X254119Y418165D01*
X254980Y417808D01*
X255906Y417686D01*
X256831Y417808D01*
X257693Y418165D01*
X258433Y418733D01*
X259001Y419473D01*
X259358Y420335D01*
X259479Y421260D01*
X259358Y422185D01*
X259001Y423047D01*
X258433Y423787D01*
X257693Y424355D01*
X256831Y424712D01*
X255906Y424834D01*
D02*
G37*
G36*
X232283D02*
X231359Y424712D01*
X230497Y424355D01*
X229756Y423787D01*
X229188Y423047D01*
X228831Y422185D01*
X228710Y421260D01*
X228831Y420335D01*
X229188Y419473D01*
X229756Y418733D01*
X230497Y418165D01*
X231359Y417808D01*
X232283Y417686D01*
X233208Y417808D01*
X234070Y418165D01*
X234811Y418733D01*
X235379Y419473D01*
X235736Y420335D01*
X235857Y421260D01*
X235736Y422185D01*
X235379Y423047D01*
X234811Y423787D01*
X234070Y424355D01*
X233208Y424712D01*
X232283Y424834D01*
D02*
G37*
G36*
X460630Y428381D02*
X459241Y428244D01*
X457905Y427839D01*
X456674Y427181D01*
X455595Y426295D01*
X454709Y425216D01*
X454051Y423985D01*
X453646Y422649D01*
X453509Y421260D01*
X453646Y419871D01*
X454051Y418535D01*
X454709Y417304D01*
X455595Y416225D01*
X456674Y415339D01*
X457905Y414681D01*
X459241Y414276D01*
X460630Y414139D01*
X462019Y414276D01*
X463355Y414681D01*
X464586Y415339D01*
X465665Y416225D01*
X466551Y417304D01*
X467209Y418535D01*
X467614Y419871D01*
X467751Y421260D01*
X467614Y422649D01*
X467209Y423985D01*
X466551Y425216D01*
X465665Y426295D01*
X464586Y427181D01*
X463355Y427839D01*
X462019Y428244D01*
X460630Y428381D01*
D02*
G37*
G36*
X208661D02*
X207272Y428244D01*
X205936Y427839D01*
X204705Y427181D01*
X203626Y426295D01*
X202741Y425216D01*
X202083Y423985D01*
X201677Y422649D01*
X201540Y421260D01*
X201677Y419871D01*
X202083Y418535D01*
X202741Y417304D01*
X203626Y416225D01*
X204705Y415339D01*
X205936Y414681D01*
X207272Y414276D01*
X208661Y414139D01*
X210051Y414276D01*
X211386Y414681D01*
X212618Y415339D01*
X213697Y416225D01*
X214582Y417304D01*
X215240Y418535D01*
X215646Y419871D01*
X215782Y421260D01*
X215646Y422649D01*
X215240Y423985D01*
X214582Y425216D01*
X213697Y426295D01*
X212618Y427181D01*
X211386Y427839D01*
X210051Y428244D01*
X208661Y428381D01*
D02*
G37*
G36*
X317626Y416711D02*
Y413886D01*
X320451D01*
X320402Y414263D01*
X320063Y415081D01*
X319524Y415784D01*
X318822Y416323D01*
X318004Y416662D01*
X317626Y416711D01*
D02*
G37*
G36*
X316626D02*
X316248Y416662D01*
X315430Y416323D01*
X314728Y415784D01*
X314189Y415081D01*
X313850Y414263D01*
X313801Y413886D01*
X316626D01*
Y416711D01*
D02*
G37*
G36*
X320451Y412886D02*
X317626D01*
Y410060D01*
X318004Y410110D01*
X318822Y410449D01*
X319524Y410988D01*
X320063Y411690D01*
X320402Y412508D01*
X320451Y412886D01*
D02*
G37*
G36*
X316626D02*
X313801D01*
X313850Y412508D01*
X314189Y411690D01*
X314728Y410988D01*
X315430Y410449D01*
X316248Y410110D01*
X316626Y410060D01*
Y412886D01*
D02*
G37*
G36*
X328543Y416929D02*
X321457D01*
Y409842D01*
X328543D01*
Y416929D01*
D02*
G37*
G36*
X375984Y428374D02*
X295276D01*
X294453Y428265D01*
X293687Y427948D01*
X293029Y427443D01*
X282149Y416563D01*
X281117D01*
X280453Y416838D01*
X279528Y416960D01*
X278603Y416838D01*
X277938Y416563D01*
X257495D01*
X256831Y416838D01*
X255906Y416960D01*
X254980Y416838D01*
X254316Y416563D01*
X233873D01*
X233208Y416838D01*
X232283Y416960D01*
X231359Y416838D01*
X230497Y416481D01*
X229756Y415913D01*
X229188Y415173D01*
X228831Y414311D01*
X228710Y413386D01*
X228831Y412461D01*
X229188Y411599D01*
X229756Y410859D01*
X230497Y410291D01*
X231359Y409934D01*
X232283Y409812D01*
X233208Y409934D01*
X233873Y410209D01*
X254316D01*
X254980Y409934D01*
X255906Y409812D01*
X256831Y409934D01*
X257495Y410209D01*
X277938D01*
X278603Y409934D01*
X279528Y409812D01*
X280453Y409934D01*
X281117Y410209D01*
X283465D01*
X284287Y410317D01*
X285053Y410635D01*
X285711Y411139D01*
X296591Y422020D01*
X300874D01*
X301065Y421558D01*
X299132Y419624D01*
X298627Y418966D01*
X298309Y418200D01*
X298201Y417378D01*
Y414976D01*
X297926Y414311D01*
X297804Y413386D01*
X297926Y412461D01*
X298283Y411599D01*
X298851Y410859D01*
X299591Y410291D01*
X300453Y409934D01*
X301378Y409812D01*
X302303Y409934D01*
X303165Y410291D01*
X303905Y410859D01*
X304473Y411599D01*
X304830Y412461D01*
X304952Y413386D01*
X304830Y414311D01*
X304555Y414976D01*
Y416062D01*
X310513Y422020D01*
X374668D01*
X384425Y412263D01*
X384700Y411599D01*
X385268Y410859D01*
X386008Y410291D01*
X386870Y409934D01*
X387795Y409812D01*
X388720Y409934D01*
X389385Y410209D01*
X400652D01*
X400703Y410170D01*
X401598Y409799D01*
X402559Y409673D01*
X403520Y409799D01*
X404416Y410170D01*
X404466Y410209D01*
X411796D01*
X412461Y409934D01*
X413386Y409812D01*
X414311Y409934D01*
X414976Y410209D01*
X435084D01*
X435748Y409934D01*
X436673Y409812D01*
X437598Y409934D01*
X438460Y410291D01*
X439200Y410859D01*
X439768Y411599D01*
X440125Y412461D01*
X440247Y413386D01*
X440125Y414311D01*
X439768Y415173D01*
X439200Y415913D01*
X438460Y416481D01*
X437598Y416838D01*
X436673Y416960D01*
X435748Y416838D01*
X435084Y416563D01*
X414976D01*
X414311Y416838D01*
X413386Y416960D01*
X412461Y416838D01*
X411796Y416563D01*
X404466D01*
X404416Y416601D01*
X403520Y416972D01*
X402559Y417099D01*
X401598Y416972D01*
X400703Y416601D01*
X400652Y416563D01*
X389385D01*
X388917Y416756D01*
X388365Y417309D01*
X388526Y417782D01*
X388720Y417808D01*
X389582Y418165D01*
X390322Y418733D01*
X390890Y419473D01*
X391247Y420335D01*
X391369Y421260D01*
X391247Y422185D01*
X390890Y423047D01*
X390322Y423787D01*
X389582Y424355D01*
X388720Y424712D01*
X387795Y424834D01*
X386870Y424712D01*
X386008Y424355D01*
X385268Y423787D01*
X384700Y423047D01*
X384343Y422185D01*
X384318Y421990D01*
X383844Y421830D01*
X378231Y427443D01*
X377572Y427948D01*
X376806Y428265D01*
X375984Y428374D01*
D02*
G37*
G36*
X309252Y416960D02*
X308327Y416838D01*
X307465Y416481D01*
X306725Y415913D01*
X306157Y415173D01*
X305800Y414311D01*
X305678Y413386D01*
X305800Y412461D01*
X306157Y411599D01*
X306725Y410859D01*
X307465Y410291D01*
X308327Y409934D01*
X309252Y409812D01*
X310177Y409934D01*
X311039Y410291D01*
X311779Y410859D01*
X312347Y411599D01*
X312704Y412461D01*
X312826Y413386D01*
X312704Y414311D01*
X312347Y415173D01*
X311779Y415913D01*
X311039Y416481D01*
X310177Y416838D01*
X309252Y416960D01*
D02*
G37*
G36*
X352862Y409433D02*
Y406012D01*
X356283D01*
X356213Y406544D01*
X355815Y407505D01*
X355181Y408331D01*
X354356Y408964D01*
X353394Y409363D01*
X352862Y409433D01*
D02*
G37*
G36*
X351862D02*
X351330Y409363D01*
X350369Y408964D01*
X349543Y408331D01*
X348909Y407505D01*
X348511Y406544D01*
X348441Y406012D01*
X351862D01*
Y409433D01*
D02*
G37*
G36*
X391339Y409055D02*
X384252D01*
Y401968D01*
X391339D01*
Y409055D01*
D02*
G37*
G36*
X283071D02*
X275984D01*
Y401968D01*
X283071D01*
Y409055D01*
D02*
G37*
G36*
X259449D02*
X252362D01*
Y401968D01*
X259449D01*
Y409055D01*
D02*
G37*
G36*
X235827D02*
X228740D01*
Y401968D01*
X235827D01*
Y409055D01*
D02*
G37*
G36*
X356283Y405012D02*
X352862D01*
Y401591D01*
X353394Y401661D01*
X354356Y402059D01*
X355181Y402693D01*
X355815Y403518D01*
X356213Y404480D01*
X356283Y405012D01*
D02*
G37*
G36*
X351862D02*
X348441D01*
X348511Y404480D01*
X348909Y403518D01*
X349543Y402693D01*
X350369Y402059D01*
X351330Y401661D01*
X351862Y401591D01*
Y405012D01*
D02*
G37*
G36*
X362362Y409681D02*
X361283Y409539D01*
X360277Y409123D01*
X359414Y408460D01*
X358751Y407597D01*
X358335Y406591D01*
X358193Y405512D01*
X358335Y404433D01*
X358751Y403427D01*
X359414Y402563D01*
X360277Y401901D01*
X361283Y401484D01*
X362362Y401342D01*
X363441Y401484D01*
X364447Y401901D01*
X365311Y402563D01*
X365973Y403427D01*
X366390Y404433D01*
X366532Y405512D01*
X366390Y406591D01*
X365973Y407597D01*
X365311Y408460D01*
X364447Y409123D01*
X363441Y409539D01*
X362362Y409681D01*
D02*
G37*
G36*
X342362D02*
X341283Y409539D01*
X340277Y409123D01*
X339414Y408460D01*
X338751Y407597D01*
X338335Y406591D01*
X338193Y405512D01*
X338335Y404433D01*
X338751Y403427D01*
X339414Y402563D01*
X340277Y401901D01*
X341283Y401484D01*
X342362Y401342D01*
X343441Y401484D01*
X344447Y401901D01*
X345310Y402563D01*
X345973Y403427D01*
X346390Y404433D01*
X346532Y405512D01*
X346390Y406591D01*
X345973Y407597D01*
X345310Y408460D01*
X344447Y409123D01*
X343441Y409539D01*
X342362Y409681D01*
D02*
G37*
G36*
X440216Y409055D02*
X433130D01*
Y404058D01*
X424487Y395415D01*
X390629D01*
X390623Y395424D01*
X390897Y395924D01*
X405512D01*
X406168Y396054D01*
X406724Y396426D01*
X412266Y401968D01*
X416929D01*
Y409055D01*
X409842D01*
Y404392D01*
X404802Y399352D01*
X382039D01*
X381383Y399221D01*
X380827Y398850D01*
X377703Y395725D01*
X377634Y395701D01*
X377056Y395785D01*
X376641Y396326D01*
X375872Y396916D01*
X374977Y397287D01*
X374016Y397414D01*
X373055Y397287D01*
X372159Y396916D01*
X371390Y396326D01*
X370800Y395557D01*
X370429Y394662D01*
X370303Y393701D01*
X370429Y392740D01*
X370800Y391844D01*
X371390Y391075D01*
X372159Y390485D01*
X373055Y390114D01*
X374016Y389988D01*
X374977Y390114D01*
X375872Y390485D01*
X376641Y391075D01*
X377231Y391844D01*
X377290Y391987D01*
X378102D01*
X378758Y392117D01*
X379314Y392489D01*
X382749Y395924D01*
X383309D01*
X383540Y395424D01*
X383225Y394662D01*
X383098Y393701D01*
X383225Y392740D01*
X383596Y391844D01*
X384186Y391075D01*
X384955Y390485D01*
X385850Y390114D01*
X386811Y389988D01*
X387772Y390114D01*
X388667Y390485D01*
X389436Y391075D01*
X390026Y391844D01*
X390085Y391987D01*
X425197D01*
X425853Y392117D01*
X426409Y392489D01*
X435889Y401968D01*
X440216D01*
Y409055D01*
D02*
G37*
G36*
X414567Y391273D02*
X413280Y391103D01*
X412080Y390606D01*
X411050Y389816D01*
X410789Y389476D01*
X405845D01*
X405584Y389816D01*
X404554Y390606D01*
X403354Y391103D01*
X402067Y391273D01*
X400780Y391103D01*
X399580Y390606D01*
X398550Y389816D01*
X398289Y389476D01*
X396732D01*
X395910Y389368D01*
X395144Y389050D01*
X394486Y388545D01*
X392626Y386686D01*
X392126Y386893D01*
Y387598D01*
X383465D01*
Y386444D01*
X379626D01*
Y387402D01*
X368406D01*
Y385362D01*
X362543D01*
X361720Y385254D01*
X361411Y385126D01*
X360236D01*
X360030Y385098D01*
X355118D01*
Y376831D01*
X363386D01*
Y378987D01*
X363437Y379008D01*
X368406D01*
Y376969D01*
X379626D01*
Y380091D01*
X383465D01*
Y378937D01*
X392126D01*
Y380091D01*
X393701D01*
X394523Y380199D01*
X395289Y380517D01*
X395947Y381021D01*
X397861Y382935D01*
X398457Y382903D01*
X398550Y382782D01*
X399580Y381992D01*
X400780Y381495D01*
X401046Y381460D01*
Y380956D01*
X400827Y380927D01*
X399671Y380448D01*
X398679Y379687D01*
X397918Y378695D01*
X397439Y377539D01*
X397342Y376799D01*
X402067D01*
X406792D01*
X406695Y377539D01*
X406216Y378695D01*
X405455Y379687D01*
X404462Y380448D01*
X403307Y380927D01*
X403088Y380956D01*
Y381460D01*
X403354Y381495D01*
X404554Y381992D01*
X405584Y382782D01*
X405845Y383122D01*
X410789D01*
X411050Y382782D01*
X412080Y381992D01*
X413280Y381495D01*
X414567Y381326D01*
X415854Y381495D01*
X417054Y381992D01*
X418084Y382782D01*
X418874Y383812D01*
X419371Y385012D01*
X419541Y386299D01*
X419371Y387586D01*
X418874Y388786D01*
X418084Y389816D01*
X417054Y390606D01*
X415854Y391103D01*
X414567Y391273D01*
D02*
G37*
G36*
X464067Y391024D02*
X463327Y390927D01*
X462171Y390448D01*
X461179Y389687D01*
X460418Y388695D01*
X459939Y387539D01*
X459842Y386799D01*
X464067D01*
Y391024D01*
D02*
G37*
G36*
X376496Y409646D02*
X368228D01*
Y403802D01*
X359841Y395415D01*
X297244D01*
X296588Y395284D01*
X296032Y394913D01*
X290629Y389509D01*
X288707D01*
X288649Y389652D01*
X288058Y390421D01*
X287290Y391011D01*
X286394Y391382D01*
X285433Y391508D01*
X284472Y391382D01*
X283577Y391011D01*
X282808Y390421D01*
X282218Y389652D01*
X281847Y388756D01*
X281720Y387795D01*
X281847Y386834D01*
X282218Y385939D01*
X282808Y385170D01*
X283577Y384580D01*
X284472Y384209D01*
X285433Y384082D01*
X286394Y384209D01*
X287290Y384580D01*
X288058Y385170D01*
X288649Y385939D01*
X288707Y386081D01*
X291339D01*
X291995Y386212D01*
X292551Y386583D01*
X297954Y391987D01*
X305797D01*
X305815Y391975D01*
X305784Y391466D01*
X305141Y391382D01*
X304246Y391011D01*
X303477Y390421D01*
X302887Y389652D01*
X302516Y388756D01*
X302390Y387795D01*
X302516Y386834D01*
X302887Y385939D01*
X303477Y385170D01*
X304246Y384580D01*
X305141Y384209D01*
X306102Y384082D01*
X307063Y384209D01*
X307959Y384580D01*
X308374Y384898D01*
X308785Y384583D01*
X308512Y383926D01*
X308386Y382965D01*
X308459Y382405D01*
X308130Y382029D01*
X267662D01*
X267006Y381898D01*
X266450Y381527D01*
X219157Y334234D01*
X208993D01*
X208909Y334436D01*
X208300Y335229D01*
X207506Y335838D01*
X206582Y336221D01*
X205591Y336352D01*
X204599Y336221D01*
X203675Y335838D01*
X202881Y335229D01*
X202272Y334436D01*
X201889Y333511D01*
X201759Y332520D01*
X201889Y331528D01*
X202272Y330604D01*
X202881Y329810D01*
X203675Y329201D01*
X204599Y328818D01*
X205591Y328688D01*
X206582Y328818D01*
X207506Y329201D01*
X208300Y329810D01*
X208909Y330604D01*
X208993Y330806D01*
X219867D01*
X220523Y330936D01*
X221079Y331308D01*
X268372Y378601D01*
X271508D01*
X271699Y378139D01*
X217794Y324234D01*
X208993D01*
X208909Y324436D01*
X208300Y325229D01*
X207506Y325838D01*
X206582Y326221D01*
X205591Y326352D01*
X204599Y326221D01*
X203675Y325838D01*
X202881Y325229D01*
X202272Y324436D01*
X201889Y323512D01*
X201759Y322520D01*
X201889Y321528D01*
X202272Y320604D01*
X202881Y319810D01*
X203675Y319201D01*
X204599Y318818D01*
X205591Y318688D01*
X206582Y318818D01*
X207506Y319201D01*
X208300Y319810D01*
X208909Y320604D01*
X208993Y320806D01*
X218504D01*
X219160Y320936D01*
X219716Y321308D01*
X263921Y365512D01*
X264345Y365229D01*
X264279Y365071D01*
X264153Y364110D01*
X264279Y363149D01*
X264650Y362254D01*
X265240Y361485D01*
X266009Y360895D01*
X266905Y360524D01*
X267865Y360397D01*
X268827Y360524D01*
X269722Y360895D01*
X270491Y361485D01*
X271081Y362254D01*
X271452Y363149D01*
X271578Y364110D01*
X271452Y365071D01*
X271393Y365214D01*
X277694Y371514D01*
X281823D01*
X282014Y371052D01*
X225196Y314234D01*
X208993D01*
X208909Y314436D01*
X208300Y315229D01*
X207506Y315838D01*
X206582Y316221D01*
X205591Y316352D01*
X204599Y316221D01*
X203675Y315838D01*
X202881Y315229D01*
X202272Y314436D01*
X201889Y313511D01*
X201759Y312520D01*
X201889Y311528D01*
X202272Y310604D01*
X202881Y309810D01*
X203675Y309201D01*
X204599Y308818D01*
X205591Y308688D01*
X206582Y308818D01*
X207506Y309201D01*
X208300Y309810D01*
X208909Y310604D01*
X208993Y310806D01*
X225905D01*
X226561Y310936D01*
X227117Y311308D01*
X284962Y369152D01*
X289146D01*
X289337Y368690D01*
X276784Y356137D01*
X276582Y356221D01*
X275590Y356352D01*
X274599Y356221D01*
X273675Y355838D01*
X272881Y355229D01*
X272272Y354436D01*
X271889Y353512D01*
X271759Y352520D01*
X271889Y351528D01*
X272272Y350604D01*
X272881Y349810D01*
X273675Y349201D01*
X274599Y348818D01*
X275590Y348688D01*
X276582Y348818D01*
X277506Y349201D01*
X278300Y349810D01*
X278909Y350604D01*
X279292Y351528D01*
X279422Y352520D01*
X279292Y353512D01*
X279208Y353713D01*
X280304Y354809D01*
X280766Y354618D01*
Y349134D01*
X277481Y345849D01*
X276582Y346221D01*
X275590Y346352D01*
X274599Y346221D01*
X273675Y345838D01*
X272881Y345229D01*
X272272Y344436D01*
X271889Y343512D01*
X271759Y342520D01*
X271889Y341528D01*
X272272Y340604D01*
X272881Y339810D01*
X273675Y339201D01*
X274599Y338818D01*
X275590Y338688D01*
X276582Y338818D01*
X277506Y339201D01*
X278300Y339810D01*
X278909Y340604D01*
X279292Y341528D01*
X279422Y342520D01*
X279373Y342894D01*
X281309Y344829D01*
X281769Y344582D01*
X281750Y344488D01*
Y341104D01*
X276784Y336137D01*
X276582Y336221D01*
X275590Y336352D01*
X274599Y336221D01*
X273675Y335838D01*
X272881Y335229D01*
X272272Y334436D01*
X271889Y333511D01*
X271759Y332520D01*
X271889Y331528D01*
X272272Y330604D01*
X272881Y329810D01*
X272904Y329793D01*
X272914Y329761D01*
X272851Y329202D01*
X272501Y328968D01*
X268473Y324940D01*
X268102Y324384D01*
X267971Y323728D01*
Y320203D01*
X267829Y320145D01*
X267060Y319554D01*
X266470Y318786D01*
X266099Y317890D01*
X265972Y316929D01*
X266099Y315968D01*
X266470Y315073D01*
X267060Y314304D01*
X267829Y313714D01*
X268724Y313343D01*
X269685Y313216D01*
X270646Y313343D01*
X271542Y313714D01*
X272310Y314304D01*
X272901Y315073D01*
X273271Y315968D01*
X273398Y316929D01*
X273271Y317890D01*
X272901Y318786D01*
X272310Y319554D01*
X271542Y320145D01*
X271399Y320203D01*
Y321453D01*
X271889Y321528D01*
X272272Y320604D01*
X272881Y319810D01*
X273675Y319201D01*
X274599Y318818D01*
X275590Y318688D01*
X276582Y318818D01*
X277506Y319201D01*
X278300Y319810D01*
X278909Y320604D01*
X279292Y321528D01*
X279422Y322520D01*
X279386Y322798D01*
X279859Y323031D01*
X281830Y321061D01*
X281651Y320533D01*
X281519Y320515D01*
X280624Y320145D01*
X279855Y319554D01*
X279265Y318786D01*
X278894Y317890D01*
X278767Y316929D01*
X278894Y315968D01*
X279265Y315073D01*
X279855Y314304D01*
X280624Y313714D01*
X281519Y313343D01*
X282480Y313216D01*
X283441Y313343D01*
X284337Y313714D01*
X285106Y314304D01*
X285696Y315073D01*
X286067Y315968D01*
X286193Y316929D01*
X286093Y317688D01*
X286392Y318102D01*
X286493Y318168D01*
X288339D01*
X288548Y317913D01*
X288685Y317222D01*
X288881Y316929D01*
X288685Y316636D01*
X288548Y315945D01*
X288685Y315254D01*
X288881Y314961D01*
X288685Y314668D01*
X288548Y313976D01*
X288685Y313285D01*
X288881Y312992D01*
X288685Y312699D01*
X288548Y312008D01*
X288100Y311697D01*
X287730Y311623D01*
X287174Y311251D01*
X284723Y308801D01*
X269685D01*
X269029Y308670D01*
X268473Y308299D01*
X267156Y306981D01*
X249165D01*
X248509Y306851D01*
X247953Y306479D01*
X231071Y289598D01*
X230700Y289042D01*
X230569Y288386D01*
Y274409D01*
X229134D01*
Y266929D01*
X235433D01*
Y274409D01*
X233998D01*
Y287676D01*
X248096Y301775D01*
X248520Y301492D01*
X248382Y301158D01*
X248256Y300197D01*
X248382Y299236D01*
X248753Y298340D01*
X249343Y297571D01*
X250112Y296981D01*
X251008Y296610D01*
X251969Y296484D01*
X252929Y296610D01*
X253825Y296981D01*
X254594Y297571D01*
X255184Y298340D01*
X255243Y298483D01*
X264741D01*
X265085Y297983D01*
X264988Y297244D01*
X265114Y296283D01*
X265485Y295388D01*
X266075Y294619D01*
X266844Y294029D01*
X267740Y293658D01*
X268701Y293531D01*
X269662Y293658D01*
X269696Y293672D01*
X270050Y293318D01*
X270035Y293283D01*
X269909Y292322D01*
X270035Y291361D01*
X270406Y290466D01*
X270996Y289697D01*
X271765Y289107D01*
X272660Y288736D01*
X273622Y288609D01*
X274583Y288736D01*
X275478Y289107D01*
X276247Y289697D01*
X276837Y290466D01*
X277208Y291361D01*
X277334Y292322D01*
X277208Y293283D01*
X277149Y293426D01*
X282205Y298483D01*
X289890D01*
X290354Y298391D01*
X293435D01*
X293626Y297929D01*
X291110Y295412D01*
X290738Y294856D01*
X290608Y294200D01*
Y293383D01*
X290543Y293283D01*
X290128Y292983D01*
X289370Y293083D01*
X288409Y292956D01*
X287514Y292585D01*
X286745Y291996D01*
X286155Y291227D01*
X285784Y290331D01*
X285657Y289370D01*
X285784Y288409D01*
X286155Y287514D01*
X286745Y286745D01*
X287514Y286155D01*
X288409Y285784D01*
X289052Y285699D01*
X289083Y285191D01*
X289064Y285179D01*
X270418D01*
X269762Y285048D01*
X269206Y284677D01*
X260653Y276123D01*
X248031D01*
X247376Y275993D01*
X246819Y275622D01*
X227637Y256438D01*
X225000D01*
Y257480D01*
X215945D01*
Y256438D01*
X212008D01*
X211352Y256308D01*
X210796Y255936D01*
X209978Y255118D01*
X204921D01*
Y248819D01*
X212402D01*
Y252694D01*
X212718Y253010D01*
X215945D01*
Y251969D01*
X225000D01*
Y253010D01*
X228346D01*
X229002Y253141D01*
X229558Y253512D01*
X248742Y272695D01*
X261363D01*
X262019Y272826D01*
X262575Y273197D01*
X271128Y281750D01*
X292001D01*
X292060Y281608D01*
X292650Y280839D01*
X293419Y280249D01*
X294315Y279878D01*
X294992Y279789D01*
X295063Y279780D01*
Y279275D01*
X294992Y279266D01*
X294315Y279177D01*
X293419Y278806D01*
X292650Y278216D01*
X292060Y277447D01*
X291689Y276552D01*
X291563Y275590D01*
X291689Y274630D01*
X292060Y273734D01*
X292650Y272965D01*
X293419Y272375D01*
X294315Y272004D01*
X295276Y271878D01*
X296236Y272004D01*
X297132Y272375D01*
X297901Y272965D01*
X298491Y273734D01*
X298862Y274630D01*
X298989Y275590D01*
X298862Y276552D01*
X298803Y276694D01*
X301325Y279216D01*
X301676Y279210D01*
X301900Y279135D01*
X302061Y278747D01*
X302622Y278016D01*
X303353Y277455D01*
X304204Y277102D01*
X304892Y277011D01*
X305032Y276489D01*
X304461Y276051D01*
X303871Y275282D01*
X303500Y274386D01*
X303374Y273425D01*
X303500Y272464D01*
X303871Y271569D01*
X304461Y270800D01*
X305006Y270382D01*
X304836Y269882D01*
X299016D01*
Y261557D01*
X270991D01*
X270932Y261699D01*
X270342Y262468D01*
X269573Y263058D01*
X268677Y263429D01*
X267717Y263555D01*
X266756Y263429D01*
X265860Y263058D01*
X265091Y262468D01*
X264501Y261699D01*
X264130Y260804D01*
X264004Y259842D01*
X264130Y258882D01*
X264501Y257986D01*
X265091Y257217D01*
X265860Y256627D01*
X266756Y256256D01*
X267717Y256130D01*
X268677Y256256D01*
X269573Y256627D01*
X270342Y257217D01*
X270932Y257986D01*
X270991Y258128D01*
X299016D01*
Y247835D01*
X309252D01*
Y257144D01*
X316142D01*
Y255709D01*
X323622D01*
Y262008D01*
X316142D01*
Y260572D01*
X309252D01*
Y269882D01*
X309252D01*
X309167Y270382D01*
X309712Y270800D01*
X310148Y271368D01*
X310470Y271415D01*
X310676Y271402D01*
X310852Y271005D01*
X310852Y271005D01*
X310480Y270109D01*
X310354Y269148D01*
X310480Y268187D01*
X310852Y267292D01*
X311441Y266523D01*
X312210Y265933D01*
X313106Y265562D01*
X314067Y265435D01*
X315028Y265562D01*
X315923Y265933D01*
X316692Y266523D01*
X317282Y267292D01*
X317653Y268187D01*
X317780Y269148D01*
X317653Y270109D01*
X317282Y271005D01*
X316692Y271774D01*
X315923Y272364D01*
X315028Y272735D01*
X314231Y272839D01*
X313812Y273258D01*
Y275535D01*
X314274Y275727D01*
X319560Y270442D01*
X320115Y270070D01*
X320772Y269939D01*
X332867D01*
X332926Y269797D01*
X333516Y269028D01*
X334285Y268438D01*
X335181Y268067D01*
X336142Y267941D01*
X337103Y268067D01*
X337998Y268438D01*
X338767Y269028D01*
X339357Y269797D01*
X339728Y270693D01*
X339855Y271654D01*
X339728Y272615D01*
X339357Y273510D01*
X338767Y274279D01*
X337998Y274869D01*
X337103Y275240D01*
X336142Y275366D01*
X335181Y275240D01*
X334285Y274869D01*
X333516Y274279D01*
X332926Y273510D01*
X332867Y273368D01*
X322045D01*
X322013Y273868D01*
X322811Y273973D01*
X323707Y274344D01*
X324476Y274934D01*
X325066Y275703D01*
X325437Y276598D01*
X325563Y277559D01*
X325437Y278520D01*
X325066Y279415D01*
X324476Y280185D01*
X323707Y280774D01*
X322811Y281145D01*
X321850Y281272D01*
X320889Y281145D01*
X320747Y281086D01*
X317659Y284175D01*
Y288339D01*
X317913Y288548D01*
X318605Y288685D01*
X318898Y288881D01*
X319191Y288685D01*
X319882Y288548D01*
X320573Y288685D01*
X320866Y288881D01*
X321159Y288685D01*
X321850Y288548D01*
X322542Y288685D01*
X322835Y288881D01*
X323128Y288685D01*
X323819Y288548D01*
X324510Y288685D01*
X324803Y288881D01*
X325096Y288685D01*
X325787Y288548D01*
X326479Y288685D01*
X326935Y288990D01*
X327135Y288856D01*
X327756Y288733D01*
X328010Y288524D01*
Y286417D01*
X328141Y285761D01*
X328512Y285205D01*
X338642Y275075D01*
X339198Y274704D01*
X339854Y274573D01*
X382552D01*
X382611Y274431D01*
X383201Y273662D01*
X383970Y273072D01*
X384866Y272701D01*
X385827Y272574D01*
X386788Y272701D01*
X387683Y273072D01*
X388452Y273662D01*
X389042Y274431D01*
X389413Y275326D01*
X389540Y276287D01*
X389446Y276996D01*
X389769Y277222D01*
X389913Y277281D01*
X390771Y276925D01*
X391732Y276799D01*
X392693Y276925D01*
X393589Y277296D01*
X394358Y277886D01*
X394948Y278655D01*
X395319Y279551D01*
X395445Y280512D01*
X395319Y281473D01*
X394948Y282368D01*
X394358Y283137D01*
X393833Y283539D01*
X394003Y284039D01*
X399130D01*
Y291429D01*
X393012D01*
X386894D01*
Y284039D01*
X389461D01*
X389631Y283539D01*
X389107Y283137D01*
X388517Y282368D01*
X388458Y282226D01*
X347992D01*
X347762Y282595D01*
X347988Y283030D01*
X379232D01*
X379888Y283160D01*
X380444Y283532D01*
X383102Y286190D01*
X383473Y286746D01*
X383604Y287402D01*
Y292323D01*
X383473Y292979D01*
X383102Y293535D01*
X375539Y301097D01*
X375731Y301559D01*
X376468D01*
Y304618D01*
X374000D01*
Y303290D01*
X373538Y303099D01*
X372244Y304393D01*
Y308858D01*
X370809D01*
Y313189D01*
X372244D01*
Y320669D01*
X365945D01*
Y313189D01*
X367380D01*
Y308858D01*
X366371D01*
X366037Y308858D01*
X365697Y309194D01*
Y309194D01*
X365697Y309194D01*
X365791Y309571D01*
X365801Y309649D01*
X365918Y310531D01*
X365791Y311492D01*
X365420Y312388D01*
X364830Y313157D01*
X364061Y313747D01*
X363166Y314118D01*
X362205Y314244D01*
X361244Y314118D01*
X361064Y314043D01*
X360781Y314467D01*
X362031Y315717D01*
X362402Y316273D01*
X362533Y316929D01*
Y330722D01*
X362675Y330781D01*
X363444Y331371D01*
X364034Y332140D01*
X364405Y333035D01*
X364532Y333996D01*
X364405Y334957D01*
X364034Y335853D01*
X363444Y336621D01*
X362675Y337211D01*
X361780Y337582D01*
X360819Y337709D01*
X359858Y337582D01*
X358962Y337211D01*
X358193Y336621D01*
X357603Y335853D01*
X357232Y334957D01*
X357106Y333996D01*
X357232Y333035D01*
X357603Y332140D01*
X358193Y331371D01*
X358962Y330781D01*
X359105Y330722D01*
Y327626D01*
X358643Y327435D01*
X356045Y330033D01*
Y335747D01*
X361104Y340806D01*
X389442D01*
X389501Y340663D01*
X390091Y339894D01*
X390860Y339304D01*
X391756Y338933D01*
X392717Y338807D01*
X393677Y338933D01*
X394573Y339304D01*
X395342Y339894D01*
X395932Y340663D01*
X396303Y341559D01*
X396429Y342520D01*
X396303Y343481D01*
X395932Y344376D01*
X395342Y345145D01*
X394573Y345735D01*
X393677Y346106D01*
X392717Y346233D01*
X391756Y346106D01*
X390860Y345735D01*
X390091Y345145D01*
X389501Y344376D01*
X389442Y344234D01*
X360394D01*
X359738Y344103D01*
X359182Y343732D01*
X353119Y337669D01*
X352747Y337113D01*
X352617Y336457D01*
Y329323D01*
X352747Y328667D01*
X353119Y328111D01*
X356554Y324676D01*
Y322156D01*
X356541Y322138D01*
X356033Y322169D01*
X355948Y322811D01*
X355578Y323707D01*
X354988Y324476D01*
X354219Y325066D01*
X353323Y325437D01*
X352362Y325563D01*
X351401Y325437D01*
X350506Y325066D01*
X350016Y325320D01*
Y327256D01*
X346457D01*
X342898D01*
Y326221D01*
X342436Y326030D01*
X341557Y326909D01*
X341083Y327225D01*
X341089Y327256D01*
X341038D01*
X341001Y327280D01*
X340345Y327411D01*
X340326D01*
X340258Y327456D01*
X339567Y327594D01*
X337402D01*
X335236D01*
X334545Y327456D01*
X334245Y327256D01*
X333714D01*
X333738Y327135D01*
X333872Y326935D01*
X333567Y326479D01*
X333430Y325787D01*
X333567Y325096D01*
X333763Y324803D01*
X333567Y324510D01*
X333430Y323819D01*
X333221Y323564D01*
X327274D01*
X327215Y323707D01*
X326625Y324476D01*
X325856Y325066D01*
X324961Y325437D01*
X324000Y325563D01*
X323039Y325437D01*
X322144Y325066D01*
X321375Y324476D01*
X320785Y323707D01*
X320414Y322811D01*
X320287Y321850D01*
X320414Y320889D01*
X320535Y320596D01*
X320111Y320313D01*
X319795Y320629D01*
X319239Y321000D01*
X319066Y321035D01*
X318725Y321856D01*
X318135Y322625D01*
X317366Y323215D01*
X316471Y323586D01*
X315510Y323713D01*
X314549Y323586D01*
X313653Y323215D01*
X312885Y322625D01*
X312295Y321856D01*
X311924Y320961D01*
X311812Y320112D01*
X311356Y319861D01*
X308550Y322667D01*
X308704Y323039D01*
X308831Y324000D01*
X308704Y324961D01*
X308333Y325856D01*
X307744Y326625D01*
X306975Y327215D01*
X306079Y327586D01*
X305118Y327713D01*
X304157Y327586D01*
X303262Y327215D01*
X302493Y326625D01*
X301903Y325856D01*
X301532Y324961D01*
X301405Y324000D01*
X301532Y323039D01*
X301903Y322144D01*
X302404Y321490D01*
X302053Y321129D01*
X301158Y321500D01*
X300197Y321626D01*
X299236Y321500D01*
X298340Y321129D01*
X297571Y320539D01*
X296981Y319770D01*
X296976Y319758D01*
X296491Y319882D01*
X296354Y320573D01*
X296158Y320866D01*
X296354Y321159D01*
X296491Y321850D01*
X296354Y322542D01*
X296158Y322835D01*
X296354Y323128D01*
X296491Y323819D01*
X296354Y324510D01*
X296158Y324803D01*
X296354Y325096D01*
X296491Y325787D01*
X296354Y326479D01*
X296158Y326772D01*
X296354Y327065D01*
X296491Y327756D01*
X296354Y328447D01*
X296158Y328740D01*
X296354Y329033D01*
X296491Y329724D01*
X296354Y330416D01*
X295962Y331002D01*
X295376Y331393D01*
X294685Y331531D01*
X290354D01*
X289663Y331393D01*
X289077Y331002D01*
X288685Y330416D01*
X288548Y329724D01*
X288685Y329033D01*
X288881Y328740D01*
X288685Y328447D01*
X288548Y327756D01*
X288685Y327065D01*
X288881Y326772D01*
X288685Y326479D01*
X288548Y325787D01*
X288685Y325096D01*
X288881Y324803D01*
X288685Y324510D01*
X288548Y323819D01*
X288339Y323564D01*
X284174D01*
X278771Y328968D01*
X278372Y329235D01*
X278283Y329797D01*
X278300Y329810D01*
X278909Y330604D01*
X279292Y331528D01*
X279422Y332520D01*
X279292Y333511D01*
X279208Y333714D01*
X283253Y337758D01*
X283702Y337500D01*
X283815Y336637D01*
X284186Y335742D01*
X284776Y334973D01*
X285545Y334383D01*
X286441Y334012D01*
X287402Y333886D01*
X288363Y334012D01*
X289258Y334383D01*
X290027Y334973D01*
X290575Y335688D01*
X298391D01*
Y335236D01*
X298528Y334545D01*
X298920Y333959D01*
X299506Y333567D01*
X300197Y333430D01*
X300888Y333567D01*
X301344Y333872D01*
X301545Y333738D01*
X301665Y333714D01*
Y334245D01*
X301866Y334545D01*
X302003Y335236D01*
Y337402D01*
X302327D01*
Y335236D01*
X302465Y334545D01*
X302665Y334245D01*
Y333714D01*
X302786Y333738D01*
X302987Y333872D01*
X303443Y333567D01*
X304134Y333430D01*
X304825Y333567D01*
X305118Y333763D01*
X305411Y333567D01*
X306102Y333430D01*
X306794Y333567D01*
X307250Y333872D01*
X307450Y333738D01*
X307571Y333714D01*
Y334245D01*
X307771Y334545D01*
X307909Y335236D01*
Y337402D01*
X308233D01*
Y335236D01*
X308370Y334545D01*
X308571Y334245D01*
Y333714D01*
X308691Y333738D01*
X308892Y333872D01*
X309348Y333567D01*
X310039Y333430D01*
X310731Y333567D01*
X311024Y333763D01*
X311317Y333567D01*
X312008Y333430D01*
X312699Y333567D01*
X312992Y333763D01*
X313285Y333567D01*
X313976Y333430D01*
X314668Y333567D01*
X314961Y333763D01*
X315254Y333567D01*
X315945Y333430D01*
X316636Y333567D01*
X316929Y333763D01*
X317222Y333567D01*
X317913Y333430D01*
X318605Y333567D01*
X318898Y333763D01*
X319191Y333567D01*
X319882Y333430D01*
X320573Y333567D01*
X320866Y333763D01*
X321159Y333567D01*
X321850Y333430D01*
X322542Y333567D01*
X322835Y333763D01*
X323128Y333567D01*
X323819Y333430D01*
X324510Y333567D01*
X324803Y333763D01*
X325096Y333567D01*
X325787Y333430D01*
X326479Y333567D01*
X326772Y333763D01*
X327065Y333567D01*
X327756Y333430D01*
X328447Y333567D01*
X328740Y333763D01*
X329033Y333567D01*
X329724Y333430D01*
X330416Y333567D01*
X331002Y333959D01*
X331393Y334545D01*
X331429Y334725D01*
X331964Y334850D01*
X332020Y334776D01*
X332789Y334186D01*
X333685Y333815D01*
X334646Y333689D01*
X335607Y333815D01*
X335695Y333852D01*
X336026Y333448D01*
X335818Y333136D01*
X335688Y332480D01*
Y331531D01*
X335236D01*
X334545Y331393D01*
X333959Y331002D01*
X333567Y330416D01*
X333430Y329724D01*
X333567Y329033D01*
X333872Y328577D01*
X333738Y328376D01*
X333714Y328256D01*
X334245D01*
X334545Y328055D01*
X335236Y327918D01*
X337402D01*
X339567D01*
X340258Y328055D01*
X340558Y328256D01*
X341089D01*
X341065Y328376D01*
X340931Y328577D01*
X341236Y329033D01*
X341373Y329724D01*
X341236Y330416D01*
X340844Y331002D01*
X340258Y331393D01*
X339580Y331528D01*
X339552Y331569D01*
X339376Y332031D01*
X341261Y333916D01*
X342717D01*
Y332480D01*
X350197D01*
Y336224D01*
X366587Y352615D01*
X366803Y352586D01*
X367305Y352652D01*
X371136Y348821D01*
X371136Y348821D01*
X371858Y348339D01*
X372709Y348170D01*
X372709Y348170D01*
X382893D01*
X383201Y347768D01*
X383970Y347178D01*
X384866Y346807D01*
X385827Y346681D01*
X386788Y346807D01*
X387683Y347178D01*
X388452Y347768D01*
X389042Y348537D01*
X389413Y349433D01*
X389540Y350394D01*
X389413Y351355D01*
X389042Y352250D01*
X388452Y353019D01*
X387683Y353609D01*
X386788Y353980D01*
X385827Y354107D01*
X384866Y353980D01*
X383970Y353609D01*
X383201Y353019D01*
X382893Y352618D01*
X373630D01*
X370450Y355797D01*
X370516Y356299D01*
X370390Y357260D01*
X370019Y358156D01*
X369429Y358925D01*
X368660Y359515D01*
X367764Y359886D01*
X366803Y360012D01*
X365843Y359886D01*
X364947Y359515D01*
X364178Y358925D01*
X363588Y358156D01*
X363217Y357260D01*
X363091Y356299D01*
X363194Y355512D01*
X346462Y338779D01*
X342717D01*
Y337344D01*
X340551D01*
X339895Y337213D01*
X339339Y336842D01*
X338657Y336159D01*
X338232Y336441D01*
X338358Y337402D01*
X338232Y338363D01*
X337861Y339258D01*
X337271Y340027D01*
X336502Y340617D01*
X335607Y340988D01*
X334646Y341114D01*
X333685Y340988D01*
X332789Y340617D01*
X332020Y340027D01*
X331964Y339953D01*
X331429Y340078D01*
X331393Y340258D01*
X331002Y340844D01*
X330416Y341236D01*
X329724Y341373D01*
X329033Y341236D01*
X328740Y341040D01*
X328447Y341236D01*
X327756Y341373D01*
X327065Y341236D01*
X326772Y341040D01*
X326479Y341236D01*
X325787Y341373D01*
X325680Y341461D01*
X325659Y342027D01*
X335511Y351878D01*
X335653Y351819D01*
X336614Y351693D01*
X337575Y351819D01*
X338471Y352190D01*
X339240Y352780D01*
X339830Y353549D01*
X340200Y354445D01*
X340327Y355405D01*
X340200Y356366D01*
X339830Y357262D01*
X339240Y358031D01*
X338471Y358621D01*
X337575Y358992D01*
X336614Y359118D01*
X335653Y358992D01*
X334758Y358621D01*
X333989Y358031D01*
X333399Y357262D01*
X333028Y356366D01*
X332943Y355724D01*
X332435Y355693D01*
X332423Y355711D01*
Y367429D01*
X332292Y368085D01*
X331921Y368641D01*
X326121Y374440D01*
X325565Y374812D01*
X324909Y374942D01*
X321780D01*
X321611Y375442D01*
X322113Y376096D01*
X322484Y376992D01*
X322610Y377953D01*
X322484Y378914D01*
X322113Y379809D01*
X321523Y380578D01*
X320754Y381168D01*
X319859Y381539D01*
X318898Y381666D01*
X317937Y381539D01*
X317041Y381168D01*
X316272Y380578D01*
X315682Y379809D01*
X315623Y379667D01*
X314669D01*
X314499Y380167D01*
X314724Y380339D01*
X315314Y381108D01*
X315685Y382004D01*
X315811Y382965D01*
X315685Y383926D01*
X315314Y384821D01*
X314731Y385581D01*
X314756Y385769D01*
X314861Y386081D01*
X333340D01*
X333399Y385939D01*
X333989Y385170D01*
X334758Y384580D01*
X335653Y384209D01*
X336614Y384082D01*
X337575Y384209D01*
X338471Y384580D01*
X339240Y385170D01*
X339830Y385939D01*
X340200Y386834D01*
X340327Y387795D01*
X340200Y388756D01*
X339830Y389652D01*
X339240Y390421D01*
X338471Y391011D01*
X337575Y391382D01*
X336933Y391466D01*
X336901Y391975D01*
X336920Y391987D01*
X360551D01*
X361207Y392117D01*
X361763Y392489D01*
X370652Y401378D01*
X376496D01*
Y409646D01*
D02*
G37*
G36*
X445382Y379449D02*
Y376484D01*
X448346D01*
X448292Y376898D01*
X447939Y377749D01*
X447378Y378481D01*
X446647Y379042D01*
X445796Y379394D01*
X445382Y379449D01*
D02*
G37*
G36*
X444382D02*
X443968Y379394D01*
X443117Y379042D01*
X442386Y378481D01*
X441825Y377749D01*
X441472Y376898D01*
X441418Y376484D01*
X444382D01*
Y379449D01*
D02*
G37*
G36*
X448346Y375484D02*
X445382D01*
Y372520D01*
X445796Y372574D01*
X446647Y372927D01*
X447378Y373488D01*
X447939Y374219D01*
X448292Y375071D01*
X448346Y375484D01*
D02*
G37*
G36*
X444382D02*
X441418D01*
X441472Y375071D01*
X441825Y374219D01*
X442386Y373488D01*
X443117Y372927D01*
X443968Y372574D01*
X444382Y372520D01*
Y375484D01*
D02*
G37*
G36*
X379445Y376000D02*
X374516D01*
Y371465D01*
X379445D01*
Y376000D01*
D02*
G37*
G36*
X373516D02*
X368587D01*
Y371465D01*
X373516D01*
Y376000D01*
D02*
G37*
G36*
X391945Y374031D02*
X388295D01*
Y370382D01*
X391945D01*
Y374031D01*
D02*
G37*
G36*
X387295D02*
X383646D01*
Y370382D01*
X387295D01*
Y374031D01*
D02*
G37*
G36*
X359252Y375134D02*
X358173Y374992D01*
X357167Y374575D01*
X356304Y373913D01*
X355641Y373049D01*
X355224Y372044D01*
X355082Y370965D01*
X355224Y369885D01*
X355641Y368880D01*
X356304Y368016D01*
X357167Y367354D01*
X358173Y366937D01*
X359252Y366795D01*
X360331Y366937D01*
X361337Y367354D01*
X362200Y368016D01*
X362863Y368880D01*
X363279Y369885D01*
X363422Y370965D01*
X363279Y372044D01*
X362863Y373049D01*
X362200Y373913D01*
X361337Y374575D01*
X360331Y374992D01*
X359252Y375134D01*
D02*
G37*
G36*
X379445Y370465D02*
X374516D01*
Y365929D01*
X379445D01*
Y370465D01*
D02*
G37*
G36*
X373516D02*
X368587D01*
Y365929D01*
X373516D01*
Y370465D01*
D02*
G37*
G36*
X391945Y369382D02*
X388295D01*
Y365732D01*
X391945D01*
Y369382D01*
D02*
G37*
G36*
X387295D02*
X383646D01*
Y365732D01*
X387295D01*
Y369382D01*
D02*
G37*
G36*
X359752Y364886D02*
Y361465D01*
X363173D01*
X363103Y361997D01*
X362705Y362958D01*
X362071Y363784D01*
X361245Y364417D01*
X360284Y364816D01*
X359752Y364886D01*
D02*
G37*
G36*
X358752Y364886D02*
X358220Y364816D01*
X357259Y364417D01*
X356433Y363784D01*
X355799Y362958D01*
X355401Y361997D01*
X355331Y361465D01*
X358752D01*
Y364886D01*
D02*
G37*
G36*
X380921Y362811D02*
X378453D01*
Y359752D01*
X380921D01*
Y362811D01*
D02*
G37*
G36*
X377453D02*
X374984D01*
Y359752D01*
X377453D01*
Y362811D01*
D02*
G37*
G36*
X205591Y366352D02*
X204599Y366221D01*
X203675Y365838D01*
X202881Y365229D01*
X202272Y364436D01*
X201889Y363511D01*
X201759Y362520D01*
X201889Y361528D01*
X202272Y360604D01*
X202881Y359810D01*
X203675Y359201D01*
X204599Y358818D01*
X205591Y358688D01*
X206582Y358818D01*
X207506Y359201D01*
X208300Y359810D01*
X208909Y360604D01*
X209292Y361528D01*
X209422Y362520D01*
X209292Y363511D01*
X208909Y364436D01*
X208300Y365229D01*
X207506Y365838D01*
X206582Y366221D01*
X205591Y366352D01*
D02*
G37*
G36*
X363173Y360465D02*
X359752D01*
Y357044D01*
X360284Y357114D01*
X361245Y357512D01*
X362071Y358145D01*
X362705Y358971D01*
X363103Y359933D01*
X363173Y360465D01*
D02*
G37*
G36*
X358752D02*
X355331D01*
X355401Y359933D01*
X355799Y358971D01*
X356433Y358145D01*
X357259Y357512D01*
X358220Y357114D01*
X358752Y357044D01*
Y360465D01*
D02*
G37*
G36*
X380921Y358752D02*
X378453D01*
Y355693D01*
X380921D01*
Y358752D01*
D02*
G37*
G36*
X377453D02*
X374984D01*
Y355693D01*
X377453D01*
Y358752D01*
D02*
G37*
G36*
X205591Y356352D02*
X204599Y356221D01*
X203675Y355838D01*
X202881Y355229D01*
X202272Y354436D01*
X201889Y353512D01*
X201759Y352520D01*
X201889Y351528D01*
X202272Y350604D01*
X202881Y349810D01*
X203675Y349201D01*
X204599Y348818D01*
X205591Y348688D01*
X206582Y348818D01*
X207506Y349201D01*
X208300Y349810D01*
X208909Y350604D01*
X209292Y351528D01*
X209422Y352520D01*
X209292Y353512D01*
X208909Y354436D01*
X208300Y355229D01*
X207506Y355838D01*
X206582Y356221D01*
X205591Y356352D01*
D02*
G37*
G36*
X206091Y346103D02*
Y343020D01*
X209174D01*
X209116Y343464D01*
X208751Y344344D01*
X208171Y345100D01*
X207415Y345680D01*
X206535Y346045D01*
X206091Y346103D01*
D02*
G37*
G36*
X205091Y346103D02*
X204646Y346045D01*
X203766Y345680D01*
X203010Y345100D01*
X202430Y344344D01*
X202066Y343464D01*
X202007Y343020D01*
X205091D01*
Y346103D01*
D02*
G37*
G36*
X209174Y342020D02*
X206091D01*
Y338936D01*
X206535Y338995D01*
X207415Y339359D01*
X208171Y339939D01*
X208751Y340695D01*
X209116Y341575D01*
X209174Y342020D01*
D02*
G37*
G36*
X205091D02*
X202007D01*
X202066Y341575D01*
X202430Y340695D01*
X203010Y339939D01*
X203766Y339359D01*
X204646Y338995D01*
X205091Y338936D01*
Y342020D01*
D02*
G37*
G36*
X311500Y332464D02*
Y329500D01*
X314464D01*
X314410Y329914D01*
X314057Y330765D01*
X313496Y331496D01*
X312765Y332057D01*
X311914Y332410D01*
X311500Y332464D01*
D02*
G37*
G36*
X310500D02*
X310086Y332410D01*
X309235Y332057D01*
X308504Y331496D01*
X307943Y330765D01*
X307590Y329914D01*
X307536Y329500D01*
X310500D01*
Y332464D01*
D02*
G37*
G36*
X350016Y330724D02*
X346957D01*
Y328256D01*
X350016D01*
Y330724D01*
D02*
G37*
G36*
X345957D02*
X342898D01*
Y328256D01*
X345957D01*
Y330724D01*
D02*
G37*
G36*
X314464Y328500D02*
X311500D01*
Y325536D01*
X311914Y325590D01*
X312765Y325943D01*
X313496Y326504D01*
X314057Y327235D01*
X314410Y328086D01*
X314464Y328500D01*
D02*
G37*
G36*
X310500D02*
X307536D01*
X307590Y328086D01*
X307943Y327235D01*
X308504Y326504D01*
X309235Y325943D01*
X310086Y325590D01*
X310500Y325536D01*
Y328500D01*
D02*
G37*
G36*
X380118Y332480D02*
X373819D01*
Y325000D01*
X375255D01*
Y320669D01*
X373819D01*
Y313189D01*
X380118D01*
Y320669D01*
X378682D01*
Y325000D01*
X380118D01*
Y332480D01*
D02*
G37*
G36*
X379937Y308677D02*
X377468D01*
Y305618D01*
X379937D01*
Y308677D01*
D02*
G37*
G36*
X376468D02*
X374000D01*
Y305618D01*
X376468D01*
Y308677D01*
D02*
G37*
G36*
X379937Y304618D02*
X377468D01*
Y301559D01*
X379937D01*
Y304618D01*
D02*
G37*
G36*
X399130Y299819D02*
X393512D01*
Y292429D01*
X399130D01*
Y299819D01*
D02*
G37*
G36*
X392512D02*
X386894D01*
Y292429D01*
X392512D01*
Y299819D01*
D02*
G37*
G36*
X227559Y274409D02*
X221260D01*
Y272383D01*
X216929D01*
Y274409D01*
X209842D01*
Y266929D01*
X216929D01*
Y268955D01*
X221260D01*
Y266929D01*
X227559D01*
Y274409D01*
D02*
G37*
G36*
X208087Y274228D02*
X205224D01*
Y271169D01*
X208087D01*
Y274228D01*
D02*
G37*
G36*
X204224D02*
X201362D01*
Y271169D01*
X204224D01*
Y274228D01*
D02*
G37*
G36*
X208087Y270169D02*
X205224D01*
Y267110D01*
X208087D01*
Y270169D01*
D02*
G37*
G36*
X204224D02*
X201362D01*
Y267110D01*
X204224D01*
Y270169D01*
D02*
G37*
G36*
X403756Y267831D02*
X398236D01*
Y265461D01*
X403756D01*
Y267831D01*
D02*
G37*
G36*
X397236D02*
X391717D01*
Y265461D01*
X397236D01*
Y267831D01*
D02*
G37*
G36*
X377575Y266748D02*
X374516D01*
Y264280D01*
X377575D01*
Y266748D01*
D02*
G37*
G36*
X373516D02*
X370457D01*
Y264280D01*
X373516D01*
Y266748D01*
D02*
G37*
G36*
X389386D02*
X386327D01*
Y264280D01*
X389386D01*
Y266748D01*
D02*
G37*
G36*
X385327D02*
X382268D01*
Y264280D01*
X385327D01*
Y266748D01*
D02*
G37*
G36*
X403756Y264461D02*
X398236D01*
Y262090D01*
X403756D01*
Y264461D01*
D02*
G37*
G36*
X397236D02*
X391717D01*
Y262090D01*
X397236D01*
Y264461D01*
D02*
G37*
G36*
X389386Y263280D02*
X386327D01*
Y260811D01*
X389386D01*
Y263280D01*
D02*
G37*
G36*
X385327D02*
X382268D01*
Y260811D01*
X385327D01*
Y263280D01*
D02*
G37*
G36*
X377575Y263280D02*
X374516D01*
Y260811D01*
X377575D01*
Y263280D01*
D02*
G37*
G36*
X373516D02*
X370457D01*
Y260811D01*
X373516D01*
Y263280D01*
D02*
G37*
G36*
X323441Y253953D02*
X320382D01*
Y251484D01*
X323441D01*
Y253953D01*
D02*
G37*
G36*
X319382D02*
X316323D01*
Y251484D01*
X319382D01*
Y253953D01*
D02*
G37*
G36*
X330224Y253957D02*
Y250992D01*
X333189D01*
X333134Y251406D01*
X332782Y252257D01*
X332221Y252988D01*
X331489Y253549D01*
X330638Y253902D01*
X330224Y253957D01*
D02*
G37*
G36*
X329224D02*
X328811Y253902D01*
X327959Y253549D01*
X327228Y252988D01*
X326667Y252257D01*
X326314Y251406D01*
X326260Y250992D01*
X329224D01*
Y253957D01*
D02*
G37*
G36*
X323441Y250484D02*
X320382D01*
Y248016D01*
X323441D01*
Y250484D01*
D02*
G37*
G36*
X319382D02*
X316323D01*
Y248016D01*
X319382D01*
Y250484D01*
D02*
G37*
G36*
X333189Y249992D02*
X330224D01*
Y247028D01*
X330638Y247082D01*
X331489Y247435D01*
X332221Y247996D01*
X332782Y248727D01*
X333134Y249578D01*
X333189Y249992D01*
D02*
G37*
G36*
X329224D02*
X326260D01*
X326314Y249578D01*
X326667Y248727D01*
X327228Y247996D01*
X327959Y247435D01*
X328811Y247082D01*
X329224Y247028D01*
Y249992D01*
D02*
G37*
G36*
X212221Y247063D02*
X209161D01*
Y244595D01*
X212221D01*
Y247063D01*
D02*
G37*
G36*
X208161D02*
X205102D01*
Y244595D01*
X208161D01*
Y247063D01*
D02*
G37*
G36*
X374016Y259082D02*
X373809Y259055D01*
X370276D01*
Y252756D01*
X370839D01*
Y249938D01*
X370800Y249888D01*
X370429Y248992D01*
X370303Y248031D01*
X370429Y247071D01*
X370800Y246175D01*
X371390Y245406D01*
X372159Y244816D01*
X373055Y244445D01*
X374016Y244319D01*
X374977Y244445D01*
X375872Y244816D01*
X376641Y245406D01*
X377231Y246175D01*
X377602Y247071D01*
X377729Y248031D01*
X377602Y248992D01*
X377231Y249888D01*
X377192Y249938D01*
Y252756D01*
X377756D01*
Y259055D01*
X374222D01*
X374016Y259082D01*
D02*
G37*
G36*
X224819Y243913D02*
X220972D01*
Y241839D01*
X224819D01*
Y243913D01*
D02*
G37*
G36*
X219972D02*
X216126D01*
Y241839D01*
X219972D01*
Y243913D01*
D02*
G37*
G36*
X212221Y243595D02*
X209161D01*
Y241126D01*
X212221D01*
Y243595D01*
D02*
G37*
G36*
X208161D02*
X205102D01*
Y241126D01*
X208161D01*
Y243595D01*
D02*
G37*
G36*
X446063Y251181D02*
X435827D01*
Y240945D01*
X446063D01*
Y251181D01*
D02*
G37*
G36*
X350303Y262571D02*
X349342Y262445D01*
X348447Y262074D01*
X347678Y261484D01*
X347088Y260715D01*
X346717Y259819D01*
X346590Y258858D01*
X346717Y257897D01*
X347088Y257002D01*
X347678Y256233D01*
X348447Y255643D01*
X349342Y255272D01*
X350020Y255183D01*
X350091Y255173D01*
Y254669D01*
X350020Y254660D01*
X349342Y254571D01*
X348447Y254200D01*
X347678Y253610D01*
X347088Y252841D01*
X346717Y251945D01*
X346590Y250984D01*
X346717Y250023D01*
X346776Y249881D01*
X343670Y246775D01*
X343298Y246219D01*
X343189Y245669D01*
X341142D01*
Y239370D01*
X348622D01*
Y245669D01*
X348065D01*
X347874Y246131D01*
X349200Y247457D01*
X349342Y247398D01*
X350303Y247271D01*
X351264Y247398D01*
X352160Y247769D01*
X352699Y248183D01*
X353199Y247936D01*
Y245669D01*
X351173D01*
Y239370D01*
X358653D01*
Y245669D01*
X356627D01*
Y254248D01*
X356497Y254904D01*
X356125Y255460D01*
X353831Y257755D01*
X353890Y257897D01*
X354016Y258858D01*
X353890Y259819D01*
X353519Y260715D01*
X352929Y261484D01*
X352160Y262074D01*
X351264Y262445D01*
X350303Y262571D01*
D02*
G37*
G36*
X224819Y240839D02*
X220972D01*
Y238764D01*
X224819D01*
Y240839D01*
D02*
G37*
G36*
X219972D02*
X216126D01*
Y238764D01*
X219972D01*
Y240839D01*
D02*
G37*
G36*
X319382Y234268D02*
X316323D01*
Y231799D01*
X319382D01*
Y234268D01*
D02*
G37*
G36*
X323441Y230799D02*
X320382D01*
Y228331D01*
X323441D01*
Y230799D01*
D02*
G37*
G36*
X319382D02*
X316323D01*
Y228331D01*
X319382D01*
Y230799D01*
D02*
G37*
G36*
X401575Y238949D02*
X400614Y238823D01*
X399718Y238452D01*
X398949Y237862D01*
X398359Y237093D01*
X397989Y236197D01*
X397862Y235236D01*
X397989Y234275D01*
X398359Y233380D01*
X398949Y232611D01*
X399718Y232021D01*
X400614Y231650D01*
X401575Y231523D01*
X402536Y231650D01*
X403431Y232021D01*
X404200Y232611D01*
X404790Y233380D01*
X404849Y233522D01*
X425471D01*
X433465Y225529D01*
Y220866D01*
X440551D01*
Y227953D01*
X435889D01*
X427393Y236448D01*
X426837Y236820D01*
X426181Y236950D01*
X404849D01*
X404790Y237093D01*
X404200Y237862D01*
X403431Y238452D01*
X402536Y238823D01*
X401575Y238949D01*
D02*
G37*
G36*
X416929Y227953D02*
X409842D01*
Y220866D01*
X416929D01*
Y227953D01*
D02*
G37*
G36*
X285874D02*
X278787D01*
Y220866D01*
X285874D01*
Y227953D01*
D02*
G37*
G36*
X263386D02*
X256299D01*
Y220866D01*
X263386D01*
Y227953D01*
D02*
G37*
G36*
X239764D02*
X232677D01*
Y220866D01*
X239764D01*
Y227953D01*
D02*
G37*
G36*
X289370Y247807D02*
X288409Y247681D01*
X287514Y247310D01*
X286745Y246720D01*
X286155Y245951D01*
X285784Y245056D01*
X285657Y244094D01*
X285784Y243133D01*
X286155Y242238D01*
X286745Y241469D01*
X287514Y240879D01*
X288409Y240508D01*
X289370Y240382D01*
X290331Y240508D01*
X291227Y240879D01*
X291996Y241469D01*
X292304Y241871D01*
X315535D01*
X322676Y234730D01*
X322485Y234268D01*
X320382D01*
Y231799D01*
X323441D01*
Y233312D01*
X323903Y233503D01*
X332091Y225315D01*
X331972Y224410D01*
X332114Y223330D01*
X332531Y222325D01*
X333193Y221461D01*
X334057Y220798D01*
X335063Y220382D01*
X336142Y220240D01*
X337221Y220382D01*
X338227Y220798D01*
X339090Y221461D01*
X339151Y221541D01*
X339625Y221380D01*
Y219796D01*
X337959Y218131D01*
X337221Y218437D01*
X336142Y218579D01*
X335063Y218437D01*
X334057Y218020D01*
X333193Y217358D01*
X332531Y216494D01*
X332114Y215489D01*
X331972Y214409D01*
X332114Y213330D01*
X332531Y212325D01*
X333193Y211461D01*
X334057Y210799D01*
X335063Y210382D01*
X336142Y210240D01*
X337221Y210382D01*
X338227Y210799D01*
X339090Y211461D01*
X339753Y212325D01*
X340169Y213330D01*
X340311Y214409D01*
X340169Y215489D01*
X340168Y215492D01*
X342551Y217875D01*
X342922Y218431D01*
X343053Y219087D01*
Y220939D01*
X343553Y221185D01*
X344057Y220798D01*
X345063Y220382D01*
X346142Y220240D01*
X347221Y220382D01*
X348226Y220798D01*
X349090Y221461D01*
X349190Y221592D01*
X349664Y221431D01*
Y220356D01*
X347592Y218283D01*
X347221Y218437D01*
X346142Y218579D01*
X345063Y218437D01*
X344057Y218020D01*
X343193Y217358D01*
X342531Y216494D01*
X342114Y215489D01*
X341972Y214409D01*
X342114Y213330D01*
X342531Y212325D01*
X343193Y211461D01*
X344057Y210799D01*
X345063Y210382D01*
X346142Y210240D01*
X347221Y210382D01*
X348226Y210799D01*
X349090Y211461D01*
X349753Y212325D01*
X350169Y213330D01*
X350311Y214409D01*
X350169Y215489D01*
X350016Y215859D01*
X352590Y218434D01*
X352961Y218990D01*
X353092Y219646D01*
Y220909D01*
X353592Y221155D01*
X354057Y220798D01*
X355063Y220382D01*
X356142Y220240D01*
X357221Y220382D01*
X358226Y220798D01*
X358605Y221089D01*
X359105Y220842D01*
Y219796D01*
X357592Y218283D01*
X357221Y218437D01*
X356142Y218579D01*
X355063Y218437D01*
X354057Y218020D01*
X353193Y217358D01*
X352531Y216494D01*
X352114Y215489D01*
X351972Y214409D01*
X352114Y213330D01*
X352531Y212325D01*
X353193Y211461D01*
X354057Y210799D01*
X355063Y210382D01*
X356142Y210240D01*
X357221Y210382D01*
X358226Y210799D01*
X359090Y211461D01*
X359753Y212325D01*
X360169Y213330D01*
X360311Y214409D01*
X360169Y215489D01*
X360016Y215859D01*
X361689Y217533D01*
X362189Y217326D01*
Y214909D01*
X365642D01*
Y218362D01*
X362899D01*
X362488Y218862D01*
X362533Y219087D01*
Y221544D01*
X363006Y221705D01*
X363193Y221461D01*
X364057Y220798D01*
X365063Y220382D01*
X366142Y220240D01*
X367221Y220382D01*
X368227Y220798D01*
X369090Y221461D01*
X369753Y222325D01*
X370169Y223330D01*
X370311Y224410D01*
X370169Y225489D01*
X369753Y226494D01*
X369090Y227358D01*
X368227Y228020D01*
X367221Y228437D01*
X366142Y228579D01*
X365063Y228437D01*
X364057Y228020D01*
X363193Y227358D01*
X363006Y227114D01*
X362533Y227275D01*
Y229331D01*
X362402Y229987D01*
X362031Y230543D01*
X358653Y233920D01*
Y237795D01*
X351173D01*
Y232076D01*
X350673Y231869D01*
X348622Y233920D01*
Y237795D01*
X341142D01*
Y233343D01*
X341109Y233177D01*
X341142Y233012D01*
Y232068D01*
X340642Y231861D01*
X337856Y234647D01*
Y239836D01*
X337998Y239895D01*
X338767Y240485D01*
X339357Y241254D01*
X339728Y242149D01*
X339855Y243110D01*
X339728Y244071D01*
X339357Y244967D01*
X338767Y245736D01*
X337998Y246326D01*
X337103Y246696D01*
X336142Y246823D01*
X335181Y246696D01*
X334285Y246326D01*
X333516Y245736D01*
X332926Y244967D01*
X332555Y244071D01*
X332429Y243110D01*
X332555Y242149D01*
X332926Y241254D01*
X333516Y240485D01*
X334285Y239895D01*
X334428Y239836D01*
Y233937D01*
X334558Y233281D01*
X334930Y232725D01*
X339625Y228030D01*
Y227439D01*
X339151Y227278D01*
X339090Y227358D01*
X338227Y228020D01*
X337221Y228437D01*
X336142Y228579D01*
X335236Y228460D01*
X318029Y245667D01*
X317308Y246149D01*
X316457Y246318D01*
X316457Y246318D01*
X292304D01*
X291996Y246720D01*
X291227Y247310D01*
X290331Y247681D01*
X289370Y247807D01*
D02*
G37*
G36*
X370094Y218362D02*
X366642D01*
Y214909D01*
X370094D01*
Y218362D01*
D02*
G37*
G36*
Y213909D02*
X366642D01*
Y210457D01*
X370094D01*
Y213909D01*
D02*
G37*
G36*
X365642D02*
X362189D01*
Y210457D01*
X365642D01*
Y213909D01*
D02*
G37*
G36*
X437008Y212235D02*
X436083Y212113D01*
X435221Y211756D01*
X434481Y211189D01*
X433913Y210448D01*
X433556Y209586D01*
X433434Y208661D01*
X433556Y207736D01*
X433913Y206874D01*
X434481Y206134D01*
X435221Y205566D01*
X436083Y205209D01*
X437008Y205088D01*
X437933Y205209D01*
X438795Y205566D01*
X439535Y206134D01*
X440103Y206874D01*
X440460Y207736D01*
X440582Y208661D01*
X440460Y209586D01*
X440103Y210448D01*
X439535Y211189D01*
X438795Y211756D01*
X437933Y212113D01*
X437008Y212235D01*
D02*
G37*
G36*
X413386D02*
X412461Y212113D01*
X411599Y211756D01*
X410859Y211189D01*
X410291Y210448D01*
X409934Y209586D01*
X409812Y208661D01*
X409934Y207736D01*
X410291Y206874D01*
X410859Y206134D01*
X411599Y205566D01*
X412461Y205209D01*
X413386Y205088D01*
X414311Y205209D01*
X415173Y205566D01*
X415913Y206134D01*
X416481Y206874D01*
X416838Y207736D01*
X416960Y208661D01*
X416838Y209586D01*
X416481Y210448D01*
X415913Y211189D01*
X415173Y211756D01*
X414311Y212113D01*
X413386Y212235D01*
D02*
G37*
G36*
X259842D02*
X258917Y212113D01*
X258056Y211756D01*
X257315Y211189D01*
X256748Y210448D01*
X256390Y209586D01*
X256269Y208661D01*
X256390Y207736D01*
X256748Y206874D01*
X257315Y206134D01*
X258056Y205566D01*
X258917Y205209D01*
X259842Y205088D01*
X260768Y205209D01*
X261630Y205566D01*
X262370Y206134D01*
X262938Y206874D01*
X263295Y207736D01*
X263416Y208661D01*
X263295Y209586D01*
X262938Y210448D01*
X262370Y211189D01*
X261630Y211756D01*
X260768Y212113D01*
X259842Y212235D01*
D02*
G37*
G36*
X236221D02*
X235296Y212113D01*
X234434Y211756D01*
X233693Y211189D01*
X233125Y210448D01*
X232768Y209586D01*
X232647Y208661D01*
X232768Y207736D01*
X233125Y206874D01*
X233693Y206134D01*
X234434Y205566D01*
X235296Y205209D01*
X236221Y205088D01*
X237145Y205209D01*
X238007Y205566D01*
X238748Y206134D01*
X239316Y206874D01*
X239673Y207736D01*
X239794Y208661D01*
X239673Y209586D01*
X239316Y210448D01*
X238748Y211189D01*
X238007Y211756D01*
X237145Y212113D01*
X236221Y212235D01*
D02*
G37*
G36*
X460630Y215782D02*
X459241Y215646D01*
X457905Y215240D01*
X456674Y214582D01*
X455595Y213697D01*
X454709Y212618D01*
X454051Y211386D01*
X453646Y210051D01*
X453509Y208661D01*
X453646Y207272D01*
X454051Y205936D01*
X454709Y204705D01*
X455595Y203626D01*
X456674Y202741D01*
X457905Y202083D01*
X459241Y201677D01*
X460630Y201540D01*
X462019Y201677D01*
X463355Y202083D01*
X464586Y202741D01*
X465665Y203626D01*
X466551Y204705D01*
X467209Y205936D01*
X467614Y207272D01*
X467751Y208661D01*
X467614Y210051D01*
X467209Y211386D01*
X466551Y212618D01*
X465665Y213697D01*
X464586Y214582D01*
X463355Y215240D01*
X462019Y215646D01*
X460630Y215782D01*
D02*
G37*
G36*
X208661D02*
X207272Y215646D01*
X205936Y215240D01*
X204705Y214582D01*
X203626Y213697D01*
X202741Y212618D01*
X202083Y211386D01*
X201677Y210051D01*
X201540Y208661D01*
X201677Y207272D01*
X202083Y205936D01*
X202741Y204705D01*
X203626Y203626D01*
X204705Y202741D01*
X205936Y202083D01*
X207272Y201677D01*
X208661Y201540D01*
X210051Y201677D01*
X211386Y202083D01*
X212618Y202741D01*
X213697Y203626D01*
X214582Y204705D01*
X215240Y205936D01*
X215646Y207272D01*
X215782Y208661D01*
X215646Y210051D01*
X215240Y211386D01*
X214582Y212618D01*
X213697Y213697D01*
X212618Y214582D01*
X211386Y215240D01*
X210051Y215646D01*
X208661Y215782D01*
D02*
G37*
%LPD*%
G36*
X304157Y320414D02*
X305118Y320287D01*
X305970Y320399D01*
X313581Y312788D01*
X314137Y312416D01*
X314793Y312286D01*
X327780D01*
X328435Y312416D01*
X328992Y312788D01*
X332403Y316199D01*
X333221D01*
X333430Y315945D01*
X333567Y315254D01*
X333763Y314961D01*
X333567Y314668D01*
X333430Y313976D01*
X333567Y313285D01*
X333763Y312992D01*
X333567Y312699D01*
X333430Y312008D01*
X333567Y311317D01*
X333763Y311024D01*
X333567Y310731D01*
X333430Y310039D01*
X333567Y309348D01*
X333763Y309055D01*
X333567Y308762D01*
X333430Y308071D01*
X333567Y307380D01*
X333763Y307087D01*
X333567Y306794D01*
X333430Y306102D01*
X333567Y305411D01*
X333763Y305118D01*
X333567Y304825D01*
X333430Y304134D01*
X333567Y303443D01*
X333763Y303150D01*
X333567Y302857D01*
X333430Y302165D01*
X333548Y301572D01*
X333504Y301517D01*
X332868Y301446D01*
X332102Y302212D01*
X331546Y302584D01*
X330890Y302714D01*
X313068D01*
X313009Y302856D01*
X312419Y303625D01*
X311650Y304215D01*
X310754Y304586D01*
X309793Y304713D01*
X308832Y304586D01*
X307937Y304215D01*
X307168Y303625D01*
X306578Y302856D01*
X306257Y302083D01*
X305757Y302165D01*
X305627Y302821D01*
X305255Y303377D01*
X303377Y305255D01*
X301318Y307314D01*
X300762Y307686D01*
X300106Y307817D01*
X296515D01*
X296307Y308071D01*
X296183Y308691D01*
X296049Y308892D01*
X296354Y309348D01*
X296491Y310039D01*
X296354Y310731D01*
X296158Y311024D01*
X296354Y311317D01*
X296491Y312008D01*
X296457Y312182D01*
X296918Y312428D01*
X298550Y310796D01*
X299106Y310424D01*
X299762Y310294D01*
X302828D01*
X302887Y310151D01*
X303477Y309383D01*
X304246Y308792D01*
X305141Y308421D01*
X306102Y308295D01*
X307063Y308421D01*
X307959Y308792D01*
X308728Y309383D01*
X309318Y310151D01*
X309689Y311047D01*
X309815Y312008D01*
X309689Y312969D01*
X309318Y313864D01*
X308728Y314633D01*
X307959Y315223D01*
X307063Y315594D01*
X306102Y315721D01*
X305141Y315594D01*
X304246Y315223D01*
X303477Y314633D01*
X302887Y313864D01*
X302828Y313722D01*
X300988D01*
X300936Y313793D01*
X301158Y314327D01*
X302053Y314698D01*
X302822Y315288D01*
X303412Y316057D01*
X303783Y316952D01*
X303910Y317913D01*
X303783Y318874D01*
X303412Y319770D01*
X302910Y320424D01*
X303262Y320785D01*
X304157Y320414D01*
D02*
G37*
G36*
X306578Y299144D02*
X307168Y298375D01*
X307937Y297785D01*
X308832Y297414D01*
X309793Y297287D01*
X310754Y297414D01*
X311650Y297785D01*
X312419Y298375D01*
X313009Y299144D01*
X313068Y299286D01*
X330180D01*
X344806Y284660D01*
X344547Y284212D01*
X343685Y284098D01*
X342789Y283727D01*
X342020Y283137D01*
X341430Y282368D01*
X341059Y281473D01*
X340933Y280512D01*
X341059Y279551D01*
X341430Y278655D01*
X341588Y278450D01*
X341367Y278001D01*
X340564D01*
X336118Y282448D01*
X336351Y282922D01*
X336614Y282887D01*
X337528Y283007D01*
X338379Y283360D01*
X339110Y283921D01*
X339671Y284652D01*
X340024Y285504D01*
X340078Y285917D01*
X336614D01*
Y286417D01*
X336114D01*
Y289882D01*
X335700Y289827D01*
X334849Y289475D01*
X334118Y288913D01*
X333557Y288182D01*
X333204Y287331D01*
X333084Y286417D01*
X333119Y286154D01*
X332645Y285921D01*
X331438Y287127D01*
Y289890D01*
X331531Y290354D01*
Y294685D01*
X331393Y295376D01*
X331002Y295962D01*
X330416Y296354D01*
X329724Y296491D01*
X329033Y296354D01*
X328577Y296049D01*
X328376Y296183D01*
X328256Y296207D01*
Y295676D01*
X328055Y295376D01*
X327918Y294685D01*
Y292520D01*
X327594D01*
Y294685D01*
X327456Y295376D01*
X327256Y295677D01*
Y296207D01*
X327135Y296183D01*
X326935Y296049D01*
X326479Y296354D01*
X325787Y296491D01*
X325096Y296354D01*
X324803Y296158D01*
X324510Y296354D01*
X323819Y296491D01*
X323128Y296354D01*
X322835Y296158D01*
X322542Y296354D01*
X321850Y296491D01*
X321159Y296354D01*
X320866Y296158D01*
X320573Y296354D01*
X319882Y296491D01*
X319191Y296354D01*
X318898Y296158D01*
X318605Y296354D01*
X317913Y296491D01*
X317222Y296354D01*
X316929Y296158D01*
X316636Y296354D01*
X315945Y296491D01*
X315254Y296354D01*
X314961Y296158D01*
X314668Y296354D01*
X313976Y296491D01*
X313285Y296354D01*
X312992Y296158D01*
X312699Y296354D01*
X312008Y296491D01*
X311317Y296354D01*
X311024Y296158D01*
X310731Y296354D01*
X310039Y296491D01*
X309348Y296354D01*
X309055Y296158D01*
X308762Y296354D01*
X308071Y296491D01*
X307380Y296354D01*
X307087Y296158D01*
X306794Y296354D01*
X306102Y296491D01*
X305757Y296775D01*
Y299818D01*
X306257Y299917D01*
X306578Y299144D01*
D02*
G37*
G36*
X303443Y288685D02*
X304134Y288548D01*
X304825Y288685D01*
X305118Y288881D01*
X305411Y288685D01*
X306102Y288548D01*
X306794Y288685D01*
X307087Y288881D01*
X307380Y288685D01*
X308071Y288548D01*
X308235Y288413D01*
Y283021D01*
X307735Y282851D01*
X307614Y283008D01*
X306883Y283569D01*
X306032Y283922D01*
X305618Y283976D01*
Y280512D01*
X304618D01*
Y283976D01*
X304204Y283922D01*
X303353Y283569D01*
X302622Y283008D01*
X302411Y282733D01*
X301911Y282903D01*
Y288524D01*
X302165Y288733D01*
X302786Y288856D01*
X302987Y288990D01*
X303443Y288685D01*
D02*
G37*
%LPC*%
G36*
X316994Y311535D02*
Y308571D01*
X319959D01*
X319904Y308984D01*
X319551Y309836D01*
X318990Y310567D01*
X318259Y311128D01*
X317408Y311481D01*
X316994Y311535D01*
D02*
G37*
G36*
X315994D02*
X315581Y311481D01*
X314729Y311128D01*
X313998Y310567D01*
X313437Y309836D01*
X313084Y308984D01*
X313030Y308571D01*
X315994D01*
Y311535D01*
D02*
G37*
G36*
X319959Y307571D02*
X316994D01*
Y304607D01*
X317408Y304661D01*
X318259Y305014D01*
X318990Y305575D01*
X319551Y306306D01*
X319904Y307157D01*
X319959Y307571D01*
D02*
G37*
G36*
X315994D02*
X313030D01*
X313084Y307157D01*
X313437Y306306D01*
X313998Y305575D01*
X314729Y305014D01*
X315581Y304661D01*
X315994Y304607D01*
Y307571D01*
D02*
G37*
G36*
X337114Y289882D02*
Y286917D01*
X340078D01*
X340024Y287331D01*
X339671Y288182D01*
X339110Y288913D01*
X338379Y289475D01*
X337528Y289827D01*
X337114Y289882D01*
D02*
G37*
G36*
X445382Y340078D02*
Y337114D01*
X448346D01*
X448292Y337528D01*
X447939Y338379D01*
X447378Y339110D01*
X446647Y339671D01*
X445796Y340024D01*
X445382Y340078D01*
D02*
G37*
G36*
X444382D02*
X443968Y340024D01*
X443117Y339671D01*
X442386Y339110D01*
X441825Y338379D01*
X441472Y337528D01*
X441418Y337114D01*
X444382D01*
Y340078D01*
D02*
G37*
G36*
X448346Y336114D02*
X445382D01*
Y333150D01*
X445796Y333204D01*
X446647Y333557D01*
X447378Y334118D01*
X447939Y334849D01*
X448292Y335700D01*
X448346Y336114D01*
D02*
G37*
G36*
X444382D02*
X441418D01*
X441472Y335700D01*
X441825Y334849D01*
X442386Y334118D01*
X443117Y333557D01*
X443968Y333204D01*
X444382Y333150D01*
Y336114D01*
D02*
G37*
G36*
X464067Y335799D02*
X459817D01*
Y331549D01*
X464067D01*
Y335799D01*
D02*
G37*
G36*
X439173Y325000D02*
X426968D01*
Y312795D01*
X439173D01*
Y325000D01*
D02*
G37*
G36*
X455905Y326575D02*
X449606D01*
Y322109D01*
X439251Y311754D01*
X416660D01*
X416601Y311896D01*
X416011Y312665D01*
X415242Y313255D01*
X414347Y313626D01*
X413386Y313752D01*
X412425Y313626D01*
X411529Y313255D01*
X410760Y312665D01*
X410170Y311896D01*
X409799Y311000D01*
X409673Y310039D01*
X409799Y309079D01*
X410170Y308183D01*
X410760Y307414D01*
X411529Y306824D01*
X412425Y306453D01*
X413386Y306327D01*
X414347Y306453D01*
X415242Y306824D01*
X416011Y307414D01*
X416601Y308183D01*
X416660Y308325D01*
X439961D01*
X440617Y308456D01*
X441173Y308827D01*
X451440Y319094D01*
X455905D01*
Y326575D01*
D02*
G37*
G36*
X456118Y314583D02*
X453256D01*
Y311524D01*
X456118D01*
Y314583D01*
D02*
G37*
G36*
X452256D02*
X449394D01*
Y311524D01*
X452256D01*
Y314583D01*
D02*
G37*
G36*
X456118Y310524D02*
X452756D01*
X449394D01*
Y308116D01*
X449346Y308000D01*
X449292Y307587D01*
X456220D01*
X456166Y308000D01*
X456118Y308116D01*
Y310524D01*
D02*
G37*
G36*
X463779Y326575D02*
X457480D01*
Y319094D01*
X458916D01*
Y314764D01*
X457874D01*
Y307283D01*
X464961D01*
Y314764D01*
X462344D01*
Y319094D01*
X463779D01*
Y326575D01*
D02*
G37*
G36*
X456220Y306587D02*
X453256D01*
Y303622D01*
X453670Y303677D01*
X454521Y304029D01*
X455252Y304590D01*
X455813Y305322D01*
X456166Y306173D01*
X456220Y306587D01*
D02*
G37*
G36*
X452256D02*
X449292D01*
X449346Y306173D01*
X449699Y305322D01*
X450260Y304590D01*
X450991Y304029D01*
X451842Y303677D01*
X452256Y303622D01*
Y306587D01*
D02*
G37*
G36*
X456118Y302772D02*
X453256D01*
Y299713D01*
X456118D01*
Y302772D01*
D02*
G37*
G36*
X452256D02*
X449394D01*
Y299713D01*
X452256D01*
Y302772D01*
D02*
G37*
G36*
X456118Y298713D02*
X453256D01*
Y295654D01*
X456118D01*
Y298713D01*
D02*
G37*
G36*
X452256D02*
X449394D01*
Y295654D01*
X452256D01*
Y298713D01*
D02*
G37*
G36*
X433071Y306526D02*
X431875Y306408D01*
X430724Y306059D01*
X429664Y305492D01*
X428735Y304730D01*
X427972Y303800D01*
X427406Y302740D01*
X427057Y301590D01*
X426939Y300394D01*
X427057Y299197D01*
X427406Y298047D01*
X427972Y296987D01*
X428735Y296058D01*
X429664Y295295D01*
X430724Y294729D01*
X431875Y294380D01*
X433071Y294262D01*
X434267Y294380D01*
X435417Y294729D01*
X436478Y295295D01*
X437407Y296058D01*
X438169Y296987D01*
X438736Y298047D01*
X439085Y299197D01*
X439203Y300394D01*
X439085Y301590D01*
X438736Y302740D01*
X438169Y303800D01*
X437407Y304730D01*
X436478Y305492D01*
X435417Y306059D01*
X434267Y306408D01*
X433071Y306526D01*
D02*
G37*
G36*
Y288022D02*
X431875Y287904D01*
X430724Y287555D01*
X429664Y286988D01*
X428735Y286226D01*
X427972Y285297D01*
X427639Y284673D01*
X412331D01*
X412015Y284804D01*
X411024Y284934D01*
X410032Y284804D01*
X409108Y284421D01*
X408314Y283812D01*
X407705Y283018D01*
X407322Y282094D01*
X407192Y281102D01*
X407322Y280111D01*
X407705Y279186D01*
X408314Y278393D01*
X409108Y277784D01*
X410032Y277401D01*
X411024Y277270D01*
X412015Y277401D01*
X412940Y277784D01*
X413637Y278319D01*
X428107D01*
X428735Y277554D01*
X429664Y276791D01*
X430724Y276225D01*
X431875Y275876D01*
X433071Y275758D01*
X434267Y275876D01*
X435417Y276225D01*
X436478Y276791D01*
X437407Y277554D01*
X438169Y278483D01*
X438736Y279543D01*
X439085Y280694D01*
X439203Y281890D01*
X439085Y283086D01*
X438736Y284236D01*
X438169Y285297D01*
X437407Y286226D01*
X436478Y286988D01*
X435417Y287555D01*
X434267Y287904D01*
X433071Y288022D01*
D02*
G37*
G36*
X452256Y279150D02*
X449787D01*
Y276091D01*
X452256D01*
Y279150D01*
D02*
G37*
G36*
Y275091D02*
X449787D01*
Y272031D01*
X452256D01*
Y275091D01*
D02*
G37*
G36*
X441445Y265977D02*
Y261563D01*
X445859D01*
X445755Y262352D01*
X445257Y263553D01*
X444466Y264584D01*
X443435Y265375D01*
X442234Y265873D01*
X441445Y265977D01*
D02*
G37*
G36*
X440445D02*
X439656Y265873D01*
X438455Y265375D01*
X437424Y264584D01*
X436632Y263553D01*
X436135Y262352D01*
X436031Y261563D01*
X440445D01*
Y265977D01*
D02*
G37*
%LPD*%
D14*
X306102Y387795D02*
X336614D01*
X360819Y316929D02*
Y333996D01*
X357866Y313976D02*
X360819Y316929D01*
X314793Y314000D02*
X327780D01*
X331693Y317913D01*
X305118Y323675D02*
X314793Y314000D01*
X299762Y312008D02*
X306102D01*
X305118Y323675D02*
Y324000D01*
X321000Y317000D02*
X326842D01*
X315510Y320000D02*
X316093Y319417D01*
X318583D02*
X321000Y317000D01*
X316093Y319417D02*
X318583D01*
X326842Y317000D02*
X329724Y319882D01*
X292520Y308071D02*
X316494D01*
X316494Y308071D01*
X305118Y280512D02*
Y284358D01*
X330890Y301000D02*
X347146Y284744D01*
X309793Y301000D02*
X330890D01*
X309262Y333358D02*
X309262D01*
X310482Y332138D01*
Y329519D02*
Y332138D01*
Y329519D02*
X311000Y329000D01*
X308161Y334458D02*
X309262Y333358D01*
X308071Y335187D02*
X308161Y335097D01*
X311000Y329000D02*
X330102D01*
X308161Y334458D02*
Y335097D01*
X306859Y329000D02*
X311000D01*
X308071Y335187D02*
Y337402D01*
X331256Y327847D02*
X335097D01*
X330102Y329000D02*
X331256Y327847D01*
X335097D02*
X335187Y327756D01*
X346457D01*
X324000Y321850D02*
X337402D01*
X302256Y333604D02*
X306859Y329000D01*
X302256Y333604D02*
Y337311D01*
X336142Y233937D02*
Y243110D01*
Y233937D02*
X341339Y228740D01*
Y219087D02*
Y228740D01*
X336142Y214409D02*
X336662D01*
X341339Y219087D01*
X346142Y214409D02*
X351378Y219646D01*
X344882Y234646D02*
X345472D01*
X351378Y228740D01*
Y219646D02*
Y228740D01*
X320772Y271654D02*
X336142D01*
X314067Y278358D02*
X320772Y271654D01*
X314067Y278358D02*
Y292429D01*
X315945Y283465D02*
X321850Y277559D01*
X342823Y233177D02*
Y233177D01*
X355504Y234646D02*
X360819Y229331D01*
Y219087D02*
Y229331D01*
X356142Y214409D02*
X360819Y219087D01*
X354913Y234646D02*
X355504D01*
X344291D02*
X344882D01*
X342823Y233177D02*
X344291Y234646D01*
X344882Y242520D02*
Y245563D01*
X350303Y250984D01*
X354913Y242520D02*
Y254248D01*
X350303Y258858D02*
X354913Y254248D01*
X300984Y207874D02*
X373228D01*
X295276Y213583D02*
X300984Y207874D01*
X373228D02*
X389764Y224410D01*
X439961Y310039D02*
X452756Y322835D01*
X413386Y310039D02*
X439961D01*
X437599Y253937D02*
X450787D01*
X429134Y262402D02*
X437599Y253937D01*
X450787D02*
X456693Y259842D01*
X429134Y262402D02*
Y268701D01*
X406701Y271654D02*
X426181D01*
X429134Y268701D01*
X452756Y286811D02*
Y287402D01*
Y286811D02*
X456693Y282874D01*
Y259842D02*
Y282874D01*
X402067Y276287D02*
Y296337D01*
X406496Y300766D01*
X402067Y276287D02*
X406701Y271654D01*
X406496Y316732D02*
X411024Y321260D01*
X406496Y300766D02*
Y316732D01*
X393012Y318307D02*
X395965Y321260D01*
X432677Y281496D02*
X433071Y281890D01*
X411024Y281102D02*
X411417Y281496D01*
X382874Y336614D02*
X393012Y326476D01*
X374665Y336614D02*
X382874D01*
X393012Y318307D02*
Y326476D01*
X381890Y287402D02*
Y292323D01*
X379232Y284744D02*
X381890Y287402D01*
X369094Y305118D02*
X381890Y292323D01*
X347146Y284744D02*
X379232D01*
X369094Y305118D02*
Y316929D01*
X376969D02*
Y328740D01*
X369094D02*
Y331043D01*
X374665Y336614D01*
X337402Y313976D02*
X357866D01*
X360394Y342520D02*
X392717D01*
X354331Y336457D02*
X360394Y342520D01*
X354913Y315945D02*
X358268Y319299D01*
X354331Y329323D02*
X358268Y325386D01*
Y319299D02*
Y325386D01*
X354331Y329323D02*
Y336457D01*
X337402Y310039D02*
X354429D01*
X375098Y289370D01*
X360819Y311917D02*
X362205Y310531D01*
X337492Y311917D02*
X360819D01*
X337402Y315945D02*
X354913D01*
X344191Y321850D02*
X352362D01*
X353437Y307980D02*
X362620Y298797D01*
Y292892D02*
Y298797D01*
Y292892D02*
X366142Y289370D01*
X337492Y307980D02*
X353437D01*
X358268Y289370D02*
Y298138D01*
X350303Y306102D02*
X358268Y298138D01*
X337402Y306102D02*
X350303D01*
X351378Y294200D02*
Y301181D01*
X337402Y304134D02*
X348425D01*
X351378Y301181D01*
X344646Y280512D02*
X391732D01*
X329724Y286417D02*
X339854Y276287D01*
X385827D01*
X386811Y393701D02*
X425197D01*
X434811Y403650D02*
X436673Y405512D01*
X425197Y393701D02*
X434811Y403315D01*
Y403650D01*
X382039Y397638D02*
X405512D01*
X413386Y405512D01*
X378102Y393701D02*
X382039Y397638D01*
X297244Y393701D02*
X360551D01*
X372362Y405512D01*
X304134Y223425D02*
X319882D01*
X300197D02*
X304134D01*
X294291Y223425D02*
X300197D01*
X273622Y244094D02*
Y244094D01*
Y244094D02*
X294291Y223425D01*
X273622Y292322D02*
Y292323D01*
X267717Y259842D02*
X303150D01*
X268701Y297244D02*
X273622Y302165D01*
X266297Y300197D02*
X270234Y304134D01*
X251969Y300197D02*
X266297D01*
X267865Y305267D02*
X269685Y307087D01*
X249165Y305267D02*
X267865D01*
X303150Y259842D02*
X304134Y258858D01*
X304134Y258858D01*
X319882D01*
X273622Y292323D02*
X281495Y300197D01*
X292520D01*
X292322Y294200D02*
X302165Y304043D01*
X289370Y289370D02*
X292322Y292322D01*
Y294200D01*
X270418Y283465D02*
X295276D01*
X302165Y287311D02*
Y292520D01*
Y287311D02*
X305118Y284358D01*
X309949Y276287D02*
Y292429D01*
X307087Y273425D02*
X309949Y276287D01*
X312099Y272549D02*
Y292429D01*
Y272549D02*
X314067Y270580D01*
Y269148D02*
Y270580D01*
X300197Y280512D02*
Y292520D01*
X295276Y275590D02*
X300197Y280512D01*
X261363Y274410D02*
X270418Y283465D01*
X315945Y283465D02*
Y292520D01*
Y425106D02*
Y425197D01*
X374016Y393701D02*
X378102D01*
X373622Y382185D02*
X374016D01*
X375098Y383268D01*
X291339Y387795D02*
X297244Y393701D01*
X285433Y387795D02*
X291339D01*
X205591Y312520D02*
X225905D01*
X284252Y370866D02*
X322941D01*
X225905Y312520D02*
X284252Y370866D01*
X316992Y364110D02*
X318898Y362205D01*
X285433Y354233D02*
X295311Y364110D01*
X316992D01*
X293142Y366299D02*
X319634D01*
X291575Y368504D02*
X321366D01*
X323728Y366142D01*
X315945Y352362D02*
X321563Y357980D01*
X317913Y350394D02*
X323728Y356209D01*
Y366142D01*
X322941Y370866D02*
X326772Y367036D01*
X319882Y348425D02*
X326772Y355314D01*
Y367036D01*
X319634Y366299D02*
X321563Y364370D01*
Y357980D02*
Y364370D01*
X282480Y355638D02*
X293142Y366299D01*
X276984Y373228D02*
X324909D01*
X267865Y364110D02*
X276984Y373228D01*
X275590Y352520D02*
X291575Y368504D01*
X285433Y346457D02*
Y354233D01*
X219867Y332520D02*
X267662Y380315D01*
X309449D02*
X312099Y382965D01*
X267662Y380315D02*
X309449D01*
X273937Y377953D02*
X318898D01*
X218504Y322520D02*
X273937Y377953D01*
X324909Y373228D02*
X330709Y367429D01*
X205591Y332520D02*
X219867D01*
X205591Y322520D02*
X218504D01*
X312007Y337402D02*
X312008Y337402D01*
X312007Y337402D02*
Y359252D01*
X312007Y359252D02*
X312007Y359252D01*
X310039Y337402D02*
Y349311D01*
X308071Y351280D02*
X310039Y349311D01*
X308071Y351280D02*
Y352362D01*
X287598Y337402D02*
X300197D01*
X300000Y337598D02*
X300197Y337402D01*
X287402Y337598D02*
X287598Y337402D01*
X282480Y348425D02*
Y355638D01*
X304218Y338233D02*
X304224D01*
Y344488D01*
X304134Y337402D02*
Y338149D01*
X304218Y338233D01*
X313976Y337402D02*
Y354331D01*
X318898Y359252D01*
Y362205D01*
X283465Y344488D02*
X285433Y346457D01*
X276575Y342520D02*
X282480Y348425D01*
X275590Y332520D02*
X283465Y340394D01*
Y344488D01*
X315945Y337402D02*
Y352362D01*
X317913Y337402D02*
Y350394D01*
X275590Y342520D02*
X276575D01*
X330709Y354233D02*
Y367429D01*
X321850Y345374D02*
X330709Y354233D01*
X319882Y337402D02*
Y348425D01*
X321850Y337402D02*
Y345374D01*
X277559Y327756D02*
X283465Y321850D01*
X273713Y327756D02*
X277559D01*
X269685Y323728D02*
X273713Y327756D01*
X323819Y342610D02*
X336614Y355405D01*
X323819Y337402D02*
Y342610D01*
X337402Y321850D02*
X337402Y321850D01*
X269685Y316929D02*
Y323728D01*
X283465Y321850D02*
X292520D01*
X285433Y319882D02*
X292520D01*
X282480Y316929D02*
X285433Y319882D01*
X292520Y317913D02*
X300197D01*
X300106Y306102D02*
X302165Y304043D01*
X292520Y306102D02*
X300106D01*
X232283Y288386D02*
X249165Y305267D01*
X232283Y270669D02*
Y288386D01*
X270234Y304134D02*
X292520D01*
X269685Y307087D02*
X285433D01*
X288386Y310039D01*
X212008Y254724D02*
X220472D01*
X209252Y251969D02*
X212008Y254724D01*
X208661Y251969D02*
X209252D01*
X220472Y254724D02*
X228346D01*
X248031Y274410D01*
X213386Y270669D02*
X224410D01*
X248031Y274410D02*
X261363D01*
X273622Y302165D02*
X292520D01*
X300197Y223425D02*
X300197Y223425D01*
X401575Y235236D02*
X426181D01*
X437008Y224410D01*
X329724Y337402D02*
X334646D01*
X325787D02*
X325878Y337492D01*
X292520Y317913D02*
X292520Y317913D01*
X329724Y319882D02*
X337402D01*
X331693Y317913D02*
X337402D01*
Y312008D02*
X337492Y311917D01*
X337402Y308071D02*
X337492Y307980D01*
X302165Y304043D02*
X304043Y302165D01*
X329724Y286417D02*
Y292520D01*
X340551Y335630D02*
X346457D01*
X337402Y332480D02*
X340551Y335630D01*
X337402Y329724D02*
Y332480D01*
X337311Y329634D02*
X337402Y329724D01*
X304043Y292610D02*
Y302165D01*
X336614Y286417D02*
Y292323D01*
X331693Y297244D02*
X336614Y292323D01*
X328740Y297244D02*
X331693D01*
X327847Y296350D02*
X328740Y297244D01*
X327847Y292610D02*
Y296350D01*
X327756Y292520D02*
X327847Y292610D01*
X346457Y327756D02*
X346457Y327756D01*
X302165Y337402D02*
X302256Y337311D01*
X292429Y314067D02*
X292520Y313976D01*
X309949Y292429D02*
X310039Y292520D01*
X313976D02*
X314067Y292429D01*
X306012Y337492D02*
X306102Y337402D01*
X460630Y287402D02*
Y298425D01*
X461417Y299213D01*
X460630Y311811D02*
Y322835D01*
Y311811D02*
X461417Y311024D01*
X337402Y325787D02*
X337492Y325697D01*
X340345D01*
X344191Y321850D01*
X292520Y315945D02*
X295825D01*
X299762Y312008D01*
X312008Y292520D02*
X312099Y292429D01*
X292520Y321850D02*
X292520Y321850D01*
X337402Y300197D02*
X344488D01*
X344488Y300197D01*
X344488D01*
X323728Y292429D02*
X323819Y292339D01*
X323728Y292429D02*
X323819Y292520D01*
X325697Y292429D02*
X325787Y292520D01*
X288386Y310039D02*
X292520D01*
D19*
X472441Y202441D02*
Y427559D01*
X466850Y196850D02*
X472441Y202441D01*
X202150Y196850D02*
X466850D01*
X196850Y202150D02*
X202150Y196850D01*
X196850Y202150D02*
Y427850D01*
X202071Y433071D01*
X466929D01*
X472441Y427559D01*
D20*
X204724Y270669D02*
D03*
X213386D02*
D03*
X461417Y311024D02*
D03*
X452756D02*
D03*
X461417Y299213D02*
D03*
X452756D02*
D03*
D21*
X319882Y231299D02*
D03*
Y223425D02*
D03*
Y250984D02*
D03*
Y258858D02*
D03*
X346457Y327756D02*
D03*
Y335630D02*
D03*
X208661Y244094D02*
D03*
Y251969D02*
D03*
X385827Y263779D02*
D03*
Y255906D02*
D03*
X374016Y263779D02*
D03*
Y255906D02*
D03*
X354913Y242520D02*
D03*
Y234646D02*
D03*
X344882Y242520D02*
D03*
Y234646D02*
D03*
D22*
X304134Y223425D02*
D03*
Y258858D02*
D03*
D23*
X385827Y359252D02*
D03*
X377953D02*
D03*
X369094Y328740D02*
D03*
X376969D02*
D03*
Y316929D02*
D03*
X369094D02*
D03*
Y305118D02*
D03*
X376969D02*
D03*
X452756Y322835D02*
D03*
X460630D02*
D03*
X232283Y270669D02*
D03*
X224410D02*
D03*
X460630Y287402D02*
D03*
X452756D02*
D03*
X452756Y275590D02*
D03*
X460630D02*
D03*
D24*
X220472Y254724D02*
D03*
Y241339D02*
D03*
D25*
X421161Y255906D02*
D03*
D26*
X397736Y246850D02*
D03*
Y255906D02*
D03*
Y264961D02*
D03*
D27*
X393012Y291929D02*
D03*
Y318307D02*
D03*
D28*
X374016Y370965D02*
D03*
Y382185D02*
D03*
D29*
X387795Y383268D02*
D03*
Y369882D02*
D03*
D30*
X300197Y337402D02*
D03*
X302165D02*
D03*
X304134D02*
D03*
X306102D02*
D03*
X308071D02*
D03*
X310039D02*
D03*
X312008D02*
D03*
X313976D02*
D03*
X315945D02*
D03*
X317913D02*
D03*
X319882D02*
D03*
X321850D02*
D03*
X323819D02*
D03*
X325787D02*
D03*
X327756D02*
D03*
X329724D02*
D03*
Y292520D02*
D03*
X327756D02*
D03*
X325787D02*
D03*
X323819D02*
D03*
X321850D02*
D03*
X319882D02*
D03*
X317913D02*
D03*
X315945D02*
D03*
X313976D02*
D03*
X312008D02*
D03*
X310039D02*
D03*
X308071D02*
D03*
X306102D02*
D03*
X304134D02*
D03*
X302165D02*
D03*
X300197D02*
D03*
D31*
X337402Y329724D02*
D03*
Y327756D02*
D03*
Y325787D02*
D03*
Y323819D02*
D03*
Y321850D02*
D03*
Y319882D02*
D03*
Y317913D02*
D03*
Y315945D02*
D03*
Y313976D02*
D03*
Y312008D02*
D03*
Y310039D02*
D03*
Y308071D02*
D03*
Y306102D02*
D03*
Y304134D02*
D03*
Y302165D02*
D03*
Y300197D02*
D03*
X292520D02*
D03*
Y302165D02*
D03*
Y304134D02*
D03*
Y306102D02*
D03*
Y308071D02*
D03*
Y310039D02*
D03*
Y312008D02*
D03*
Y313976D02*
D03*
Y315945D02*
D03*
Y317913D02*
D03*
Y319882D02*
D03*
Y321850D02*
D03*
Y323819D02*
D03*
Y325787D02*
D03*
Y327756D02*
D03*
Y329724D02*
D03*
D32*
X325000Y413386D02*
D03*
D33*
X317126D02*
D03*
X301378D02*
D03*
X309252D02*
D03*
X389764Y216535D02*
D03*
Y208661D02*
D03*
X437008Y216535D02*
D03*
Y208661D02*
D03*
X413386Y216535D02*
D03*
Y208661D02*
D03*
X236221Y216535D02*
D03*
Y208661D02*
D03*
X259842Y216535D02*
D03*
Y208661D02*
D03*
X282331Y216535D02*
D03*
Y208661D02*
D03*
X436673Y413386D02*
D03*
Y421260D02*
D03*
X413386Y413386D02*
D03*
Y421260D02*
D03*
X387795Y413386D02*
D03*
Y421260D02*
D03*
X232283Y413386D02*
D03*
Y421260D02*
D03*
X255906Y413386D02*
D03*
Y421260D02*
D03*
X279528Y413386D02*
D03*
Y421260D02*
D03*
D34*
X336142Y224410D02*
D03*
Y214409D02*
D03*
X346142Y224410D02*
D03*
Y214409D02*
D03*
X356142Y224410D02*
D03*
Y214409D02*
D03*
X366142Y224410D02*
D03*
X359252Y360965D02*
D03*
Y370965D02*
D03*
X362362Y405512D02*
D03*
X352362D02*
D03*
X342362D02*
D03*
D35*
X366142Y214409D02*
D03*
X372362Y405512D02*
D03*
D36*
X464567Y376299D02*
D03*
Y366299D02*
D03*
Y346299D02*
D03*
Y356299D02*
D03*
Y386299D02*
D03*
X402067Y336299D02*
D03*
Y346299D02*
D03*
Y356299D02*
D03*
Y366299D02*
D03*
Y376299D02*
D03*
Y386299D02*
D03*
X414567D02*
D03*
D37*
X464567Y336299D02*
D03*
D38*
X389764Y224410D02*
D03*
X437008D02*
D03*
X413386D02*
D03*
X236221D02*
D03*
X259842D02*
D03*
X282331D02*
D03*
X436673Y405512D02*
D03*
X413386D02*
D03*
X387795D02*
D03*
X232283D02*
D03*
X255906D02*
D03*
X279528D02*
D03*
D39*
X359252Y380965D02*
D03*
D40*
X205591Y312520D02*
D03*
Y322520D02*
D03*
Y332520D02*
D03*
Y342520D02*
D03*
Y352520D02*
D03*
Y362520D02*
D03*
X275590Y352520D02*
D03*
Y342520D02*
D03*
Y332520D02*
D03*
Y322520D02*
D03*
X411024Y321260D02*
D03*
Y281102D02*
D03*
D41*
X440945Y261063D02*
D03*
D42*
Y246063D02*
D03*
D43*
X433071Y318898D02*
D03*
D44*
Y300394D02*
D03*
Y281890D02*
D03*
D45*
X208661Y208661D02*
D03*
X460630D02*
D03*
Y421260D02*
D03*
X208661D02*
D03*
D46*
X336614Y387795D02*
D03*
X306102Y312008D02*
D03*
X315510Y320000D02*
D03*
X316494Y308071D02*
D03*
X305118Y280512D02*
D03*
X309793Y301000D02*
D03*
X305118Y324000D02*
D03*
X311000Y329000D02*
D03*
X324000Y321850D02*
D03*
X409449Y255906D02*
D03*
X466535Y266732D02*
D03*
X374016Y248031D02*
D03*
X336142Y243110D02*
D03*
X321850Y277559D02*
D03*
X336142Y271654D02*
D03*
X350303Y258858D02*
D03*
Y250984D02*
D03*
X374016Y235728D02*
D03*
X413386Y310039D02*
D03*
X421260Y216535D02*
D03*
X452756Y307087D02*
D03*
X360819Y333996D02*
D03*
X375098Y289370D02*
D03*
X362205Y310531D02*
D03*
X366803Y356299D02*
D03*
X352362Y321850D02*
D03*
X366142Y289370D02*
D03*
X351378Y294200D02*
D03*
X358268Y289370D02*
D03*
X391732Y280512D02*
D03*
X344646D02*
D03*
X385827Y276287D02*
D03*
X295276Y213583D02*
D03*
X273622Y244094D02*
D03*
Y292322D02*
D03*
X267717Y259842D02*
D03*
X268701Y297244D02*
D03*
X289370Y244094D02*
D03*
Y289370D02*
D03*
X295276Y283465D02*
D03*
X307087Y273425D02*
D03*
X295276Y275590D02*
D03*
X314067Y269148D02*
D03*
X386811Y393701D02*
D03*
X374016D02*
D03*
X385827Y350394D02*
D03*
X392717Y342520D02*
D03*
X306102Y387795D02*
D03*
X285433D02*
D03*
X312099Y382965D02*
D03*
X318898Y377953D02*
D03*
X287402Y337598D02*
D03*
X282480Y316929D02*
D03*
X304224Y344488D02*
D03*
X312007Y359252D02*
D03*
X308071Y352362D02*
D03*
X336614Y355405D02*
D03*
X267865Y364110D02*
D03*
X269685Y316929D02*
D03*
X300197Y317913D02*
D03*
X251969Y300197D02*
D03*
X329724Y250492D02*
D03*
X381890Y235728D02*
D03*
X401575Y235236D02*
D03*
X334646Y337402D02*
D03*
X402559Y413386D02*
D03*
X444882Y375984D02*
D03*
Y336614D02*
D03*
X336614Y286417D02*
D03*
X344488Y300197D02*
D03*
D47*
X301378Y413386D02*
Y417378D01*
X309197Y425197D01*
X295276D02*
X309197D01*
X315945D01*
X409449Y255906D02*
X421161D01*
X397736D02*
X409449D01*
X466535Y266732D02*
Y269685D01*
X460630Y275590D02*
X466535Y269685D01*
X374016Y248031D02*
Y255906D01*
X296110Y202756D02*
X375984D01*
X389764Y216535D01*
X282331D02*
X296110Y202756D01*
X452756Y266732D02*
Y275590D01*
X447087Y261063D02*
X452756Y266732D01*
X440945Y261063D02*
X447087D01*
X402067Y376299D02*
X454567D01*
X413386Y216535D02*
X421260D01*
X437008D01*
X395965Y321260D02*
X411024D01*
X414370Y324606D01*
X411417Y281496D02*
X432677D01*
X402559Y413386D02*
X413386D01*
X387795D02*
X402559D01*
X315945Y425197D02*
X375984D01*
X387795Y413386D01*
X232283Y413386D02*
X255906D01*
X279528D01*
X283465D01*
X259842Y216535D02*
X282331D01*
X236221D02*
X259842D01*
X359252Y380965D02*
X360236Y381949D01*
X362543Y382185D02*
X373622D01*
X360236Y381949D02*
X362306D01*
X362543Y382185D01*
X375098Y383268D02*
X387795D01*
X393701D01*
X396732Y386299D02*
X402067D01*
X393701Y383268D02*
X396732Y386299D01*
X402067D02*
X414567D01*
X385827Y359843D02*
X393307D01*
X399082Y365617D01*
X401385D01*
X402067Y366299D01*
X385827Y359252D02*
Y359843D01*
X283465Y413386D02*
X295276Y425197D01*
X381890Y235728D02*
X393012Y246850D01*
X389764Y216535D02*
X413386D01*
X414370Y324606D02*
Y333996D01*
X402067Y346299D02*
X414370Y333996D01*
X436673Y356299D01*
X464567D01*
X388779Y255906D02*
X397736D01*
X393012Y246850D02*
X397736D01*
X413386Y413386D02*
X436673D01*
X454567Y376299D02*
X464567Y386299D01*
X387008Y264961D02*
X397736D01*
X385827Y263779D02*
X387008Y264961D01*
X374016Y263779D02*
X385827D01*
D48*
X374016Y235728D02*
X374508D01*
X385827Y247047D01*
X316457Y244094D02*
X336142Y224410D01*
X289370Y244094D02*
X316457D01*
X440945Y261063D02*
Y291339D01*
X452756Y299213D02*
Y311024D01*
X319390Y250984D02*
X319882Y250492D01*
X329724D01*
X448819Y299213D02*
X452756D01*
X452756Y306102D02*
Y307087D01*
X366803Y355976D02*
Y356299D01*
X346457Y335630D02*
X347047D01*
X348016Y336598D01*
Y337188D01*
X366803Y355976D01*
X372709Y350394D02*
X385827D01*
X366803Y356299D02*
X372709Y350394D01*
X319291Y250984D02*
X319390D01*
X318323Y250016D02*
X319291Y250984D01*
X343012Y263779D02*
X374016D01*
X329724Y250492D02*
X343012Y263779D01*
X385827Y247047D02*
Y255906D01*
X440945Y291339D02*
X448819Y299213D01*
X444882Y336614D02*
X445197Y336299D01*
X464567D01*
M02*
