G04*
G04 #@! TF.GenerationSoftware,Altium Limited,Altium Designer,20.0.13 (296)*
G04*
G04 Layer_Physical_Order=2*
G04 Layer_Color=16711680*
%FSLAX25Y25*%
%MOIN*%
G70*
G01*
G75*
%ADD14C,0.01000*%
%ADD19C,0.01968*%
%ADD32R,0.04724X0.04724*%
%ADD33C,0.04724*%
%ADD34C,0.05906*%
%ADD35R,0.05906X0.05906*%
%ADD36C,0.07500*%
%ADD37R,0.07500X0.07500*%
%ADD38R,0.04724X0.04724*%
%ADD39R,0.05906X0.05906*%
%ADD40C,0.05236*%
%ADD41C,0.07874*%
%ADD42R,0.07874X0.07874*%
%ADD43R,0.09843X0.09843*%
%ADD44C,0.09843*%
%ADD45C,0.11811*%
%ADD46C,0.05000*%
%ADD47C,0.03937*%
%ADD48C,0.02000*%
G36*
X469264Y426243D02*
Y388678D01*
X468764Y388579D01*
X468716Y388695D01*
X467955Y389687D01*
X466962Y390448D01*
X465807Y390927D01*
X465067Y391024D01*
Y386299D01*
X464567D01*
Y385799D01*
X459842D01*
X459939Y385059D01*
X460418Y383904D01*
X461179Y382911D01*
X462171Y382150D01*
X463327Y381672D01*
X463546Y381643D01*
Y381138D01*
X463280Y381103D01*
X462080Y380607D01*
X461050Y379816D01*
X460260Y378786D01*
X459763Y377587D01*
X459593Y376299D01*
X459763Y375012D01*
X460260Y373812D01*
X461050Y372782D01*
X462080Y371992D01*
X463110Y371565D01*
Y371033D01*
X462080Y370606D01*
X461050Y369816D01*
X460260Y368786D01*
X459763Y367586D01*
X459593Y366299D01*
X459763Y365012D01*
X460260Y363812D01*
X461050Y362782D01*
X462080Y361992D01*
X463110Y361565D01*
Y361033D01*
X462080Y360607D01*
X461050Y359816D01*
X460260Y358786D01*
X459763Y357587D01*
X459593Y356299D01*
X459763Y355012D01*
X460260Y353812D01*
X461050Y352782D01*
X462080Y351992D01*
X463110Y351565D01*
Y351033D01*
X462080Y350606D01*
X461050Y349816D01*
X460260Y348786D01*
X459763Y347586D01*
X459593Y346299D01*
X459763Y345012D01*
X460260Y343812D01*
X461050Y342782D01*
X462080Y341992D01*
X463149Y341549D01*
X463049Y341049D01*
X459817D01*
Y336799D01*
X464567D01*
Y336299D01*
X465067D01*
Y331549D01*
X469264D01*
Y323261D01*
X468896Y323137D01*
X468764Y323130D01*
X460807Y331087D01*
X460998Y331549D01*
X464067D01*
Y335799D01*
X459817D01*
Y332731D01*
X459355Y332539D01*
X455933Y335962D01*
Y385052D01*
X458939Y388059D01*
X459444Y388717D01*
X459761Y389483D01*
X459870Y390305D01*
Y405512D01*
X459761Y406334D01*
X459444Y407100D01*
X458939Y407758D01*
X456774Y409923D01*
X456774Y409924D01*
X443191Y423506D01*
X442533Y424011D01*
X441767Y424328D01*
X440945Y424437D01*
X438263D01*
X437598Y424712D01*
X436673Y424834D01*
X435748Y424712D01*
X435084Y424437D01*
X414976D01*
X414311Y424712D01*
X413386Y424834D01*
X412461Y424712D01*
X411796Y424437D01*
X389385D01*
X388917Y424630D01*
X386105Y427443D01*
X385447Y427948D01*
X384681Y428265D01*
X383858Y428374D01*
X287402D01*
X286579Y428265D01*
X285813Y427948D01*
X285155Y427443D01*
X282149Y424437D01*
X281117D01*
X280453Y424712D01*
X279528Y424834D01*
X278603Y424712D01*
X277938Y424437D01*
X257495D01*
X256831Y424712D01*
X255906Y424834D01*
X254980Y424712D01*
X254316Y424437D01*
X233873D01*
X233208Y424712D01*
X232283Y424834D01*
X231359Y424712D01*
X230497Y424355D01*
X229756Y423787D01*
X229188Y423047D01*
X228831Y422185D01*
X228710Y421260D01*
X228831Y420335D01*
X229188Y419473D01*
X229756Y418733D01*
X230497Y418165D01*
X231359Y417808D01*
X232283Y417686D01*
X233208Y417808D01*
X233873Y418083D01*
X254316D01*
X254980Y417808D01*
X255906Y417686D01*
X256831Y417808D01*
X257495Y418083D01*
X277938D01*
X278603Y417808D01*
X279528Y417686D01*
X280453Y417808D01*
X281117Y418083D01*
X283465D01*
X284287Y418191D01*
X285053Y418509D01*
X285711Y419014D01*
X288717Y422020D01*
X382542D01*
X384425Y420138D01*
X384700Y419473D01*
X385268Y418733D01*
X386008Y418165D01*
X386870Y417808D01*
X387795Y417686D01*
X388720Y417808D01*
X389385Y418083D01*
X411796D01*
X412461Y417808D01*
X413386Y417686D01*
X414311Y417808D01*
X414976Y418083D01*
X435084D01*
X435748Y417808D01*
X436673Y417686D01*
X437598Y417808D01*
X438263Y418083D01*
X439629D01*
X452281Y405431D01*
X452281Y405431D01*
X453516Y404196D01*
Y391621D01*
X450510Y388614D01*
X450005Y387957D01*
X449687Y387190D01*
X449579Y386368D01*
Y334646D01*
X449687Y333823D01*
X450005Y333057D01*
X450510Y332399D01*
X463359Y319550D01*
Y268639D01*
X463320Y268589D01*
X462949Y267693D01*
X462823Y266732D01*
X462949Y265771D01*
X463320Y264876D01*
X463359Y264826D01*
Y231631D01*
X443566Y211838D01*
X438597D01*
X437933Y212113D01*
X437008Y212235D01*
X436083Y212113D01*
X435418Y211838D01*
X414976D01*
X414311Y212113D01*
X413386Y212235D01*
X412461Y212113D01*
X411796Y211838D01*
X391353D01*
X390689Y212113D01*
X389764Y212235D01*
X388839Y212113D01*
X387977Y211756D01*
X387237Y211189D01*
X386669Y210448D01*
X386544Y210147D01*
X381148Y204752D01*
X301166D01*
X296384Y209534D01*
X296514Y210111D01*
X297132Y210367D01*
X297901Y210957D01*
X298491Y211726D01*
X298862Y212622D01*
X298989Y213583D01*
X298862Y214544D01*
X298491Y215439D01*
X297901Y216208D01*
X297132Y216798D01*
X296990Y216857D01*
Y272316D01*
X297132Y272375D01*
X297901Y272965D01*
X298491Y273734D01*
X298862Y274630D01*
X298989Y275590D01*
X298862Y276552D01*
X298491Y277447D01*
X297901Y278216D01*
X297132Y278806D01*
X296236Y279177D01*
X295488Y279275D01*
Y279780D01*
X296236Y279878D01*
X297132Y280249D01*
X297901Y280839D01*
X298491Y281608D01*
X298862Y282504D01*
X298989Y283465D01*
X298862Y284425D01*
X298491Y285321D01*
X297901Y286090D01*
X297132Y286680D01*
X296990Y286739D01*
Y293581D01*
X301409Y298001D01*
X301780Y298557D01*
X301911Y299213D01*
Y311813D01*
X302411Y311846D01*
X302432Y311689D01*
X302516Y311047D01*
X302887Y310151D01*
X303477Y309383D01*
X304246Y308792D01*
X304388Y308734D01*
Y306102D01*
X304519Y305446D01*
X304890Y304890D01*
X306728Y303052D01*
X306578Y302856D01*
X306207Y301961D01*
X306081Y301000D01*
X306207Y300039D01*
X306578Y299144D01*
X307168Y298375D01*
X307937Y297785D01*
X308832Y297414D01*
X309793Y297287D01*
X310754Y297414D01*
X311650Y297785D01*
X312419Y298375D01*
X313009Y299144D01*
X313380Y300039D01*
X313506Y301000D01*
X313380Y301961D01*
X313009Y302856D01*
X312419Y303625D01*
X311650Y304215D01*
X310754Y304586D01*
X309934Y304694D01*
X307817Y306812D01*
Y308734D01*
X307959Y308792D01*
X308728Y309383D01*
X309318Y310151D01*
X309689Y311047D01*
X309815Y312008D01*
X309689Y312969D01*
X309318Y313864D01*
X308728Y314633D01*
X307959Y315223D01*
X307063Y315594D01*
X306102Y315721D01*
X305141Y315594D01*
X304246Y315223D01*
X303477Y314633D01*
X302887Y313864D01*
X302516Y312969D01*
X302432Y312327D01*
X302411Y312170D01*
X301911Y312203D01*
Y314639D01*
X302053Y314698D01*
X302822Y315288D01*
X303412Y316057D01*
X303783Y316952D01*
X303910Y317913D01*
X303783Y318874D01*
X303412Y319770D01*
X302910Y320424D01*
X303262Y320785D01*
X304157Y320414D01*
X305118Y320287D01*
X306079Y320414D01*
X306975Y320785D01*
X307744Y321375D01*
X308333Y322144D01*
X308704Y323039D01*
X308831Y324000D01*
X308704Y324961D01*
X308333Y325856D01*
X307744Y326625D01*
X306975Y327215D01*
X306079Y327586D01*
X305118Y327713D01*
X304157Y327586D01*
X304015Y327527D01*
X299155Y332387D01*
Y347098D01*
X299617Y347289D01*
X300878Y346028D01*
X300638Y345449D01*
X300512Y344488D01*
X300638Y343527D01*
X301009Y342632D01*
X301599Y341863D01*
X302368Y341273D01*
X303263Y340902D01*
X304224Y340775D01*
X305185Y340902D01*
X306081Y341273D01*
X306850Y341863D01*
X307440Y342632D01*
X307811Y343527D01*
X307937Y344488D01*
X307811Y345449D01*
X307440Y346345D01*
X306850Y347114D01*
X306081Y347704D01*
X305185Y348075D01*
X304224Y348201D01*
X303631Y348123D01*
X301911Y349843D01*
Y381180D01*
X304999Y384268D01*
X305141Y384209D01*
X306102Y384082D01*
X307063Y384209D01*
X307959Y384580D01*
X308374Y384898D01*
X308785Y384583D01*
X308512Y383926D01*
X308386Y382965D01*
X308512Y382004D01*
X308571Y381861D01*
X303906Y377196D01*
X303535Y376640D01*
X303404Y375984D01*
Y355315D01*
X303535Y354659D01*
X303906Y354103D01*
X304543Y353466D01*
X304485Y353323D01*
X304358Y352362D01*
X304485Y351401D01*
X304855Y350506D01*
X305445Y349737D01*
X306214Y349147D01*
X307110Y348776D01*
X308071Y348649D01*
X309032Y348776D01*
X309927Y349147D01*
X310696Y349737D01*
X311286Y350506D01*
X311657Y351401D01*
X311784Y352362D01*
X311657Y353323D01*
X311286Y354219D01*
X310696Y354988D01*
X309927Y355578D01*
X309032Y355948D01*
X308071Y356075D01*
X307312Y355975D01*
X306898Y356274D01*
X306832Y356375D01*
Y375274D01*
X310995Y379437D01*
X311138Y379378D01*
X312099Y379252D01*
X313059Y379378D01*
X313955Y379749D01*
X314724Y380339D01*
X315314Y381108D01*
X315685Y382004D01*
X315811Y382965D01*
X315685Y383926D01*
X315314Y384821D01*
X314724Y385590D01*
X313955Y386180D01*
X313059Y386551D01*
X312099Y386678D01*
X311138Y386551D01*
X310242Y386180D01*
X309827Y385862D01*
X309416Y386177D01*
X309689Y386834D01*
X309815Y387795D01*
X309689Y388756D01*
X309318Y389652D01*
X308728Y390421D01*
X307959Y391011D01*
X307063Y391382D01*
X306102Y391508D01*
X305141Y391382D01*
X304246Y391011D01*
X303477Y390421D01*
X302887Y389652D01*
X302516Y388756D01*
X302390Y387795D01*
X302516Y386834D01*
X302575Y386692D01*
X299617Y383734D01*
X299155Y383925D01*
Y387598D01*
X299024Y388254D01*
X298653Y388810D01*
X289412Y398052D01*
X289576Y398594D01*
X289731Y398625D01*
X294637Y393719D01*
X295193Y393348D01*
X295849Y393217D01*
X309083D01*
X320476Y381825D01*
X320193Y381401D01*
X319859Y381539D01*
X318898Y381666D01*
X317937Y381539D01*
X317041Y381168D01*
X316272Y380578D01*
X315682Y379809D01*
X315311Y378914D01*
X315185Y377953D01*
X315311Y376992D01*
X315682Y376096D01*
X316272Y375327D01*
X317041Y374737D01*
X317184Y374678D01*
Y366852D01*
X313111Y362779D01*
X312968Y362838D01*
X312007Y362965D01*
X311046Y362838D01*
X310151Y362468D01*
X309382Y361877D01*
X308792Y361108D01*
X308421Y360213D01*
X308294Y359252D01*
X308421Y358291D01*
X308792Y357396D01*
X309382Y356627D01*
X310151Y356037D01*
X311046Y355666D01*
X312007Y355539D01*
X312968Y355666D01*
X313864Y356037D01*
X314633Y356627D01*
X315223Y357396D01*
X315594Y358291D01*
X315720Y359252D01*
X315594Y360213D01*
X315535Y360355D01*
X320110Y364930D01*
X320481Y365487D01*
X320612Y366142D01*
Y374678D01*
X320754Y374737D01*
X321523Y375327D01*
X322113Y376096D01*
X322484Y376992D01*
X322610Y377953D01*
X322484Y378914D01*
X322346Y379248D01*
X322770Y379531D01*
X325058Y377243D01*
Y343230D01*
X314298Y332470D01*
X313926Y331914D01*
X313902Y331789D01*
X313796Y331713D01*
X313355Y331605D01*
X312765Y332057D01*
X311914Y332410D01*
X311500Y332464D01*
Y329000D01*
Y325536D01*
X311914Y325590D01*
X312765Y325943D01*
X313296Y326350D01*
X313796Y326103D01*
Y323274D01*
X313653Y323215D01*
X312885Y322625D01*
X312295Y321856D01*
X311924Y320961D01*
X311797Y320000D01*
X311924Y319039D01*
X312295Y318144D01*
X312885Y317375D01*
X313653Y316785D01*
X314549Y316414D01*
X315510Y316287D01*
X316471Y316414D01*
X317366Y316785D01*
X318135Y317375D01*
X318725Y318144D01*
X319096Y319039D01*
X319223Y320000D01*
X319096Y320961D01*
X318725Y321856D01*
X318135Y322625D01*
X317366Y323215D01*
X317224Y323274D01*
Y330548D01*
X321824Y335148D01*
X322286Y334957D01*
Y325125D01*
X322144Y325066D01*
X321375Y324476D01*
X320785Y323707D01*
X320414Y322811D01*
X320287Y321850D01*
X320414Y320889D01*
X320785Y319994D01*
X321375Y319225D01*
X322144Y318635D01*
X323039Y318264D01*
X324000Y318138D01*
X324961Y318264D01*
X325856Y318635D01*
X326625Y319225D01*
X327215Y319994D01*
X327586Y320889D01*
X327713Y321850D01*
X327586Y322811D01*
X327215Y323707D01*
X326625Y324476D01*
X325856Y325066D01*
X325714Y325125D01*
Y335101D01*
X331921Y341308D01*
X332292Y341864D01*
X332423Y342520D01*
Y355210D01*
X332923Y355243D01*
X333028Y354445D01*
X333399Y353549D01*
X333989Y352780D01*
X334758Y352190D01*
X335653Y351819D01*
X336614Y351693D01*
X337575Y351819D01*
X338471Y352190D01*
X339240Y352780D01*
X339830Y353549D01*
X340148Y354318D01*
X340648Y354219D01*
Y345791D01*
X335776Y340918D01*
X335607Y340988D01*
X334646Y341114D01*
X333685Y340988D01*
X332789Y340617D01*
X332020Y340027D01*
X331430Y339258D01*
X331059Y338363D01*
X330933Y337402D01*
X331059Y336441D01*
X331430Y335545D01*
X332020Y334776D01*
X332789Y334186D01*
X333685Y333815D01*
X334646Y333689D01*
X335607Y333815D01*
X336502Y334186D01*
X337271Y334776D01*
X337861Y335545D01*
X338232Y336441D01*
X338358Y337402D01*
X338232Y338363D01*
X338184Y338478D01*
X343574Y343869D01*
X343946Y344425D01*
X344076Y345081D01*
Y401747D01*
X344447Y401901D01*
X345310Y402563D01*
X345973Y403427D01*
X346390Y404433D01*
X346532Y405512D01*
X346390Y406591D01*
X345973Y407597D01*
X345310Y408460D01*
X344447Y409123D01*
X343441Y409539D01*
X342362Y409681D01*
X341283Y409539D01*
X340277Y409123D01*
X339414Y408460D01*
X338751Y407597D01*
X338335Y406591D01*
X338193Y405512D01*
X338335Y404433D01*
X338751Y403427D01*
X339414Y402563D01*
X340277Y401901D01*
X340648Y401747D01*
Y388982D01*
X340148Y388883D01*
X339830Y389652D01*
X339240Y390421D01*
X338471Y391011D01*
X338328Y391070D01*
Y401772D01*
X338198Y402428D01*
X337826Y402984D01*
X328543Y412266D01*
Y416929D01*
X321457D01*
Y409842D01*
X326119D01*
X334900Y401062D01*
Y391070D01*
X334758Y391011D01*
X333989Y390421D01*
X333399Y389652D01*
X333028Y388756D01*
X332901Y387795D01*
X333028Y386834D01*
X333399Y385939D01*
X333989Y385170D01*
X334758Y384580D01*
X335653Y384209D01*
X336614Y384082D01*
X337575Y384209D01*
X338471Y384580D01*
X339240Y385170D01*
X339830Y385939D01*
X340148Y386708D01*
X340648Y386609D01*
Y356592D01*
X340148Y356493D01*
X339830Y357262D01*
X339240Y358031D01*
X338471Y358621D01*
X338328Y358680D01*
Y361326D01*
X338198Y361982D01*
X337826Y362538D01*
X335533Y364831D01*
Y380591D01*
X335402Y381246D01*
X335031Y381803D01*
X310966Y405867D01*
Y410261D01*
X311039Y410291D01*
X311779Y410859D01*
X312347Y411599D01*
X312704Y412461D01*
X312826Y413386D01*
X312704Y414311D01*
X312347Y415173D01*
X311779Y415913D01*
X311039Y416481D01*
X310177Y416838D01*
X309252Y416960D01*
X308327Y416838D01*
X307465Y416481D01*
X306725Y415913D01*
X306157Y415173D01*
X305800Y414311D01*
X305678Y413386D01*
X305800Y412461D01*
X306157Y411599D01*
X306725Y410859D01*
X307465Y410291D01*
X307538Y410261D01*
Y405158D01*
X307668Y404501D01*
X308040Y403945D01*
X311508Y400478D01*
X311301Y399978D01*
X299297D01*
X292551Y406724D01*
X291995Y407095D01*
X291339Y407226D01*
X283071D01*
Y409055D01*
X275984D01*
Y402305D01*
X265474D01*
X261054Y406724D01*
X260498Y407095D01*
X259842Y407226D01*
X259449D01*
Y409055D01*
X252362D01*
Y401968D01*
X259449D01*
Y402828D01*
X259911Y403020D01*
X263078Y399852D01*
X262871Y399352D01*
X240867D01*
X237433Y402787D01*
X237432Y402787D01*
X235827Y404392D01*
Y409055D01*
X228740D01*
Y401968D01*
X233403D01*
X235009Y400363D01*
X235009Y400363D01*
X238946Y396426D01*
X239502Y396054D01*
X240158Y395924D01*
X286692D01*
X295727Y386889D01*
Y331677D01*
X295857Y331021D01*
X296229Y330465D01*
X301591Y325103D01*
X301532Y324961D01*
X301405Y324000D01*
X301532Y323039D01*
X301903Y322144D01*
X302404Y321490D01*
X302053Y321129D01*
X301158Y321500D01*
X300197Y321626D01*
X299236Y321500D01*
X299094Y321441D01*
X295112Y325423D01*
Y360539D01*
X294981Y361195D01*
X294610Y361751D01*
X287147Y369214D01*
Y384521D01*
X287290Y384580D01*
X288058Y385170D01*
X288649Y385939D01*
X289019Y386834D01*
X289146Y387795D01*
X289019Y388756D01*
X288649Y389652D01*
X288058Y390421D01*
X287290Y391011D01*
X286394Y391382D01*
X285433Y391508D01*
X284472Y391382D01*
X283577Y391011D01*
X282808Y390421D01*
X282218Y389652D01*
X281847Y388756D01*
X281720Y387795D01*
X281847Y386834D01*
X282218Y385939D01*
X282808Y385170D01*
X283577Y384580D01*
X283719Y384521D01*
Y368504D01*
X283850Y367848D01*
X284221Y367292D01*
X291684Y359829D01*
Y336290D01*
X291397Y336149D01*
X291220Y336140D01*
X290947Y336538D01*
X290988Y336637D01*
X291114Y337598D01*
X290988Y338559D01*
X290617Y339455D01*
X290027Y340224D01*
X289625Y340532D01*
Y358071D01*
X289625Y358071D01*
X289456Y358922D01*
X288974Y359643D01*
X276966Y371651D01*
X276245Y372133D01*
X275394Y372303D01*
X275394Y372303D01*
X223150D01*
X223150Y372303D01*
X222299Y372133D01*
X221577Y371651D01*
X221577Y371651D01*
X206198Y356272D01*
X205591Y356352D01*
X204599Y356221D01*
X203675Y355838D01*
X202881Y355229D01*
X202272Y354436D01*
X201889Y353512D01*
X201759Y352520D01*
X201889Y351528D01*
X202272Y350604D01*
X202881Y349810D01*
X203675Y349201D01*
X204599Y348818D01*
X205591Y348688D01*
X206582Y348818D01*
X207506Y349201D01*
X208300Y349810D01*
X208909Y350604D01*
X209292Y351528D01*
X209422Y352520D01*
X209343Y353127D01*
X224071Y367855D01*
X265980D01*
X266080Y367355D01*
X266009Y367326D01*
X265240Y366736D01*
X264650Y365967D01*
X264279Y365071D01*
X264153Y364110D01*
X264279Y363149D01*
X264650Y362254D01*
X265240Y361485D01*
X266009Y360895D01*
X266151Y360836D01*
Y330245D01*
X266282Y329589D01*
X266653Y329033D01*
X271973Y323713D01*
X271889Y323512D01*
X271759Y322520D01*
X271889Y321528D01*
X272272Y320604D01*
X272881Y319810D01*
X273675Y319201D01*
X274599Y318818D01*
X275590Y318688D01*
X276582Y318818D01*
X277506Y319201D01*
X278300Y319810D01*
X278909Y320604D01*
X279292Y321528D01*
X279422Y322520D01*
X279292Y323512D01*
X278909Y324436D01*
X278300Y325229D01*
X277506Y325838D01*
X276582Y326221D01*
X275590Y326352D01*
X274599Y326221D01*
X274397Y326137D01*
X269580Y330955D01*
Y360836D01*
X269722Y360895D01*
X270491Y361485D01*
X271081Y362254D01*
X271452Y363149D01*
X271578Y364110D01*
X271452Y365071D01*
X271081Y365967D01*
X270491Y366736D01*
X269722Y367326D01*
X269651Y367355D01*
X269751Y367855D01*
X274473D01*
X285178Y357150D01*
Y340532D01*
X284776Y340224D01*
X284186Y339455D01*
X283815Y338559D01*
X283689Y337598D01*
X283815Y336637D01*
X284186Y335742D01*
X284776Y334973D01*
X285545Y334383D01*
X286441Y334012D01*
X287146Y333919D01*
Y292304D01*
X286745Y291996D01*
X286155Y291227D01*
X285784Y290331D01*
X285657Y289370D01*
X285784Y288409D01*
X286155Y287514D01*
X286745Y286745D01*
X287146Y286437D01*
Y247028D01*
X286745Y246720D01*
X286155Y245951D01*
X285784Y245056D01*
X285657Y244094D01*
X285784Y243133D01*
X286155Y242238D01*
X286745Y241469D01*
X287514Y240879D01*
X288409Y240508D01*
X289370Y240382D01*
X290331Y240508D01*
X291227Y240879D01*
X291996Y241469D01*
X292585Y242238D01*
X292956Y243133D01*
X293062Y243932D01*
X293562Y243899D01*
Y216857D01*
X293419Y216798D01*
X292650Y216208D01*
X292060Y215439D01*
X291689Y214544D01*
X291563Y213583D01*
X291689Y212622D01*
X291842Y212254D01*
X291564Y211838D01*
X283920D01*
X283256Y212113D01*
X282331Y212235D01*
X281406Y212113D01*
X280741Y211838D01*
X261432D01*
X260768Y212113D01*
X259842Y212235D01*
X258917Y212113D01*
X258253Y211838D01*
X237810D01*
X237145Y212113D01*
X236221Y212235D01*
X235296Y212113D01*
X234434Y211756D01*
X233693Y211189D01*
X233125Y210448D01*
X232768Y209586D01*
X232647Y208661D01*
X232768Y207736D01*
X233125Y206874D01*
X233693Y206134D01*
X234434Y205566D01*
X235296Y205209D01*
X236221Y205088D01*
X237145Y205209D01*
X237810Y205485D01*
X258253D01*
X258917Y205209D01*
X259842Y205088D01*
X260768Y205209D01*
X261432Y205485D01*
X280741D01*
X281406Y205209D01*
X282331Y205088D01*
X283256Y205209D01*
X283920Y205485D01*
X291448D01*
X296444Y200489D01*
X296252Y200027D01*
X203466D01*
X200027Y203466D01*
Y226789D01*
X200213Y227213D01*
X200527Y227213D01*
X232677D01*
Y220866D01*
X239764D01*
Y227953D01*
X237934D01*
Y231574D01*
X245306Y238946D01*
X245678Y239502D01*
X245809Y240158D01*
Y267007D01*
X253181Y274378D01*
X253552Y274935D01*
X253682Y275590D01*
Y296922D01*
X253825Y296981D01*
X254594Y297571D01*
X255184Y298340D01*
X255555Y299236D01*
X255681Y300197D01*
X255555Y301158D01*
X255184Y302053D01*
X254594Y302822D01*
X253825Y303412D01*
X252929Y303783D01*
X251969Y303910D01*
X251008Y303783D01*
X250112Y303412D01*
X249343Y302822D01*
X248753Y302053D01*
X248382Y301158D01*
X248256Y300197D01*
X248382Y299236D01*
X248753Y298340D01*
X249343Y297571D01*
X250112Y296981D01*
X250255Y296922D01*
Y276301D01*
X242882Y268929D01*
X242511Y268373D01*
X242380Y267717D01*
Y240867D01*
X235812Y234299D01*
X235350Y234491D01*
Y283787D01*
X200527D01*
X200213Y283787D01*
X200027Y284211D01*
Y426535D01*
X203387Y429894D01*
X465613D01*
X469264Y426243D01*
D02*
G37*
%LPC*%
G36*
X460630Y428381D02*
X459241Y428244D01*
X457905Y427839D01*
X456674Y427181D01*
X455595Y426295D01*
X454709Y425216D01*
X454051Y423985D01*
X453646Y422649D01*
X453509Y421260D01*
X453646Y419871D01*
X454051Y418535D01*
X454709Y417304D01*
X455595Y416225D01*
X456674Y415339D01*
X457905Y414681D01*
X459241Y414276D01*
X460630Y414139D01*
X462019Y414276D01*
X463355Y414681D01*
X464586Y415339D01*
X465665Y416225D01*
X466551Y417304D01*
X467209Y418535D01*
X467614Y419871D01*
X467751Y421260D01*
X467614Y422649D01*
X467209Y423985D01*
X466551Y425216D01*
X465665Y426295D01*
X464586Y427181D01*
X463355Y427839D01*
X462019Y428244D01*
X460630Y428381D01*
D02*
G37*
G36*
X208661D02*
X207272Y428244D01*
X205936Y427839D01*
X204705Y427181D01*
X203626Y426295D01*
X202741Y425216D01*
X202083Y423985D01*
X201677Y422649D01*
X201540Y421260D01*
X201677Y419871D01*
X202083Y418535D01*
X202741Y417304D01*
X203626Y416225D01*
X204705Y415339D01*
X205936Y414681D01*
X207272Y414276D01*
X208661Y414139D01*
X210051Y414276D01*
X211386Y414681D01*
X212618Y415339D01*
X213697Y416225D01*
X214582Y417304D01*
X215240Y418535D01*
X215646Y419871D01*
X215782Y421260D01*
X215646Y422649D01*
X215240Y423985D01*
X214582Y425216D01*
X213697Y426295D01*
X212618Y427181D01*
X211386Y427839D01*
X210051Y428244D01*
X208661Y428381D01*
D02*
G37*
G36*
X317626Y416711D02*
Y413886D01*
X320451D01*
X320402Y414263D01*
X320063Y415081D01*
X319524Y415784D01*
X318822Y416323D01*
X318004Y416662D01*
X317626Y416711D01*
D02*
G37*
G36*
X316626D02*
X316248Y416662D01*
X315430Y416323D01*
X314728Y415784D01*
X314189Y415081D01*
X313850Y414263D01*
X313801Y413886D01*
X316626D01*
Y416711D01*
D02*
G37*
G36*
X320451Y412886D02*
X317626D01*
Y410060D01*
X318004Y410110D01*
X318822Y410449D01*
X319524Y410988D01*
X320063Y411690D01*
X320402Y412508D01*
X320451Y412886D01*
D02*
G37*
G36*
X316626D02*
X313801D01*
X313850Y412508D01*
X314189Y411690D01*
X314728Y410988D01*
X315430Y410449D01*
X316248Y410110D01*
X316626Y410060D01*
Y412886D01*
D02*
G37*
G36*
X436673Y416960D02*
X435748Y416838D01*
X434886Y416481D01*
X434146Y415913D01*
X433578Y415173D01*
X433221Y414311D01*
X433099Y413386D01*
X433221Y412461D01*
X433578Y411599D01*
X434146Y410859D01*
X434886Y410291D01*
X435748Y409934D01*
X436673Y409812D01*
X437598Y409934D01*
X438460Y410291D01*
X439200Y410859D01*
X439768Y411599D01*
X440125Y412461D01*
X440247Y413386D01*
X440125Y414311D01*
X439768Y415173D01*
X439200Y415913D01*
X438460Y416481D01*
X437598Y416838D01*
X436673Y416960D01*
D02*
G37*
G36*
X413386D02*
X412461Y416838D01*
X411599Y416481D01*
X410859Y415913D01*
X410291Y415173D01*
X409934Y414311D01*
X409812Y413386D01*
X409934Y412461D01*
X410291Y411599D01*
X410859Y410859D01*
X411599Y410291D01*
X412461Y409934D01*
X413386Y409812D01*
X414311Y409934D01*
X415173Y410291D01*
X415913Y410859D01*
X416481Y411599D01*
X416838Y412461D01*
X416960Y413386D01*
X416838Y414311D01*
X416481Y415173D01*
X415913Y415913D01*
X415173Y416481D01*
X414311Y416838D01*
X413386Y416960D01*
D02*
G37*
G36*
X387795D02*
X386870Y416838D01*
X386008Y416481D01*
X385268Y415913D01*
X384700Y415173D01*
X384343Y414311D01*
X384221Y413386D01*
X384343Y412461D01*
X384700Y411599D01*
X385268Y410859D01*
X386008Y410291D01*
X386870Y409934D01*
X387795Y409812D01*
X388720Y409934D01*
X389582Y410291D01*
X390322Y410859D01*
X390890Y411599D01*
X391247Y412461D01*
X391369Y413386D01*
X391247Y414311D01*
X390890Y415173D01*
X390322Y415913D01*
X389582Y416481D01*
X388720Y416838D01*
X387795Y416960D01*
D02*
G37*
G36*
X301378D02*
X300453Y416838D01*
X299591Y416481D01*
X298851Y415913D01*
X298283Y415173D01*
X297926Y414311D01*
X297804Y413386D01*
X297926Y412461D01*
X298283Y411599D01*
X298851Y410859D01*
X299591Y410291D01*
X300453Y409934D01*
X301378Y409812D01*
X302303Y409934D01*
X303165Y410291D01*
X303905Y410859D01*
X304473Y411599D01*
X304830Y412461D01*
X304952Y413386D01*
X304830Y414311D01*
X304473Y415173D01*
X303905Y415913D01*
X303165Y416481D01*
X302303Y416838D01*
X301378Y416960D01*
D02*
G37*
G36*
X279528D02*
X278603Y416838D01*
X277741Y416481D01*
X277000Y415913D01*
X276432Y415173D01*
X276076Y414311D01*
X275954Y413386D01*
X276076Y412461D01*
X276432Y411599D01*
X277000Y410859D01*
X277741Y410291D01*
X278603Y409934D01*
X279528Y409812D01*
X280453Y409934D01*
X281314Y410291D01*
X282055Y410859D01*
X282623Y411599D01*
X282980Y412461D01*
X283101Y413386D01*
X282980Y414311D01*
X282623Y415173D01*
X282055Y415913D01*
X281314Y416481D01*
X280453Y416838D01*
X279528Y416960D01*
D02*
G37*
G36*
X255906D02*
X254980Y416838D01*
X254119Y416481D01*
X253378Y415913D01*
X252810Y415173D01*
X252453Y414311D01*
X252332Y413386D01*
X252453Y412461D01*
X252810Y411599D01*
X253378Y410859D01*
X254119Y410291D01*
X254980Y409934D01*
X255906Y409812D01*
X256831Y409934D01*
X257692Y410291D01*
X258433Y410859D01*
X259001Y411599D01*
X259358Y412461D01*
X259479Y413386D01*
X259358Y414311D01*
X259001Y415173D01*
X258433Y415913D01*
X257692Y416481D01*
X256831Y416838D01*
X255906Y416960D01*
D02*
G37*
G36*
X232283D02*
X231359Y416838D01*
X230694Y416563D01*
X224410D01*
X223587Y416454D01*
X222821Y416137D01*
X222163Y415632D01*
X203344Y396813D01*
X202839Y396155D01*
X202522Y395389D01*
X202414Y394567D01*
Y364620D01*
X202272Y364436D01*
X201889Y363511D01*
X201759Y362520D01*
X201889Y361528D01*
X202272Y360604D01*
X202881Y359810D01*
X203675Y359201D01*
X204599Y358818D01*
X205591Y358688D01*
X206582Y358818D01*
X207506Y359201D01*
X208300Y359810D01*
X208909Y360604D01*
X209292Y361528D01*
X209422Y362520D01*
X209292Y363511D01*
X208909Y364436D01*
X208767Y364620D01*
Y393251D01*
X225725Y410209D01*
X230694D01*
X231359Y409934D01*
X232283Y409812D01*
X233208Y409934D01*
X234070Y410291D01*
X234811Y410859D01*
X235379Y411599D01*
X235736Y412461D01*
X235857Y413386D01*
X235736Y414311D01*
X235379Y415173D01*
X234811Y415913D01*
X234070Y416481D01*
X233208Y416838D01*
X232283Y416960D01*
D02*
G37*
G36*
X352862Y409433D02*
Y406012D01*
X356283D01*
X356213Y406544D01*
X355815Y407505D01*
X355181Y408331D01*
X354356Y408964D01*
X353394Y409363D01*
X352862Y409433D01*
D02*
G37*
G36*
X351862D02*
X351330Y409363D01*
X350369Y408964D01*
X349543Y408331D01*
X348909Y407505D01*
X348511Y406544D01*
X348441Y406012D01*
X351862D01*
Y409433D01*
D02*
G37*
G36*
X440216Y409055D02*
X433130D01*
Y401968D01*
X440216D01*
Y409055D01*
D02*
G37*
G36*
X416929D02*
X409842D01*
Y401968D01*
X416929D01*
Y409055D01*
D02*
G37*
G36*
X356283Y405012D02*
X352862D01*
Y401591D01*
X353394Y401661D01*
X354356Y402059D01*
X355181Y402693D01*
X355815Y403518D01*
X356213Y404480D01*
X356283Y405012D01*
D02*
G37*
G36*
X351862D02*
X348441D01*
X348511Y404480D01*
X348909Y403518D01*
X349543Y402693D01*
X350369Y402059D01*
X351330Y401661D01*
X351862Y401591D01*
Y405012D01*
D02*
G37*
G36*
X376496Y409646D02*
X368228D01*
Y401378D01*
X376496D01*
Y409646D01*
D02*
G37*
G36*
X362362Y409681D02*
X361283Y409539D01*
X360277Y409123D01*
X359414Y408460D01*
X358751Y407597D01*
X358335Y406591D01*
X358193Y405512D01*
X358335Y404433D01*
X358488Y404062D01*
X351150Y396724D01*
X350779Y396168D01*
X350648Y395512D01*
Y325125D01*
X350506Y325066D01*
X349737Y324476D01*
X349147Y323707D01*
X348776Y322811D01*
X348649Y321850D01*
X348776Y320889D01*
X349147Y319994D01*
X349737Y319225D01*
X350506Y318635D01*
X351401Y318264D01*
X352362Y318138D01*
X353323Y318264D01*
X354219Y318635D01*
X354988Y319225D01*
X355578Y319994D01*
X355948Y320889D01*
X356075Y321850D01*
X355948Y322811D01*
X355578Y323707D01*
X354988Y324476D01*
X354219Y325066D01*
X354076Y325125D01*
Y394802D01*
X360912Y401638D01*
X361283Y401484D01*
X362362Y401342D01*
X363441Y401484D01*
X364447Y401901D01*
X365311Y402563D01*
X365973Y403427D01*
X366390Y404433D01*
X366532Y405512D01*
X366390Y406591D01*
X365973Y407597D01*
X365311Y408460D01*
X364447Y409123D01*
X363441Y409539D01*
X362362Y409681D01*
D02*
G37*
G36*
X391339Y409055D02*
X384252D01*
Y401968D01*
X388915D01*
X391002Y399881D01*
Y393896D01*
X390503Y393863D01*
X390482Y394019D01*
X390397Y394662D01*
X390026Y395557D01*
X389436Y396326D01*
X388667Y396916D01*
X387772Y397287D01*
X386811Y397414D01*
X385850Y397287D01*
X384955Y396916D01*
X384186Y396326D01*
X383596Y395557D01*
X383225Y394662D01*
X383098Y393701D01*
X383225Y392740D01*
X383596Y391844D01*
X384186Y391075D01*
X384955Y390485D01*
X385097Y390426D01*
Y382108D01*
X376898Y373909D01*
X376527Y373353D01*
X376396Y372697D01*
Y327147D01*
X363308Y314059D01*
X363166Y314118D01*
X362205Y314244D01*
X361244Y314118D01*
X360348Y313747D01*
X359579Y313157D01*
X358989Y312388D01*
X358618Y311492D01*
X358492Y310531D01*
X358618Y309571D01*
X358989Y308675D01*
X359579Y307906D01*
X360348Y307316D01*
X361244Y306945D01*
X362205Y306819D01*
X363166Y306945D01*
X364061Y307316D01*
X364830Y307906D01*
X365420Y308675D01*
X365791Y309571D01*
X365918Y310531D01*
X365791Y311492D01*
X365732Y311635D01*
X379322Y325225D01*
X379694Y325781D01*
X379824Y326437D01*
Y371987D01*
X388023Y380186D01*
X388395Y380742D01*
X388525Y381398D01*
Y390426D01*
X388667Y390485D01*
X389436Y391075D01*
X390026Y391844D01*
X390397Y392740D01*
X390482Y393382D01*
X390503Y393538D01*
X391002Y393506D01*
Y345794D01*
X390860Y345735D01*
X390091Y345145D01*
X389501Y344376D01*
X389130Y343481D01*
X389004Y342520D01*
X389130Y341559D01*
X389501Y340663D01*
X390091Y339894D01*
X390860Y339304D01*
X391756Y338933D01*
X392717Y338807D01*
X393677Y338933D01*
X394573Y339304D01*
X395342Y339894D01*
X395932Y340663D01*
X396303Y341559D01*
X396429Y342520D01*
X396303Y343481D01*
X395932Y344376D01*
X395342Y345145D01*
X394573Y345735D01*
X394431Y345794D01*
Y400591D01*
X394300Y401247D01*
X393929Y401803D01*
X391339Y404392D01*
Y409055D01*
D02*
G37*
G36*
X464067Y391024D02*
X463327Y390927D01*
X462171Y390448D01*
X461179Y389687D01*
X460418Y388695D01*
X459939Y387539D01*
X459842Y386799D01*
X464067D01*
Y391024D01*
D02*
G37*
G36*
X363386Y385098D02*
X355118D01*
Y376831D01*
X363386D01*
Y385098D01*
D02*
G37*
G36*
X402559Y417099D02*
X401598Y416972D01*
X400703Y416601D01*
X399934Y416011D01*
X399344Y415242D01*
X398973Y414347D01*
X398846Y413386D01*
X398901Y412973D01*
X398890Y412894D01*
Y390077D01*
X398550Y389816D01*
X397760Y388786D01*
X397263Y387586D01*
X397093Y386299D01*
X397263Y385012D01*
X397760Y383812D01*
X398550Y382782D01*
X399580Y381992D01*
X400780Y381495D01*
X401046Y381460D01*
Y380956D01*
X400827Y380927D01*
X399671Y380448D01*
X398679Y379687D01*
X397918Y378695D01*
X397439Y377539D01*
X397342Y376799D01*
X402067D01*
X406792D01*
X406695Y377539D01*
X406216Y378695D01*
X405455Y379687D01*
X404462Y380448D01*
X403307Y380927D01*
X403088Y380956D01*
Y381460D01*
X403354Y381495D01*
X404554Y381992D01*
X405584Y382782D01*
X406374Y383812D01*
X406871Y385012D01*
X407041Y386299D01*
X406871Y387586D01*
X406374Y388786D01*
X405584Y389816D01*
X405244Y390077D01*
Y410838D01*
X405774Y411529D01*
X406145Y412425D01*
X406272Y413386D01*
X406145Y414347D01*
X405774Y415242D01*
X405185Y416011D01*
X404416Y416601D01*
X403520Y416972D01*
X402559Y417099D01*
D02*
G37*
G36*
X445382Y379449D02*
Y376484D01*
X448346D01*
X448292Y376898D01*
X447939Y377749D01*
X447378Y378481D01*
X446647Y379042D01*
X445796Y379394D01*
X445382Y379449D01*
D02*
G37*
G36*
X444382D02*
X443968Y379394D01*
X443117Y379042D01*
X442386Y378481D01*
X441825Y377749D01*
X441472Y376898D01*
X441418Y376484D01*
X444382D01*
Y379449D01*
D02*
G37*
G36*
X448346Y375484D02*
X445382D01*
Y372520D01*
X445796Y372574D01*
X446647Y372927D01*
X447378Y373488D01*
X447939Y374219D01*
X448292Y375071D01*
X448346Y375484D01*
D02*
G37*
G36*
X444382D02*
X441418D01*
X441472Y375071D01*
X441825Y374219D01*
X442386Y373488D01*
X443117Y372927D01*
X443968Y372574D01*
X444382Y372520D01*
Y375484D01*
D02*
G37*
G36*
X359752Y364886D02*
Y361465D01*
X363173D01*
X363103Y361997D01*
X362705Y362958D01*
X362071Y363784D01*
X361245Y364417D01*
X360284Y364816D01*
X359752Y364886D01*
D02*
G37*
G36*
X358752Y364886D02*
X358220Y364816D01*
X357259Y364417D01*
X356433Y363784D01*
X355799Y362958D01*
X355401Y361997D01*
X355331Y361465D01*
X358752D01*
Y364886D01*
D02*
G37*
G36*
X363173Y360465D02*
X359752D01*
Y357044D01*
X360284Y357114D01*
X361245Y357512D01*
X362071Y358145D01*
X362705Y358971D01*
X363103Y359933D01*
X363173Y360465D01*
D02*
G37*
G36*
X358752D02*
X355331D01*
X355401Y359933D01*
X355799Y358971D01*
X356433Y358145D01*
X357259Y357512D01*
X358220Y357114D01*
X358752Y357044D01*
Y360465D01*
D02*
G37*
G36*
X359252Y375134D02*
X358173Y374992D01*
X357167Y374575D01*
X356304Y373913D01*
X355641Y373049D01*
X355224Y372044D01*
X355082Y370965D01*
X355224Y369885D01*
X355641Y368880D01*
X356304Y368016D01*
X357167Y367354D01*
X358173Y366937D01*
X359252Y366795D01*
X360157Y366914D01*
X364580Y362492D01*
Y359233D01*
X364178Y358925D01*
X363588Y358156D01*
X363217Y357260D01*
X363091Y356299D01*
X363217Y355338D01*
X363588Y354443D01*
X364178Y353674D01*
X364947Y353084D01*
X365843Y352713D01*
X366803Y352586D01*
X367764Y352713D01*
X368660Y353084D01*
X369429Y353674D01*
X370019Y354443D01*
X370390Y355338D01*
X370516Y356299D01*
X370390Y357260D01*
X370019Y358156D01*
X369429Y358925D01*
X369027Y359233D01*
Y363413D01*
X369027Y363413D01*
X368858Y364264D01*
X368376Y364986D01*
X368376Y364986D01*
X363302Y370059D01*
X363422Y370965D01*
X363279Y372044D01*
X362863Y373049D01*
X362200Y373913D01*
X361337Y374575D01*
X360331Y374992D01*
X359252Y375134D01*
D02*
G37*
G36*
X275590Y356352D02*
X274599Y356221D01*
X273675Y355838D01*
X272881Y355229D01*
X272272Y354436D01*
X271889Y353512D01*
X271759Y352520D01*
X271889Y351528D01*
X272272Y350604D01*
X272881Y349810D01*
X273675Y349201D01*
X274599Y348818D01*
X275590Y348688D01*
X276582Y348818D01*
X277506Y349201D01*
X278300Y349810D01*
X278909Y350604D01*
X279292Y351528D01*
X279422Y352520D01*
X279292Y353512D01*
X278909Y354436D01*
X278300Y355229D01*
X277506Y355838D01*
X276582Y356221D01*
X275590Y356352D01*
D02*
G37*
G36*
X206091Y346103D02*
Y343020D01*
X209174D01*
X209116Y343464D01*
X208751Y344344D01*
X208171Y345100D01*
X207415Y345680D01*
X206535Y346045D01*
X206091Y346103D01*
D02*
G37*
G36*
X205091Y346103D02*
X204646Y346045D01*
X203766Y345680D01*
X203010Y345100D01*
X202430Y344344D01*
X202066Y343464D01*
X202007Y343020D01*
X205091D01*
Y346103D01*
D02*
G37*
G36*
X209174Y342020D02*
X206091D01*
Y338936D01*
X206535Y338995D01*
X207415Y339359D01*
X208171Y339939D01*
X208751Y340695D01*
X209116Y341575D01*
X209174Y342020D01*
D02*
G37*
G36*
X205091D02*
X202007D01*
X202066Y341575D01*
X202430Y340695D01*
X203010Y339939D01*
X203766Y339359D01*
X204646Y338995D01*
X205091Y338936D01*
Y342020D01*
D02*
G37*
G36*
X275590Y346352D02*
X274599Y346221D01*
X273675Y345838D01*
X272881Y345229D01*
X272272Y344436D01*
X271889Y343512D01*
X271759Y342520D01*
X271889Y341528D01*
X272272Y340604D01*
X272881Y339810D01*
X273675Y339201D01*
X274599Y338818D01*
X275590Y338688D01*
X276582Y338818D01*
X277506Y339201D01*
X278300Y339810D01*
X278909Y340604D01*
X279292Y341528D01*
X279422Y342520D01*
X279292Y343512D01*
X278909Y344436D01*
X278300Y345229D01*
X277506Y345838D01*
X276582Y346221D01*
X275590Y346352D01*
D02*
G37*
G36*
X374016Y397414D02*
X373055Y397287D01*
X372159Y396916D01*
X371390Y396326D01*
X370800Y395557D01*
X370429Y394662D01*
X370303Y393701D01*
X370429Y392740D01*
X370800Y391844D01*
X371390Y391075D01*
X372159Y390485D01*
X372302Y390426D01*
Y347903D01*
X361922Y337523D01*
X361780Y337582D01*
X360819Y337709D01*
X359858Y337582D01*
X358962Y337211D01*
X358193Y336621D01*
X357603Y335853D01*
X357232Y334957D01*
X357106Y333996D01*
X357232Y333035D01*
X357603Y332140D01*
X358193Y331371D01*
X358962Y330781D01*
X359858Y330410D01*
X360819Y330283D01*
X361780Y330410D01*
X362675Y330781D01*
X363444Y331371D01*
X364034Y332140D01*
X364405Y333035D01*
X364532Y333996D01*
X364405Y334957D01*
X364346Y335099D01*
X375228Y345981D01*
X375599Y346537D01*
X375730Y347193D01*
Y390426D01*
X375872Y390485D01*
X376641Y391075D01*
X377231Y391844D01*
X377602Y392740D01*
X377729Y393701D01*
X377602Y394662D01*
X377231Y395557D01*
X376641Y396326D01*
X375872Y396916D01*
X374977Y397287D01*
X374016Y397414D01*
D02*
G37*
G36*
X445382Y340078D02*
Y337114D01*
X448346D01*
X448292Y337528D01*
X447939Y338379D01*
X447378Y339110D01*
X446647Y339671D01*
X445796Y340024D01*
X445382Y340078D01*
D02*
G37*
G36*
X444382D02*
X443968Y340024D01*
X443117Y339671D01*
X442386Y339110D01*
X441825Y338379D01*
X441472Y337528D01*
X441418Y337114D01*
X444382D01*
Y340078D01*
D02*
G37*
G36*
X448346Y336114D02*
X445382D01*
Y333150D01*
X445796Y333204D01*
X446647Y333557D01*
X447378Y334118D01*
X447939Y334849D01*
X448292Y335700D01*
X448346Y336114D01*
D02*
G37*
G36*
X444382D02*
X441418D01*
X441472Y335700D01*
X441825Y334849D01*
X442386Y334118D01*
X443117Y333557D01*
X443968Y333204D01*
X444382Y333150D01*
Y336114D01*
D02*
G37*
G36*
X406792Y375799D02*
X402067D01*
X397342D01*
X397439Y375059D01*
X397918Y373904D01*
X398679Y372912D01*
X399671Y372150D01*
X400827Y371672D01*
X401046Y371643D01*
Y371138D01*
X400780Y371103D01*
X399580Y370606D01*
X398550Y369816D01*
X397760Y368786D01*
X397263Y367586D01*
X397093Y366299D01*
X397263Y365012D01*
X397760Y363812D01*
X398550Y362782D01*
X399580Y361992D01*
X400610Y361565D01*
Y361033D01*
X399580Y360607D01*
X398550Y359816D01*
X397760Y358786D01*
X397263Y357587D01*
X397093Y356299D01*
X397263Y355012D01*
X397760Y353812D01*
X398550Y352782D01*
X399580Y351992D01*
X400610Y351565D01*
Y351033D01*
X399580Y350606D01*
X398550Y349816D01*
X397760Y348786D01*
X397263Y347586D01*
X397093Y346299D01*
X397263Y345012D01*
X397760Y343812D01*
X398550Y342782D01*
X399580Y341992D01*
X400610Y341565D01*
Y341033D01*
X399580Y340606D01*
X398550Y339816D01*
X397760Y338786D01*
X397263Y337586D01*
X397093Y336299D01*
X397263Y335012D01*
X397760Y333812D01*
X398550Y332782D01*
X399580Y331992D01*
X400780Y331495D01*
X402067Y331326D01*
X403354Y331495D01*
X404554Y331992D01*
X405584Y332782D01*
X406374Y333812D01*
X406871Y335012D01*
X407041Y336299D01*
X406871Y337586D01*
X406374Y338786D01*
X405584Y339816D01*
X404554Y340606D01*
X403524Y341033D01*
Y341565D01*
X404554Y341992D01*
X405584Y342782D01*
X406374Y343812D01*
X406871Y345012D01*
X407041Y346299D01*
X406871Y347586D01*
X406374Y348786D01*
X405584Y349816D01*
X404554Y350606D01*
X403524Y351033D01*
Y351565D01*
X404554Y351992D01*
X405584Y352782D01*
X406374Y353812D01*
X406871Y355012D01*
X407041Y356299D01*
X406871Y357587D01*
X406374Y358786D01*
X405584Y359816D01*
X404554Y360607D01*
X403524Y361033D01*
Y361565D01*
X404554Y361992D01*
X405584Y362782D01*
X406374Y363812D01*
X406871Y365012D01*
X407041Y366299D01*
X406871Y367586D01*
X406374Y368786D01*
X405584Y369816D01*
X404554Y370606D01*
X403354Y371103D01*
X403088Y371138D01*
Y371643D01*
X403307Y371672D01*
X404462Y372150D01*
X405455Y372912D01*
X406216Y373904D01*
X406695Y375059D01*
X406792Y375799D01*
D02*
G37*
G36*
X310500Y332464D02*
X310086Y332410D01*
X309235Y332057D01*
X308504Y331496D01*
X307943Y330765D01*
X307590Y329914D01*
X307536Y329500D01*
X310500D01*
Y332464D01*
D02*
G37*
G36*
X275590Y336352D02*
X274599Y336221D01*
X273675Y335838D01*
X272881Y335229D01*
X272272Y334436D01*
X271889Y333511D01*
X271759Y332520D01*
X271889Y331528D01*
X272272Y330604D01*
X272881Y329810D01*
X273675Y329201D01*
X274599Y328818D01*
X275590Y328688D01*
X276582Y328818D01*
X277506Y329201D01*
X278300Y329810D01*
X278909Y330604D01*
X279292Y331528D01*
X279422Y332520D01*
X279292Y333511D01*
X278909Y334436D01*
X278300Y335229D01*
X277506Y335838D01*
X276582Y336221D01*
X275590Y336352D01*
D02*
G37*
G36*
X205591D02*
X204599Y336221D01*
X203675Y335838D01*
X202881Y335229D01*
X202272Y334436D01*
X201889Y333511D01*
X201759Y332520D01*
X201889Y331528D01*
X202272Y330604D01*
X202881Y329810D01*
X203675Y329201D01*
X204599Y328818D01*
X205591Y328688D01*
X206582Y328818D01*
X207506Y329201D01*
X208300Y329810D01*
X208909Y330604D01*
X209292Y331528D01*
X209422Y332520D01*
X209292Y333511D01*
X208909Y334436D01*
X208300Y335229D01*
X207506Y335838D01*
X206582Y336221D01*
X205591Y336352D01*
D02*
G37*
G36*
X310500Y328500D02*
X307536D01*
X307590Y328086D01*
X307943Y327235D01*
X308504Y326504D01*
X309235Y325943D01*
X310086Y325590D01*
X310500Y325536D01*
Y328500D01*
D02*
G37*
G36*
X205591Y326352D02*
X204599Y326221D01*
X203675Y325838D01*
X202881Y325229D01*
X202272Y324436D01*
X201889Y323512D01*
X201759Y322520D01*
X201889Y321528D01*
X202272Y320604D01*
X202881Y319810D01*
X203675Y319201D01*
X204599Y318818D01*
X205591Y318688D01*
X206582Y318818D01*
X207506Y319201D01*
X208300Y319810D01*
X208909Y320604D01*
X209292Y321528D01*
X209422Y322520D01*
X209292Y323512D01*
X208909Y324436D01*
X208300Y325229D01*
X207506Y325838D01*
X206582Y326221D01*
X205591Y326352D01*
D02*
G37*
G36*
X411024Y325092D02*
X410032Y324961D01*
X409108Y324578D01*
X408314Y323970D01*
X407705Y323176D01*
X407322Y322252D01*
X407192Y321260D01*
X407322Y320268D01*
X407705Y319344D01*
X408314Y318550D01*
X409108Y317941D01*
X410032Y317558D01*
X411024Y317428D01*
X412015Y317558D01*
X412940Y317941D01*
X413733Y318550D01*
X414342Y319344D01*
X414725Y320268D01*
X414856Y321260D01*
X414725Y322252D01*
X414342Y323176D01*
X413733Y323970D01*
X412940Y324578D01*
X412015Y324961D01*
X411024Y325092D01*
D02*
G37*
G36*
X439173Y325000D02*
X426968D01*
Y312795D01*
X439173D01*
Y325000D01*
D02*
G37*
G36*
X205591Y316352D02*
X204599Y316221D01*
X203675Y315838D01*
X202881Y315229D01*
X202272Y314436D01*
X201889Y313511D01*
X201759Y312520D01*
X201889Y311528D01*
X202272Y310604D01*
X202881Y309810D01*
X203675Y309201D01*
X204599Y308818D01*
X205591Y308688D01*
X206582Y308818D01*
X207506Y309201D01*
X208300Y309810D01*
X208909Y310604D01*
X209292Y311528D01*
X209422Y312520D01*
X209292Y313511D01*
X208909Y314436D01*
X208300Y315229D01*
X207506Y315838D01*
X206582Y316221D01*
X205591Y316352D01*
D02*
G37*
G36*
X316994Y311535D02*
Y308571D01*
X319959D01*
X319904Y308984D01*
X319551Y309836D01*
X318990Y310567D01*
X318259Y311128D01*
X317408Y311481D01*
X316994Y311535D01*
D02*
G37*
G36*
X315994D02*
X315581Y311481D01*
X314729Y311128D01*
X313998Y310567D01*
X313437Y309836D01*
X313084Y308984D01*
X313030Y308571D01*
X315994D01*
Y311535D01*
D02*
G37*
G36*
X453256Y310551D02*
Y307587D01*
X456220D01*
X456166Y308000D01*
X455813Y308852D01*
X455252Y309583D01*
X454521Y310144D01*
X453670Y310496D01*
X453256Y310551D01*
D02*
G37*
G36*
X452256D02*
X451842Y310496D01*
X450991Y310144D01*
X450260Y309583D01*
X449699Y308852D01*
X449346Y308000D01*
X449292Y307587D01*
X452256D01*
Y310551D01*
D02*
G37*
G36*
X385827Y354107D02*
X384866Y353980D01*
X383970Y353609D01*
X383201Y353019D01*
X382611Y352250D01*
X382240Y351355D01*
X382114Y350394D01*
X382240Y349433D01*
X382611Y348537D01*
X383201Y347768D01*
X383603Y347460D01*
Y279221D01*
X383201Y278913D01*
X382611Y278144D01*
X382240Y277248D01*
X382114Y276287D01*
X382240Y275326D01*
X382611Y274431D01*
X383201Y273662D01*
X383970Y273072D01*
X384866Y272701D01*
X385827Y272574D01*
X386583Y272674D01*
X404923Y254333D01*
X404924Y254333D01*
X405645Y253851D01*
X406496Y253682D01*
X406515D01*
X406823Y253280D01*
X407592Y252690D01*
X408488Y252319D01*
X409449Y252193D01*
X410410Y252319D01*
X411305Y252690D01*
X412074Y253280D01*
X412664Y254049D01*
X413035Y254944D01*
X413162Y255906D01*
X413035Y256867D01*
X412664Y257762D01*
X412074Y258531D01*
X411305Y259121D01*
X410410Y259492D01*
X409449Y259618D01*
X408488Y259492D01*
X407592Y259121D01*
X406932Y258614D01*
X389507Y276040D01*
X389540Y276287D01*
X389446Y276996D01*
X389769Y277222D01*
X389913Y277281D01*
X390771Y276925D01*
X391732Y276799D01*
X392693Y276925D01*
X393589Y277296D01*
X394358Y277886D01*
X394948Y278655D01*
X395319Y279551D01*
X395445Y280512D01*
X395319Y281473D01*
X394948Y282368D01*
X394358Y283137D01*
X393589Y283727D01*
X393446Y283786D01*
Y287676D01*
X412283Y306512D01*
X412425Y306453D01*
X413386Y306327D01*
X414347Y306453D01*
X415242Y306824D01*
X416011Y307414D01*
X416601Y308183D01*
X416972Y309079D01*
X417099Y310039D01*
X416972Y311000D01*
X416601Y311896D01*
X416011Y312665D01*
X415242Y313255D01*
X414347Y313626D01*
X413386Y313752D01*
X412425Y313626D01*
X411529Y313255D01*
X410760Y312665D01*
X410170Y311896D01*
X409799Y311000D01*
X409673Y310039D01*
X409799Y309079D01*
X409859Y308936D01*
X390520Y289598D01*
X390149Y289042D01*
X390018Y288386D01*
Y283786D01*
X389876Y283727D01*
X389107Y283137D01*
X388551Y282412D01*
X388403Y282412D01*
X388051Y282549D01*
Y347460D01*
X388452Y347768D01*
X389042Y348537D01*
X389413Y349433D01*
X389540Y350394D01*
X389413Y351355D01*
X389042Y352250D01*
X388452Y353019D01*
X387683Y353609D01*
X386788Y353980D01*
X385827Y354107D01*
D02*
G37*
G36*
X319959Y307571D02*
X316994D01*
Y304607D01*
X317408Y304661D01*
X318259Y305014D01*
X318990Y305575D01*
X319551Y306306D01*
X319904Y307157D01*
X319959Y307571D01*
D02*
G37*
G36*
X315994D02*
X313030D01*
X313084Y307157D01*
X313437Y306306D01*
X313998Y305575D01*
X314729Y305014D01*
X315581Y304661D01*
X315994Y304607D01*
Y307571D01*
D02*
G37*
G36*
X456220Y306587D02*
X453256D01*
Y303622D01*
X453670Y303677D01*
X454521Y304029D01*
X455252Y304590D01*
X455813Y305322D01*
X456166Y306173D01*
X456220Y306587D01*
D02*
G37*
G36*
X452256D02*
X449292D01*
X449346Y306173D01*
X449699Y305322D01*
X450260Y304590D01*
X450991Y304029D01*
X451842Y303677D01*
X452256Y303622D01*
Y306587D01*
D02*
G37*
G36*
X282480Y320642D02*
X281519Y320515D01*
X280624Y320145D01*
X279855Y319554D01*
X279265Y318786D01*
X278894Y317890D01*
X278767Y316929D01*
X278894Y315968D01*
X279265Y315073D01*
X279855Y314304D01*
X280617Y313719D01*
Y290884D01*
X279117Y289384D01*
X278729Y289703D01*
X278993Y290097D01*
X279123Y290754D01*
Y309205D01*
X278993Y309861D01*
X278621Y310417D01*
X273212Y315826D01*
X273271Y315968D01*
X273398Y316929D01*
X273271Y317890D01*
X272901Y318786D01*
X272310Y319554D01*
X271542Y320145D01*
X270646Y320515D01*
X269685Y320642D01*
X268724Y320515D01*
X267829Y320145D01*
X267060Y319554D01*
X266470Y318786D01*
X266099Y317890D01*
X265972Y316929D01*
X266099Y315968D01*
X266470Y315073D01*
X267060Y314304D01*
X267829Y313714D01*
X268724Y313343D01*
X269685Y313216D01*
X270646Y313343D01*
X270788Y313402D01*
X275695Y308495D01*
Y295974D01*
X275195Y295655D01*
X274583Y295909D01*
X273622Y296035D01*
X272660Y295909D01*
X272626Y295894D01*
X272272Y296248D01*
X272287Y296283D01*
X272414Y297244D01*
X272287Y298205D01*
X271916Y299100D01*
X271326Y299869D01*
X270557Y300460D01*
X269662Y300830D01*
X268701Y300957D01*
X267740Y300830D01*
X266844Y300460D01*
X266075Y299869D01*
X265485Y299100D01*
X265114Y298205D01*
X264988Y297244D01*
X265114Y296283D01*
X265173Y296141D01*
X254694Y285661D01*
X254322Y285105D01*
X254191Y284449D01*
Y272363D01*
X250757Y268929D01*
X250385Y268373D01*
X250255Y267717D01*
Y232283D01*
X250385Y231627D01*
X250757Y231071D01*
X256299Y225529D01*
Y220866D01*
X263386D01*
Y227953D01*
X258723D01*
X253682Y232993D01*
Y267007D01*
X257118Y270442D01*
X257489Y270998D01*
X257620Y271654D01*
Y283739D01*
X267597Y293717D01*
X267740Y293658D01*
X268701Y293531D01*
X269662Y293658D01*
X269696Y293672D01*
X270050Y293318D01*
X270035Y293283D01*
X269909Y292322D01*
X270035Y291361D01*
X270094Y291219D01*
X258630Y279755D01*
X258259Y279199D01*
X258128Y278543D01*
Y240158D01*
X258259Y239502D01*
X258630Y238946D01*
X274378Y223197D01*
X274935Y222826D01*
X275590Y222695D01*
X278787D01*
Y220866D01*
X285874D01*
Y227953D01*
X278787D01*
Y226123D01*
X276301D01*
X261557Y240867D01*
Y277833D01*
X265717Y281994D01*
X266107Y281734D01*
X266129Y281699D01*
X266002Y281061D01*
Y263117D01*
X265860Y263058D01*
X265091Y262468D01*
X264501Y261699D01*
X264130Y260804D01*
X264004Y259842D01*
X264130Y258882D01*
X264501Y257986D01*
X265091Y257217D01*
X265860Y256627D01*
X266756Y256256D01*
X267717Y256130D01*
X268677Y256256D01*
X269573Y256627D01*
X270342Y257217D01*
X270932Y257986D01*
X271303Y258882D01*
X271391Y259549D01*
X271896Y259559D01*
X271907Y259541D01*
Y247369D01*
X271765Y247310D01*
X270996Y246720D01*
X270406Y245951D01*
X270035Y245056D01*
X269909Y244094D01*
X270035Y243133D01*
X270406Y242238D01*
X270996Y241469D01*
X271765Y240879D01*
X272660Y240508D01*
X273622Y240382D01*
X274583Y240508D01*
X275478Y240879D01*
X276247Y241469D01*
X276837Y242238D01*
X277208Y243133D01*
X277334Y244094D01*
X277208Y245056D01*
X276837Y245951D01*
X276247Y246720D01*
X275478Y247310D01*
X275336Y247369D01*
Y280755D01*
X283543Y288962D01*
X283914Y289518D01*
X284045Y290174D01*
Y313593D01*
X284337Y313714D01*
X285106Y314304D01*
X285696Y315073D01*
X286067Y315968D01*
X286193Y316929D01*
X286067Y317890D01*
X285696Y318786D01*
X285106Y319554D01*
X284337Y320145D01*
X283441Y320515D01*
X282480Y320642D01*
D02*
G37*
G36*
X337114Y289882D02*
Y286917D01*
X340078D01*
X340024Y287331D01*
X339671Y288182D01*
X339110Y288913D01*
X338379Y289475D01*
X337528Y289827D01*
X337114Y289882D01*
D02*
G37*
G36*
X336114D02*
X335700Y289827D01*
X334849Y289475D01*
X334118Y288913D01*
X333557Y288182D01*
X333204Y287331D01*
X333150Y286917D01*
X336114D01*
Y289882D01*
D02*
G37*
G36*
X340078Y285917D02*
X337114D01*
Y282953D01*
X337528Y283007D01*
X338379Y283360D01*
X339110Y283921D01*
X339671Y284652D01*
X340024Y285504D01*
X340078Y285917D01*
D02*
G37*
G36*
X336114D02*
X333150D01*
X333204Y285504D01*
X333557Y284652D01*
X334118Y283921D01*
X334849Y283360D01*
X335700Y283007D01*
X336114Y282953D01*
Y285917D01*
D02*
G37*
G36*
X305618Y283976D02*
Y281012D01*
X308582D01*
X308528Y281425D01*
X308175Y282277D01*
X307614Y283008D01*
X306883Y283569D01*
X306032Y283922D01*
X305618Y283976D01*
D02*
G37*
G36*
X304618D02*
X304204Y283922D01*
X303353Y283569D01*
X302622Y283008D01*
X302061Y282277D01*
X301708Y281425D01*
X301654Y281012D01*
X304618D01*
Y283976D01*
D02*
G37*
G36*
X411024Y284934D02*
X410032Y284804D01*
X409108Y284421D01*
X408314Y283812D01*
X407705Y283018D01*
X407322Y282094D01*
X407192Y281102D01*
X407322Y280111D01*
X407705Y279186D01*
X408314Y278393D01*
X409108Y277784D01*
X410032Y277401D01*
X411024Y277270D01*
X412015Y277401D01*
X412940Y277784D01*
X413733Y278393D01*
X414342Y279186D01*
X414725Y280111D01*
X414856Y281102D01*
X414725Y282094D01*
X414342Y283018D01*
X413733Y283812D01*
X412940Y284421D01*
X412015Y284804D01*
X411024Y284934D01*
D02*
G37*
G36*
X344488Y303910D02*
X343527Y303783D01*
X342632Y303412D01*
X341863Y302822D01*
X341273Y302053D01*
X340902Y301158D01*
X340775Y300197D01*
X340902Y299236D01*
X341273Y298340D01*
X341863Y297571D01*
X342632Y296981D01*
X342932Y296857D01*
Y283786D01*
X342789Y283727D01*
X342020Y283137D01*
X341430Y282368D01*
X341059Y281473D01*
X340933Y280512D01*
X341059Y279551D01*
X341430Y278655D01*
X342020Y277886D01*
X342789Y277296D01*
X343685Y276925D01*
X344646Y276799D01*
X345607Y276925D01*
X346502Y277296D01*
X347271Y277886D01*
X347861Y278655D01*
X348232Y279551D01*
X348358Y280512D01*
X348232Y281473D01*
X347861Y282368D01*
X347271Y283137D01*
X346502Y283727D01*
X346360Y283786D01*
Y296993D01*
X347114Y297571D01*
X347704Y298340D01*
X348075Y299236D01*
X348201Y300197D01*
X348075Y301158D01*
X347704Y302053D01*
X347114Y302822D01*
X346345Y303412D01*
X345449Y303783D01*
X344488Y303910D01*
D02*
G37*
G36*
X433071Y288022D02*
X431875Y287904D01*
X430724Y287555D01*
X429664Y286988D01*
X428735Y286226D01*
X427972Y285297D01*
X427406Y284236D01*
X427057Y283086D01*
X426939Y281890D01*
X427057Y280694D01*
X427406Y279543D01*
X427972Y278483D01*
X428735Y277554D01*
X429664Y276791D01*
X430724Y276225D01*
X431875Y275876D01*
X433071Y275758D01*
X434267Y275876D01*
X435417Y276225D01*
X436478Y276791D01*
X437407Y277554D01*
X438169Y278483D01*
X438736Y279543D01*
X439085Y280694D01*
X439203Y281890D01*
X439085Y283086D01*
X438736Y284236D01*
X438169Y285297D01*
X437407Y286226D01*
X436478Y286988D01*
X435417Y287555D01*
X434267Y287904D01*
X433071Y288022D01*
D02*
G37*
G36*
Y306526D02*
X431875Y306408D01*
X430724Y306059D01*
X429664Y305492D01*
X428735Y304730D01*
X427972Y303800D01*
X427406Y302740D01*
X427057Y301590D01*
X426939Y300394D01*
X427057Y299197D01*
X427406Y298047D01*
X427972Y296987D01*
X428735Y296058D01*
X429664Y295295D01*
X430724Y294729D01*
X431875Y294380D01*
X433071Y294262D01*
X434267Y294380D01*
X435417Y294729D01*
X436478Y295295D01*
X437407Y296058D01*
X437431Y296087D01*
X439137D01*
X444855Y290369D01*
Y272867D01*
X444963Y272045D01*
X445280Y271279D01*
X445304Y271247D01*
Y264313D01*
X444804Y264143D01*
X444466Y264584D01*
X443435Y265375D01*
X442234Y265873D01*
X441445Y265977D01*
Y261063D01*
Y256149D01*
X442234Y256253D01*
X443435Y256750D01*
X444466Y257542D01*
X444804Y257983D01*
X445304Y257813D01*
Y254915D01*
X441570Y251181D01*
X435827D01*
Y240945D01*
X446063D01*
Y246689D01*
X450728Y251353D01*
X451232Y252011D01*
X451550Y252777D01*
X451658Y253599D01*
Y272417D01*
X451550Y273239D01*
X451232Y274006D01*
X451208Y274037D01*
Y291685D01*
X451100Y292507D01*
X450783Y293273D01*
X450278Y293931D01*
X442699Y301510D01*
X442041Y302015D01*
X441275Y302332D01*
X440453Y302441D01*
X438827D01*
X438736Y302740D01*
X438169Y303800D01*
X437407Y304730D01*
X436478Y305492D01*
X435417Y306059D01*
X434267Y306408D01*
X433071Y306526D01*
D02*
G37*
G36*
X440445Y265977D02*
X439656Y265873D01*
X438455Y265375D01*
X437424Y264584D01*
X436632Y263553D01*
X436135Y262352D01*
X436031Y261563D01*
X440445D01*
Y265977D01*
D02*
G37*
G36*
Y260563D02*
X436031D01*
X436135Y259774D01*
X436632Y258573D01*
X437424Y257542D01*
X438455Y256750D01*
X439656Y256253D01*
X440445Y256149D01*
Y260563D01*
D02*
G37*
G36*
X330224Y253957D02*
Y250992D01*
X333189D01*
X333134Y251406D01*
X332782Y252257D01*
X332221Y252988D01*
X331489Y253549D01*
X330638Y253902D01*
X330224Y253957D01*
D02*
G37*
G36*
X329224D02*
X328811Y253902D01*
X327959Y253549D01*
X327228Y252988D01*
X326667Y252257D01*
X326314Y251406D01*
X326260Y250992D01*
X329224D01*
Y253957D01*
D02*
G37*
G36*
X333189Y249992D02*
X330224D01*
Y247028D01*
X330638Y247082D01*
X331489Y247435D01*
X332221Y247996D01*
X332782Y248727D01*
X333134Y249578D01*
X333189Y249992D01*
D02*
G37*
G36*
X329224D02*
X326260D01*
X326314Y249578D01*
X326667Y248727D01*
X327228Y247996D01*
X327959Y247435D01*
X328811Y247082D01*
X329224Y247028D01*
Y249992D01*
D02*
G37*
G36*
X336142Y275366D02*
X335181Y275240D01*
X334285Y274869D01*
X333516Y274279D01*
X332926Y273510D01*
X332555Y272615D01*
X332429Y271654D01*
X332555Y270693D01*
X332926Y269797D01*
X333516Y269028D01*
X334285Y268438D01*
X334428Y268379D01*
Y246385D01*
X334285Y246326D01*
X333516Y245736D01*
X332926Y244967D01*
X332555Y244071D01*
X332429Y243110D01*
X332555Y242149D01*
X332926Y241254D01*
X333516Y240485D01*
X334285Y239895D01*
X335181Y239524D01*
X336142Y239397D01*
X337103Y239524D01*
X337998Y239895D01*
X338767Y240485D01*
X339357Y241254D01*
X339728Y242149D01*
X339855Y243110D01*
X339728Y244071D01*
X339357Y244967D01*
X338767Y245736D01*
X337998Y246326D01*
X337856Y246385D01*
Y268379D01*
X337998Y268438D01*
X338767Y269028D01*
X339357Y269797D01*
X339728Y270693D01*
X339855Y271654D01*
X339728Y272615D01*
X339357Y273510D01*
X338767Y274279D01*
X337998Y274869D01*
X337103Y275240D01*
X336142Y275366D01*
D02*
G37*
G36*
X321850Y281272D02*
X320889Y281145D01*
X319994Y280774D01*
X319225Y280185D01*
X318635Y279415D01*
X318264Y278520D01*
X318138Y277559D01*
X318264Y276598D01*
X318635Y275703D01*
X319225Y274934D01*
X319994Y274344D01*
X320136Y274285D01*
Y243110D01*
X320267Y242454D01*
X320638Y241898D01*
X328865Y233672D01*
X328673Y233210D01*
X319501D01*
X315781Y236930D01*
Y265874D01*
X315923Y265933D01*
X316692Y266523D01*
X317282Y267292D01*
X317653Y268187D01*
X317780Y269148D01*
X317653Y270109D01*
X317282Y271005D01*
X316692Y271774D01*
X315923Y272364D01*
X315028Y272735D01*
X314067Y272861D01*
X313106Y272735D01*
X312210Y272364D01*
X311441Y271774D01*
X310852Y271005D01*
X310480Y270109D01*
X310354Y269148D01*
X310480Y268187D01*
X310852Y267292D01*
X311441Y266523D01*
X312210Y265933D01*
X312353Y265874D01*
Y236221D01*
X312483Y235564D01*
X312855Y235009D01*
X316553Y231310D01*
X316362Y230848D01*
X314883D01*
X308801Y236930D01*
Y270151D01*
X308943Y270210D01*
X309712Y270800D01*
X310302Y271569D01*
X310673Y272464D01*
X310800Y273425D01*
X310673Y274386D01*
X310302Y275282D01*
X309712Y276051D01*
X308943Y276641D01*
X308048Y277011D01*
X307262Y277115D01*
X307098Y277619D01*
X307614Y278016D01*
X308175Y278747D01*
X308528Y279598D01*
X308582Y280012D01*
X301654D01*
X301708Y279598D01*
X302061Y278747D01*
X302622Y278016D01*
X303353Y277455D01*
X304204Y277102D01*
X304892Y277011D01*
X305032Y276489D01*
X304461Y276051D01*
X303871Y275282D01*
X303500Y274386D01*
X303374Y273425D01*
X303500Y272464D01*
X303871Y271569D01*
X304461Y270800D01*
X305230Y270210D01*
X305373Y270151D01*
Y236221D01*
X305503Y235565D01*
X305875Y235009D01*
X312961Y227922D01*
X313517Y227550D01*
X314173Y227420D01*
X332611D01*
X332857Y226920D01*
X332531Y226494D01*
X332114Y225489D01*
X331972Y224410D01*
X332091Y223504D01*
X326774Y218187D01*
X326292Y217465D01*
X326123Y216614D01*
X326123Y216614D01*
Y210822D01*
X326123Y210822D01*
X326292Y209971D01*
X326774Y209249D01*
X329722Y206302D01*
X329722Y206301D01*
X330443Y205820D01*
X331294Y205650D01*
X331294Y205650D01*
X372844D01*
X372844Y205650D01*
X373695Y205820D01*
X374417Y206301D01*
X378344Y210229D01*
X378344Y210229D01*
X378826Y210950D01*
X378995Y211802D01*
X378995Y211802D01*
Y219233D01*
X379496Y219403D01*
X379643Y219210D01*
X384565Y214289D01*
X385223Y213784D01*
X385989Y213467D01*
X386811Y213359D01*
X388174D01*
X388839Y213083D01*
X389764Y212962D01*
X390689Y213083D01*
X391551Y213440D01*
X392291Y214008D01*
X392859Y214749D01*
X393216Y215610D01*
X393338Y216535D01*
X393216Y217460D01*
X392859Y218322D01*
X392291Y219062D01*
X391551Y219631D01*
X390689Y219988D01*
X389764Y220109D01*
X388839Y219988D01*
X388174Y219712D01*
X388127D01*
X387435Y220404D01*
X387626Y220866D01*
X393307D01*
Y227953D01*
X386221D01*
Y222272D01*
X385758Y222081D01*
X385067Y222773D01*
Y233822D01*
X385105Y233872D01*
X385476Y234767D01*
X385603Y235728D01*
X385476Y236689D01*
X385105Y237585D01*
X385067Y237635D01*
Y240158D01*
X384958Y240980D01*
X384641Y241746D01*
X384136Y242404D01*
X377610Y248930D01*
X377602Y248992D01*
X377231Y249888D01*
X376641Y250657D01*
X375872Y251247D01*
X374977Y251618D01*
X374016Y251744D01*
X373055Y251618D01*
X372159Y251247D01*
X371390Y250657D01*
X370800Y249888D01*
X370429Y248992D01*
X370303Y248031D01*
X370429Y247071D01*
X370800Y246175D01*
X371390Y245406D01*
X372159Y244816D01*
X373055Y244445D01*
X373118Y244437D01*
X378713Y238842D01*
Y237635D01*
X378674Y237585D01*
X378303Y236689D01*
X378205Y235941D01*
X377701D01*
X377602Y236689D01*
X377231Y237585D01*
X376641Y238354D01*
X375872Y238944D01*
X374977Y239315D01*
X374016Y239441D01*
X373055Y239315D01*
X372159Y238944D01*
X371390Y238354D01*
X370800Y237585D01*
X370429Y236689D01*
X370303Y235728D01*
X370429Y234767D01*
X370800Y233872D01*
X371390Y233103D01*
X372159Y232513D01*
X373055Y232142D01*
X374016Y232015D01*
X374048Y232020D01*
X374548Y231581D01*
Y212723D01*
X371923Y210098D01*
X370435D01*
X370094Y210457D01*
X370094Y210598D01*
Y213909D01*
X366142D01*
X362189D01*
Y210598D01*
X362189Y210457D01*
X361848Y210098D01*
X357841D01*
X357742Y210598D01*
X358226Y210799D01*
X359090Y211461D01*
X359753Y212325D01*
X360169Y213330D01*
X360311Y214409D01*
X360169Y215489D01*
X359753Y216494D01*
X359090Y217358D01*
X358226Y218020D01*
X357221Y218437D01*
X356142Y218579D01*
X355063Y218437D01*
X354057Y218020D01*
X353193Y217358D01*
X352531Y216494D01*
X352114Y215489D01*
X351972Y214409D01*
X352114Y213330D01*
X352531Y212325D01*
X353193Y211461D01*
X354057Y210799D01*
X354541Y210598D01*
X354442Y210098D01*
X347841D01*
X347742Y210598D01*
X348226Y210799D01*
X349090Y211461D01*
X349753Y212325D01*
X350169Y213330D01*
X350311Y214409D01*
X350169Y215489D01*
X349753Y216494D01*
X349090Y217358D01*
X348226Y218020D01*
X347221Y218437D01*
X346142Y218579D01*
X345063Y218437D01*
X344057Y218020D01*
X343193Y217358D01*
X342531Y216494D01*
X342114Y215489D01*
X341972Y214409D01*
X342114Y213330D01*
X342531Y212325D01*
X343193Y211461D01*
X344057Y210799D01*
X344542Y210598D01*
X344442Y210098D01*
X337841D01*
X337742Y210598D01*
X338227Y210799D01*
X339090Y211461D01*
X339753Y212325D01*
X340169Y213330D01*
X340311Y214409D01*
X340169Y215489D01*
X339753Y216494D01*
X339090Y217358D01*
X338227Y218020D01*
X337221Y218437D01*
X336142Y218579D01*
X335063Y218437D01*
X334057Y218020D01*
X333193Y217358D01*
X332531Y216494D01*
X332114Y215489D01*
X331972Y214409D01*
X332114Y213330D01*
X332531Y212325D01*
X333193Y211461D01*
X334057Y210799D01*
X334542Y210598D01*
X334442Y210098D01*
X332216D01*
X330570Y211743D01*
Y215693D01*
X335236Y220359D01*
X336142Y220240D01*
X337221Y220382D01*
X338227Y220798D01*
X339090Y221461D01*
X339753Y222325D01*
X340169Y223330D01*
X340311Y224410D01*
X340169Y225489D01*
X339753Y226494D01*
X339426Y226920D01*
X339673Y227420D01*
X340707D01*
X342268Y225859D01*
X342114Y225489D01*
X341972Y224410D01*
X342114Y223330D01*
X342531Y222325D01*
X343193Y221461D01*
X344057Y220798D01*
X345063Y220382D01*
X346142Y220240D01*
X347221Y220382D01*
X348226Y220798D01*
X349090Y221461D01*
X349753Y222325D01*
X350169Y223330D01*
X350311Y224410D01*
X350169Y225489D01*
X349753Y226494D01*
X349090Y227358D01*
X348226Y228020D01*
X347221Y228437D01*
X346142Y228579D01*
X345063Y228437D01*
X344692Y228283D01*
X343655Y229320D01*
X343846Y229782D01*
X348345D01*
X352268Y225859D01*
X352114Y225489D01*
X351972Y224410D01*
X352114Y223330D01*
X352531Y222325D01*
X353193Y221461D01*
X354057Y220798D01*
X355063Y220382D01*
X356142Y220240D01*
X357221Y220382D01*
X358226Y220798D01*
X359090Y221461D01*
X359753Y222325D01*
X360169Y223330D01*
X360311Y224410D01*
X360169Y225489D01*
X359753Y226494D01*
X359090Y227358D01*
X358226Y228020D01*
X357221Y228437D01*
X356142Y228579D01*
X355063Y228437D01*
X354692Y228283D01*
X351293Y231682D01*
X351484Y232144D01*
X355983D01*
X362268Y225859D01*
X362114Y225489D01*
X361972Y224410D01*
X362114Y223330D01*
X362531Y222325D01*
X363193Y221461D01*
X364057Y220798D01*
X365063Y220382D01*
X366142Y220240D01*
X367221Y220382D01*
X368227Y220798D01*
X369090Y221461D01*
X369753Y222325D01*
X370169Y223330D01*
X370311Y224410D01*
X370169Y225489D01*
X369753Y226494D01*
X369090Y227358D01*
X368227Y228020D01*
X367221Y228437D01*
X366142Y228579D01*
X365063Y228437D01*
X364692Y228283D01*
X357905Y235070D01*
X357349Y235442D01*
X356693Y235572D01*
X331812D01*
X323565Y243820D01*
Y274285D01*
X323707Y274344D01*
X324476Y274934D01*
X325066Y275703D01*
X325437Y276598D01*
X325563Y277559D01*
X325437Y278520D01*
X325066Y279415D01*
X324476Y280185D01*
X323707Y280774D01*
X322811Y281145D01*
X321850Y281272D01*
D02*
G37*
G36*
X351378Y297913D02*
X350417Y297786D01*
X349521Y297415D01*
X348752Y296825D01*
X348163Y296056D01*
X347792Y295161D01*
X347665Y294200D01*
X347792Y293239D01*
X348163Y292343D01*
X348752Y291575D01*
X349521Y290985D01*
X349664Y290926D01*
Y266301D01*
X349091Y265728D01*
X348720Y265172D01*
X348589Y264516D01*
Y262133D01*
X348447Y262074D01*
X347678Y261484D01*
X347088Y260715D01*
X346717Y259819D01*
X346590Y258858D01*
X346717Y257897D01*
X347088Y257002D01*
X347678Y256233D01*
X348447Y255643D01*
X349342Y255272D01*
X350020Y255183D01*
X350091Y255173D01*
Y254669D01*
X350020Y254660D01*
X349342Y254571D01*
X348447Y254200D01*
X347678Y253610D01*
X347088Y252841D01*
X346717Y251945D01*
X346590Y250984D01*
X346717Y250023D01*
X347088Y249128D01*
X347678Y248359D01*
X348447Y247769D01*
X349342Y247398D01*
X350303Y247271D01*
X351264Y247398D01*
X352160Y247769D01*
X352929Y248359D01*
X353519Y249128D01*
X353890Y250023D01*
X354016Y250984D01*
X353890Y251945D01*
X353831Y252088D01*
X357354Y255611D01*
X357725Y256167D01*
X357856Y256823D01*
Y285332D01*
X358232Y285662D01*
X358268Y285657D01*
X359229Y285784D01*
X360124Y286155D01*
X360893Y286745D01*
X361483Y287514D01*
X361854Y288409D01*
X361943Y289087D01*
X361953Y289157D01*
X362457D01*
X362466Y289087D01*
X362555Y288409D01*
X362926Y287514D01*
X363516Y286745D01*
X364285Y286155D01*
X364428Y286096D01*
Y279528D01*
X364558Y278872D01*
X364930Y278316D01*
X399861Y243385D01*
Y238511D01*
X399718Y238452D01*
X398949Y237862D01*
X398359Y237093D01*
X397989Y236197D01*
X397862Y235236D01*
X397989Y234275D01*
X398359Y233380D01*
X398949Y232611D01*
X399718Y232021D01*
X400614Y231650D01*
X401575Y231523D01*
X402536Y231650D01*
X403431Y232021D01*
X404200Y232611D01*
X404790Y233380D01*
X405161Y234275D01*
X405288Y235236D01*
X405161Y236197D01*
X404790Y237093D01*
X404200Y237862D01*
X403431Y238452D01*
X403289Y238511D01*
Y244094D01*
X403158Y244750D01*
X402787Y245306D01*
X367856Y280238D01*
Y286096D01*
X367998Y286155D01*
X368767Y286745D01*
X369357Y287514D01*
X369728Y288409D01*
X369855Y289370D01*
X369728Y290331D01*
X369357Y291227D01*
X368767Y291996D01*
X367998Y292585D01*
X367103Y292956D01*
X366142Y293083D01*
X365181Y292956D01*
X364285Y292585D01*
X363516Y291996D01*
X362926Y291227D01*
X362555Y290331D01*
X362466Y289653D01*
X362457Y289583D01*
X361953D01*
X361943Y289653D01*
X361854Y290331D01*
X361483Y291227D01*
X360893Y291996D01*
X360124Y292585D01*
X359229Y292956D01*
X358268Y293083D01*
X357307Y292956D01*
X356411Y292585D01*
X355642Y291996D01*
X355052Y291227D01*
X354681Y290331D01*
X354555Y289370D01*
X354681Y288409D01*
X354882Y287925D01*
X354558Y287440D01*
X354428Y286784D01*
Y259562D01*
X353928Y259529D01*
X353890Y259819D01*
X353519Y260715D01*
X352929Y261484D01*
X352160Y262074D01*
X352017Y262133D01*
Y263806D01*
X352590Y264378D01*
X352961Y264935D01*
X353092Y265591D01*
Y290926D01*
X353234Y290985D01*
X354003Y291575D01*
X354593Y292343D01*
X354964Y293239D01*
X355091Y294200D01*
X354964Y295161D01*
X354593Y296056D01*
X354003Y296825D01*
X353234Y297415D01*
X352339Y297786D01*
X351378Y297913D01*
D02*
G37*
G36*
X440551Y227953D02*
X433465D01*
Y220866D01*
X440551D01*
Y227953D01*
D02*
G37*
G36*
X375098Y293083D02*
X374137Y292956D01*
X373242Y292585D01*
X372473Y291996D01*
X371883Y291227D01*
X371512Y290331D01*
X371386Y289370D01*
X371512Y288409D01*
X371883Y287514D01*
X372473Y286745D01*
X373242Y286155D01*
X373384Y286096D01*
Y277461D01*
X373515Y276805D01*
X373886Y276249D01*
X411672Y238463D01*
Y227953D01*
X409842D01*
Y220866D01*
X416929D01*
Y227953D01*
X415100D01*
Y239173D01*
X414969Y239829D01*
X414598Y240385D01*
X376813Y278171D01*
Y286096D01*
X376955Y286155D01*
X377724Y286745D01*
X378314Y287514D01*
X378685Y288409D01*
X378811Y289370D01*
X378685Y290331D01*
X378314Y291227D01*
X377724Y291996D01*
X376955Y292585D01*
X376059Y292956D01*
X375098Y293083D01*
D02*
G37*
G36*
X370094Y218362D02*
X366642D01*
Y214909D01*
X370094D01*
Y218362D01*
D02*
G37*
G36*
X365642D02*
X362189D01*
Y214909D01*
X365642D01*
Y218362D01*
D02*
G37*
G36*
X437008Y220109D02*
X436083Y219988D01*
X435221Y219631D01*
X434481Y219062D01*
X433913Y218322D01*
X433556Y217460D01*
X433434Y216535D01*
X433556Y215610D01*
X433913Y214749D01*
X434481Y214008D01*
X435221Y213440D01*
X436083Y213083D01*
X437008Y212962D01*
X437933Y213083D01*
X438795Y213440D01*
X439535Y214008D01*
X440103Y214749D01*
X440460Y215610D01*
X440582Y216535D01*
X440460Y217460D01*
X440103Y218322D01*
X439535Y219062D01*
X438795Y219631D01*
X437933Y219988D01*
X437008Y220109D01*
D02*
G37*
G36*
X413386D02*
X412461Y219988D01*
X411599Y219631D01*
X410859Y219062D01*
X410291Y218322D01*
X409934Y217460D01*
X409812Y216535D01*
X409934Y215610D01*
X410291Y214749D01*
X410859Y214008D01*
X411599Y213440D01*
X412461Y213083D01*
X413386Y212962D01*
X414311Y213083D01*
X415173Y213440D01*
X415913Y214008D01*
X416481Y214749D01*
X416838Y215610D01*
X416960Y216535D01*
X416838Y217460D01*
X416481Y218322D01*
X415913Y219062D01*
X415173Y219631D01*
X414311Y219988D01*
X413386Y220109D01*
D02*
G37*
G36*
X282331D02*
X281406Y219988D01*
X280544Y219631D01*
X279804Y219062D01*
X279236Y218322D01*
X278879Y217460D01*
X278757Y216535D01*
X278879Y215610D01*
X279236Y214749D01*
X279804Y214008D01*
X280544Y213440D01*
X281406Y213083D01*
X282331Y212962D01*
X283256Y213083D01*
X284118Y213440D01*
X284858Y214008D01*
X285426Y214749D01*
X285783Y215610D01*
X285905Y216535D01*
X285783Y217460D01*
X285426Y218322D01*
X284858Y219062D01*
X284118Y219631D01*
X283256Y219988D01*
X282331Y220109D01*
D02*
G37*
G36*
X259842D02*
X258917Y219988D01*
X258056Y219631D01*
X257315Y219062D01*
X256748Y218322D01*
X256390Y217460D01*
X256269Y216535D01*
X256390Y215610D01*
X256748Y214749D01*
X257315Y214008D01*
X258056Y213440D01*
X258917Y213083D01*
X259842Y212962D01*
X260768Y213083D01*
X261629Y213440D01*
X262370Y214008D01*
X262938Y214749D01*
X263295Y215610D01*
X263416Y216535D01*
X263295Y217460D01*
X262938Y218322D01*
X262370Y219062D01*
X261629Y219631D01*
X260768Y219988D01*
X259842Y220109D01*
D02*
G37*
G36*
X236221D02*
X235296Y219988D01*
X234434Y219631D01*
X233693Y219062D01*
X233125Y218322D01*
X232768Y217460D01*
X232647Y216535D01*
X232768Y215610D01*
X233125Y214749D01*
X233693Y214008D01*
X234434Y213440D01*
X235296Y213083D01*
X236221Y212962D01*
X237145Y213083D01*
X238007Y213440D01*
X238748Y214008D01*
X239316Y214749D01*
X239673Y215610D01*
X239794Y216535D01*
X239673Y217460D01*
X239316Y218322D01*
X238748Y219062D01*
X238007Y219631D01*
X237145Y219988D01*
X236221Y220109D01*
D02*
G37*
G36*
X414567Y391273D02*
X413280Y391103D01*
X412080Y390606D01*
X411050Y389816D01*
X410260Y388786D01*
X409763Y387586D01*
X409593Y386299D01*
X409763Y385012D01*
X410260Y383812D01*
X411050Y382782D01*
X412080Y381992D01*
X413280Y381495D01*
X414567Y381326D01*
X414992Y381382D01*
X418083Y378290D01*
Y218442D01*
X418044Y218392D01*
X417673Y217496D01*
X417547Y216535D01*
X417673Y215575D01*
X418044Y214679D01*
X418635Y213910D01*
X419403Y213320D01*
X420299Y212949D01*
X421260Y212823D01*
X422221Y212949D01*
X423116Y213320D01*
X423885Y213910D01*
X424475Y214679D01*
X424846Y215575D01*
X424973Y216535D01*
X424846Y217496D01*
X424475Y218392D01*
X424437Y218442D01*
Y379606D01*
X424328Y380429D01*
X424011Y381195D01*
X423506Y381853D01*
X419485Y385874D01*
X419541Y386299D01*
X419371Y387586D01*
X418874Y388786D01*
X418084Y389816D01*
X417054Y390606D01*
X415854Y391103D01*
X414567Y391273D01*
D02*
G37*
G36*
X208661Y215782D02*
X207272Y215646D01*
X205936Y215240D01*
X204705Y214582D01*
X203626Y213697D01*
X202741Y212618D01*
X202083Y211386D01*
X201677Y210051D01*
X201540Y208661D01*
X201677Y207272D01*
X202083Y205936D01*
X202741Y204705D01*
X203626Y203626D01*
X204705Y202741D01*
X205936Y202083D01*
X207272Y201677D01*
X208661Y201540D01*
X210051Y201677D01*
X211386Y202083D01*
X212618Y202741D01*
X213697Y203626D01*
X214582Y204705D01*
X215240Y205936D01*
X215646Y207272D01*
X215782Y208661D01*
X215646Y210051D01*
X215240Y211386D01*
X214582Y212618D01*
X213697Y213697D01*
X212618Y214582D01*
X211386Y215240D01*
X210051Y215646D01*
X208661Y215782D01*
D02*
G37*
%LPD*%
D14*
X309252Y405158D02*
Y413386D01*
Y405158D02*
X333819Y380591D01*
Y364121D02*
Y380591D01*
X336614Y387795D02*
Y401772D01*
X325000Y413386D02*
X336614Y401772D01*
X306102Y306102D02*
Y312008D01*
Y306102D02*
X309793Y302411D01*
X315510Y320000D02*
Y331258D01*
X305118Y280512D02*
X316494Y291888D01*
Y308071D02*
Y308221D01*
X311000Y313715D02*
X316494Y308221D01*
Y291888D02*
Y308071D01*
Y280512D02*
X322250Y286268D01*
X305118Y280512D02*
X316494D01*
X309793Y301000D02*
Y302411D01*
X311000Y313715D02*
Y329000D01*
X297441Y331677D02*
X305118Y324000D01*
X297441Y331677D02*
Y387598D01*
X315510Y331258D02*
X326772Y342520D01*
X324000Y321850D02*
Y335811D01*
X330709Y342520D01*
X336142Y243110D02*
Y271654D01*
X321850Y243110D02*
Y277559D01*
Y243110D02*
X331102Y233858D01*
X356142Y256823D02*
Y286784D01*
X351378Y265591D02*
Y294200D01*
X350303Y264516D02*
X351378Y265591D01*
X350303Y258858D02*
Y264516D01*
X356142Y286784D02*
X358268Y288910D01*
Y289370D01*
X350303Y250984D02*
X356142Y256823D01*
X307087Y236221D02*
X314173Y229134D01*
X331102Y233858D02*
X356693D01*
X349055Y231496D02*
X356142Y224410D01*
X341417Y229134D02*
X346142Y224410D01*
X314173Y229134D02*
X341417D01*
X314067Y236221D02*
Y269148D01*
X318791Y231496D02*
X349055D01*
X314067Y236221D02*
X318791Y231496D01*
X356693Y233858D02*
X366142Y224410D01*
X307087Y236221D02*
Y273425D01*
X391732Y288386D02*
X413386Y310039D01*
X391732Y280512D02*
Y288386D01*
X374016Y347193D02*
Y393701D01*
X360819Y333996D02*
X374016Y347193D01*
X375098Y277461D02*
X413386Y239173D01*
X375098Y277461D02*
Y289370D01*
X378110Y326437D02*
Y372697D01*
X362205Y310531D02*
X378110Y326437D01*
X352362Y321850D02*
Y395512D01*
X366142Y279528D02*
X401575Y244094D01*
X366142Y279528D02*
Y289370D01*
X344646Y280512D02*
Y300039D01*
X344488Y300197D02*
X344646Y300039D01*
X387795Y405512D02*
X392717Y400591D01*
X352362Y395512D02*
X362362Y405512D01*
X334683Y337402D02*
X342362Y345081D01*
Y405512D01*
X255906D02*
X259842D01*
X264764Y400591D01*
X240158Y397638D02*
X287402D01*
X236221Y401575D02*
X240158Y397638D01*
X236221Y401575D02*
X236221D01*
X232283Y405512D02*
X236221Y401575D01*
Y224410D02*
Y232283D01*
X251969Y232283D02*
X259842Y224410D01*
X295276Y213583D02*
Y275590D01*
X275590Y224410D02*
X282331D01*
X273622Y281465D02*
X282331Y290174D01*
X273622Y244094D02*
Y281465D01*
X282331Y290174D02*
Y316779D01*
X282480Y316929D01*
X277409Y290754D02*
Y309205D01*
X269685Y316929D02*
X277409Y309205D01*
X267717Y259842D02*
Y281061D01*
X277409Y290754D01*
X259842Y278543D02*
X273622Y292322D01*
X255906Y284449D02*
X268701Y297244D01*
X259842Y240158D02*
Y278543D01*
Y240158D02*
X275590Y224410D01*
X251969Y267717D02*
X255906Y271654D01*
Y284449D01*
X251969Y232283D02*
Y267717D01*
X295276Y283465D02*
Y294291D01*
X300197Y299213D01*
Y317913D01*
X386811Y381398D02*
Y393701D01*
X378110Y372697D02*
X386811Y381398D01*
X392717Y342520D02*
Y400591D01*
X300197Y381890D02*
X306102Y387795D01*
X298587Y398264D02*
X311628D01*
X330709Y342520D02*
Y379183D01*
X311628Y398264D02*
X330709Y379183D01*
X291339Y405512D02*
X298587Y398264D01*
X279528Y405512D02*
X291339D01*
X295849Y394931D02*
X309793D01*
X326772Y377953D01*
Y342520D02*
Y377953D01*
X264764Y400591D02*
X290189D01*
X295849Y394931D01*
X300197Y349133D02*
Y381890D01*
Y349133D02*
X304224Y345106D01*
X287402Y397638D02*
X297441Y387598D01*
X304224Y344488D02*
Y345106D01*
X293398Y324713D02*
Y360539D01*
X285433Y368504D02*
Y387795D01*
Y368504D02*
X293398Y360539D01*
Y324713D02*
X300197Y317913D01*
X305118Y375984D02*
X312099Y382965D01*
X312007Y359252D02*
X318898Y366142D01*
Y377953D01*
X305118Y355315D02*
Y375984D01*
Y355315D02*
X308071Y352362D01*
X333819Y364121D02*
X336614Y361326D01*
Y355405D02*
Y361326D01*
X334646Y337402D02*
X334683D01*
X267865Y330245D02*
X275590Y322520D01*
X267865Y330245D02*
Y364110D01*
X269685Y316929D02*
Y316929D01*
X236221Y232283D02*
X244094Y240158D01*
Y267717D02*
X251969Y275590D01*
X244094Y240158D02*
Y267717D01*
X251969Y275590D02*
Y300197D01*
X413386Y224410D02*
Y239173D01*
X401575Y235236D02*
Y244094D01*
X322250Y286268D02*
X336465D01*
X336614Y286417D01*
X225692Y282000D02*
X233563D01*
X230939Y279376D01*
X233563Y276752D01*
X225692D01*
X230939Y272817D02*
Y270193D01*
X229627Y268881D01*
X225692D01*
Y272817D01*
X227004Y274129D01*
X228315Y272817D01*
Y268881D01*
X225692Y266257D02*
Y262321D01*
X227004Y261009D01*
X228315Y262321D01*
Y264945D01*
X229627Y266257D01*
X230939Y264945D01*
Y261009D01*
X225692Y258386D02*
Y254450D01*
X227004Y253138D01*
X228315Y254450D01*
Y257074D01*
X229627Y258386D01*
X230939Y257074D01*
Y253138D01*
Y249202D02*
Y246578D01*
X229627Y245266D01*
X225692D01*
Y249202D01*
X227004Y250514D01*
X228315Y249202D01*
Y245266D01*
X230939Y242643D02*
X225692D01*
X228315D01*
X229627Y241331D01*
X230939Y240019D01*
Y238707D01*
X221717Y282000D02*
X213846D01*
Y276752D01*
Y272817D02*
Y270193D01*
X215158Y268881D01*
X217781D01*
X219093Y270193D01*
Y272817D01*
X217781Y274129D01*
X215158D01*
X213846Y272817D01*
X219093Y266257D02*
X213846D01*
X216470D01*
X217781Y264945D01*
X219093Y263633D01*
Y262321D01*
Y257074D02*
Y254450D01*
X217781Y253138D01*
X213846D01*
Y257074D01*
X215158Y258386D01*
X216470Y257074D01*
Y253138D01*
X213846Y250514D02*
X219093D01*
Y246578D01*
X217781Y245266D01*
X213846D01*
X220405Y241331D02*
X219093D01*
Y242643D01*
Y240019D01*
Y241331D01*
X215158D01*
X213846Y240019D01*
X209872Y282000D02*
X202000D01*
Y278064D01*
X203312Y276752D01*
X204624D01*
X205936Y278064D01*
Y282000D01*
Y278064D01*
X207248Y276752D01*
X208560D01*
X209872Y278064D01*
Y282000D01*
X202000Y274129D02*
X209872D01*
X207248Y271505D01*
X209872Y268881D01*
X202000D01*
X209872Y261009D02*
Y266257D01*
X202000D01*
Y261009D01*
X205936Y266257D02*
Y263633D01*
X202000Y250514D02*
X207248D01*
X209872Y247890D01*
X207248Y245266D01*
X202000D01*
X205936D01*
Y250514D01*
X209872Y242643D02*
X203312D01*
X202000Y241331D01*
Y238707D01*
X203312Y237395D01*
X209872D01*
Y234771D02*
Y229523D01*
Y232147D01*
X202000D01*
D19*
X472441Y202441D02*
Y427559D01*
X466850Y196850D02*
X472441Y202441D01*
X202150Y196850D02*
X466850D01*
X196850Y202150D02*
X202150Y196850D01*
X196850Y202150D02*
Y427850D01*
X202071Y433071D01*
X466929D01*
X472441Y427559D01*
D32*
X325000Y413386D02*
D03*
D33*
X317126D02*
D03*
X301378D02*
D03*
X309252D02*
D03*
X389764Y216535D02*
D03*
Y208661D02*
D03*
X437008Y216535D02*
D03*
Y208661D02*
D03*
X413386Y216535D02*
D03*
Y208661D02*
D03*
X236221Y216535D02*
D03*
Y208661D02*
D03*
X259842Y216535D02*
D03*
Y208661D02*
D03*
X282331Y216535D02*
D03*
Y208661D02*
D03*
X436673Y413386D02*
D03*
Y421260D02*
D03*
X413386Y413386D02*
D03*
Y421260D02*
D03*
X387795Y413386D02*
D03*
Y421260D02*
D03*
X232283Y413386D02*
D03*
Y421260D02*
D03*
X255906Y413386D02*
D03*
Y421260D02*
D03*
X279528Y413386D02*
D03*
Y421260D02*
D03*
D34*
X336142Y224410D02*
D03*
Y214409D02*
D03*
X346142Y224410D02*
D03*
Y214409D02*
D03*
X356142Y224410D02*
D03*
Y214409D02*
D03*
X366142Y224410D02*
D03*
X359252Y360965D02*
D03*
Y370965D02*
D03*
X362362Y405512D02*
D03*
X352362D02*
D03*
X342362D02*
D03*
D35*
X366142Y214409D02*
D03*
X372362Y405512D02*
D03*
D36*
X464567Y376299D02*
D03*
Y366299D02*
D03*
Y346299D02*
D03*
Y356299D02*
D03*
Y386299D02*
D03*
X402067Y336299D02*
D03*
Y346299D02*
D03*
Y356299D02*
D03*
Y366299D02*
D03*
Y376299D02*
D03*
Y386299D02*
D03*
X414567D02*
D03*
D37*
X464567Y336299D02*
D03*
D38*
X389764Y224410D02*
D03*
X437008D02*
D03*
X413386D02*
D03*
X236221D02*
D03*
X259842D02*
D03*
X282331D02*
D03*
X436673Y405512D02*
D03*
X413386D02*
D03*
X387795D02*
D03*
X232283D02*
D03*
X255906D02*
D03*
X279528D02*
D03*
D39*
X359252Y380965D02*
D03*
D40*
X205591Y312520D02*
D03*
Y322520D02*
D03*
Y332520D02*
D03*
Y342520D02*
D03*
Y352520D02*
D03*
Y362520D02*
D03*
X275590Y352520D02*
D03*
Y342520D02*
D03*
Y332520D02*
D03*
Y322520D02*
D03*
X411024Y321260D02*
D03*
Y281102D02*
D03*
D41*
X440945Y261063D02*
D03*
D42*
Y246063D02*
D03*
D43*
X433071Y318898D02*
D03*
D44*
Y300394D02*
D03*
Y281890D02*
D03*
D45*
X208661Y208661D02*
D03*
X460630D02*
D03*
Y421260D02*
D03*
X208661D02*
D03*
D46*
X336614Y387795D02*
D03*
X306102Y312008D02*
D03*
X315510Y320000D02*
D03*
X316494Y308071D02*
D03*
X305118Y280512D02*
D03*
X309793Y301000D02*
D03*
X305118Y324000D02*
D03*
X311000Y329000D02*
D03*
X324000Y321850D02*
D03*
X409449Y255906D02*
D03*
X466535Y266732D02*
D03*
X374016Y248031D02*
D03*
X336142Y243110D02*
D03*
X321850Y277559D02*
D03*
X336142Y271654D02*
D03*
X350303Y258858D02*
D03*
Y250984D02*
D03*
X374016Y235728D02*
D03*
X413386Y310039D02*
D03*
X421260Y216535D02*
D03*
X452756Y307087D02*
D03*
X360819Y333996D02*
D03*
X375098Y289370D02*
D03*
X362205Y310531D02*
D03*
X366803Y356299D02*
D03*
X352362Y321850D02*
D03*
X366142Y289370D02*
D03*
X351378Y294200D02*
D03*
X358268Y289370D02*
D03*
X391732Y280512D02*
D03*
X344646D02*
D03*
X385827Y276287D02*
D03*
X295276Y213583D02*
D03*
X273622Y244094D02*
D03*
Y292322D02*
D03*
X267717Y259842D02*
D03*
X268701Y297244D02*
D03*
X289370Y244094D02*
D03*
Y289370D02*
D03*
X295276Y283465D02*
D03*
X307087Y273425D02*
D03*
X295276Y275590D02*
D03*
X314067Y269148D02*
D03*
X386811Y393701D02*
D03*
X374016D02*
D03*
X385827Y350394D02*
D03*
X392717Y342520D02*
D03*
X306102Y387795D02*
D03*
X285433D02*
D03*
X312099Y382965D02*
D03*
X318898Y377953D02*
D03*
X287402Y337598D02*
D03*
X282480Y316929D02*
D03*
X304224Y344488D02*
D03*
X312007Y359252D02*
D03*
X308071Y352362D02*
D03*
X336614Y355405D02*
D03*
X267865Y364110D02*
D03*
X269685Y316929D02*
D03*
X300197Y317913D02*
D03*
X251969Y300197D02*
D03*
X329724Y250492D02*
D03*
X381890Y235728D02*
D03*
X401575Y235236D02*
D03*
X334646Y337402D02*
D03*
X402559Y413386D02*
D03*
X444882Y375984D02*
D03*
Y336614D02*
D03*
X336614Y286417D02*
D03*
X344488Y300197D02*
D03*
D47*
X466535Y266732D02*
Y320866D01*
Y230315D02*
Y266732D01*
X452756Y334646D02*
X466535Y320866D01*
X444882Y208661D02*
X466535Y230315D01*
X381890Y235728D02*
Y240158D01*
X374016Y248031D02*
X381890Y240158D01*
X282331Y208661D02*
X292764D01*
X299851Y201575D02*
X382464D01*
X259842Y208661D02*
X282331D01*
X382464Y201575D02*
X389551Y208661D01*
X292764D02*
X299851Y201575D01*
X389551Y208661D02*
X413386D01*
X421260Y216535D02*
Y379606D01*
X414567Y386299D02*
X421260Y379606D01*
X452756Y334646D02*
Y386368D01*
X456693Y390305D02*
Y405512D01*
X452756Y386368D02*
X456693Y390305D01*
X448481Y253599D02*
Y272417D01*
X440453Y299264D02*
X448032Y291685D01*
Y272867D02*
X448481Y272417D01*
X440945Y246063D02*
X448481Y253599D01*
X433071Y300394D02*
X434201Y299264D01*
X440453D01*
X448032Y272867D02*
Y291685D01*
X454528Y407677D02*
Y407677D01*
Y407677D02*
X456693Y405512D01*
X440945Y421260D02*
X454528Y407677D01*
X436673Y421260D02*
X440945D01*
X413386D02*
X436673D01*
X387795D02*
X413386D01*
X437008Y208661D02*
X444882D01*
X413386D02*
X437008D01*
X232283Y421260D02*
X255906D01*
X279528D01*
X283465D01*
X287402Y425197D02*
X383858D01*
X387795Y421260D01*
X236221Y208661D02*
X259842D01*
X205591Y362520D02*
Y394567D01*
X224410Y413386D02*
X232283D01*
X205591Y394567D02*
X224410Y413386D01*
X283465Y421260D02*
X287402Y425197D01*
X381890Y221457D02*
Y235728D01*
Y221457D02*
X386811Y216535D01*
X389764D01*
X402067Y386299D02*
Y412894D01*
X402559Y413386D01*
D48*
X406496Y255906D02*
X409449D01*
X386114Y276287D02*
X406496Y255906D01*
X374016Y235728D02*
Y235728D01*
X376772Y211802D02*
Y232972D01*
X374016Y235728D02*
X376772Y232972D01*
X372844Y207874D02*
X376772Y211802D01*
X331294Y207874D02*
X372844D01*
X329724Y250492D02*
Y279240D01*
X336614Y286130D01*
Y286417D01*
X328346Y210822D02*
X331294Y207874D01*
X328346Y210822D02*
Y216614D01*
X336142Y224410D01*
X289370Y289370D02*
Y334927D01*
Y244094D02*
Y289370D01*
X445866Y313976D02*
X452756Y307087D01*
X445866Y313976D02*
Y335630D01*
X444882Y336614D02*
X445866Y335630D01*
X359252Y370965D02*
X366803Y363413D01*
Y356299D02*
Y363413D01*
X385827Y276287D02*
X386114D01*
X385827D02*
Y350394D01*
X287402Y337598D02*
Y358071D01*
Y336895D02*
Y337598D01*
Y336895D02*
X289370Y334927D01*
X275394Y370079D02*
X287402Y358071D01*
X223150Y370079D02*
X275394D01*
X205591Y352520D02*
X223150Y370079D01*
X444882Y336614D02*
Y375984D01*
M02*
