G04*
G04 #@! TF.GenerationSoftware,Altium Limited,Altium Designer,20.0.13 (296)*
G04*
G04 Layer_Color=65535*
%FSLAX25Y25*%
%MOIN*%
G70*
G01*
G75*
%ADD10C,0.00984*%
%ADD11C,0.00701*%
%ADD12C,0.02362*%
%ADD13C,0.00787*%
%ADD14C,0.01000*%
%ADD15C,0.00700*%
%ADD16C,0.00400*%
%ADD17C,0.00394*%
%ADD18R,0.11811X0.01959*%
%ADD19C,0.01968*%
D10*
X407087Y266142D02*
G03*
X407087Y266142I-492J0D01*
G01*
X293012Y332480D02*
G03*
X293012Y332480I-492J0D01*
G01*
D11*
X372362Y454724D02*
G03*
X370000Y457087I-2362J0D01*
G01*
X344724D02*
G03*
X342362Y454724I0J-2362D01*
G01*
D12*
X301969Y329134D02*
G03*
X301969Y329134I-1181J0D01*
G01*
D13*
X293701Y408071D02*
X332677D01*
Y437992D01*
X293701Y408071D02*
Y437992D01*
X332677D01*
X404331Y242717D02*
X414567D01*
X404331Y269094D02*
X414567D01*
Y242717D02*
Y269094D01*
X404331Y242717D02*
Y269094D01*
X354252Y385965D02*
X364252D01*
Y355965D02*
Y385965D01*
X354252Y355965D02*
X364252D01*
X354252D02*
Y385965D01*
X403543Y277165D02*
X418504D01*
X403543D02*
Y325197D01*
X418504D01*
Y277165D02*
Y325197D01*
X296850Y296850D02*
X333071D01*
X296850Y333071D02*
X333071D01*
Y296850D02*
Y333071D01*
X296850Y296850D02*
Y333071D01*
D14*
X216142Y267913D02*
Y273425D01*
X201969D02*
X216142D01*
X201969Y267913D02*
Y273425D01*
Y267913D02*
X216142D01*
X203937D02*
Y273425D01*
X323425Y220276D02*
Y234449D01*
X316339Y220276D02*
X323425D01*
X316339D02*
Y234449D01*
X323425D01*
X316339Y247835D02*
Y262008D01*
X323425D01*
Y247835D02*
Y262008D01*
X316339Y247835D02*
X323425D01*
X294685Y218701D02*
X313583D01*
X294685D02*
Y263583D01*
X313583D01*
Y218701D02*
Y263583D01*
X342913Y324606D02*
Y338779D01*
X350000D01*
Y324606D02*
Y338779D01*
X342913Y324606D02*
X350000D01*
X396067Y330299D02*
X470567D01*
X396067Y392299D02*
X470567D01*
Y330299D02*
Y392299D01*
X396067Y330299D02*
Y392299D01*
X374803Y355709D02*
Y362795D01*
Y355709D02*
X388976D01*
Y362795D01*
X374803D02*
X388976D01*
X380118Y325197D02*
Y332283D01*
X365945D02*
X380118D01*
X365945Y325197D02*
Y332283D01*
Y325197D02*
X380118D01*
X365945Y313386D02*
Y320473D01*
Y313386D02*
X380118D01*
Y320473D01*
X365945D02*
X380118D01*
Y301575D02*
Y308661D01*
X365945D02*
X380118D01*
X365945Y301575D02*
Y308661D01*
Y301575D02*
X380118D01*
X463779Y319291D02*
Y326378D01*
X449606D02*
X463779D01*
X449606Y319291D02*
Y326378D01*
Y319291D02*
X463779D01*
X221260Y267126D02*
Y274213D01*
Y267126D02*
X235433D01*
Y274213D01*
X221260D02*
X235433D01*
X216535Y240158D02*
X224410D01*
Y255906D01*
X216535D02*
X224410D01*
X216535Y240158D02*
Y255906D01*
X205118Y240945D02*
Y255118D01*
X212205D01*
Y240945D02*
Y255118D01*
X205118Y240945D02*
X212205D01*
X378543Y232677D02*
X397047D01*
X378543Y200394D02*
Y232677D01*
X397047Y200394D02*
Y232677D01*
X378543Y200394D02*
X397047D01*
X389370Y252756D02*
Y266929D01*
X382283Y252756D02*
X389370D01*
X382283D02*
Y266929D01*
X389370D01*
X377559Y252756D02*
Y266929D01*
X370472Y252756D02*
X377559D01*
X370472D02*
Y266929D01*
X377559D01*
X351370Y231496D02*
X358457D01*
Y245669D01*
X351370D02*
X358457D01*
X351370Y231496D02*
Y245669D01*
X341339Y231496D02*
X348425D01*
Y245669D01*
X341339D02*
X348425D01*
X341339Y231496D02*
Y245669D01*
X200591Y285020D02*
Y390020D01*
X280591D01*
Y285020D02*
Y390020D01*
X200591Y285020D02*
X280591D01*
X436221Y237008D02*
X472441D01*
X436221Y270118D02*
X472441D01*
Y237008D02*
Y270118D01*
X436221Y237008D02*
Y270118D01*
X425787Y232677D02*
X444291D01*
X425787Y200394D02*
Y232677D01*
X444291Y200394D02*
Y232677D01*
X425787Y200394D02*
X444291D01*
X402165Y232677D02*
X420669D01*
X402165Y200394D02*
Y232677D01*
X420669Y200394D02*
Y232677D01*
X402165Y200394D02*
X420669D01*
X225000Y232677D02*
X243504D01*
X225000Y200394D02*
Y232677D01*
X243504Y200394D02*
Y232677D01*
X225000Y200394D02*
X243504D01*
X248622Y232677D02*
X267126D01*
X248622Y200394D02*
Y232677D01*
X267126Y200394D02*
Y232677D01*
X248622Y200394D02*
X267126D01*
X271110Y232677D02*
X289614D01*
X271110Y200394D02*
Y232677D01*
X289614Y200394D02*
Y232677D01*
X271110Y200394D02*
X289614D01*
X429390Y397244D02*
X447894D01*
Y397244D02*
Y429528D01*
X429390Y397244D02*
Y429528D01*
X429390D02*
X447894D01*
X406102Y397244D02*
X424606D01*
Y397244D02*
Y429528D01*
X406102Y397244D02*
Y429528D01*
X406102D02*
X424606D01*
X380512Y397244D02*
X399016D01*
Y397244D02*
Y429528D01*
X380512Y397244D02*
Y429528D01*
X380512D02*
X399016D01*
X225000Y397244D02*
X243504D01*
Y397244D02*
Y429528D01*
X225000Y397244D02*
Y429528D01*
X225000D02*
X243504D01*
X248622Y397244D02*
X267126D01*
Y397244D02*
Y429528D01*
X248622Y397244D02*
Y429528D01*
X248622D02*
X267126D01*
X272244Y397244D02*
X290748D01*
Y397244D02*
Y429528D01*
X272244Y397244D02*
Y429528D01*
X272244D02*
X290748D01*
X445669Y275394D02*
Y325394D01*
X420472Y275394D02*
X445669D01*
X420472Y325394D02*
X445669D01*
X420472Y275394D02*
Y325394D01*
X383169Y316929D02*
X386713D01*
X399311D02*
X402854D01*
X383169Y324409D02*
X402854D01*
X383169Y285827D02*
Y324409D01*
X402854Y285827D02*
Y324409D01*
X383169Y285827D02*
X402854D01*
X383465Y365551D02*
X392126D01*
Y387598D01*
X383465D02*
X392126D01*
X383465Y365551D02*
Y387598D01*
X451968Y308268D02*
Y313779D01*
X450000Y308268D02*
X464173D01*
X450000D02*
Y313779D01*
X464173D01*
Y308268D02*
Y313779D01*
X451968Y296457D02*
Y301968D01*
X450000Y296457D02*
X464173D01*
X450000D02*
Y301968D01*
X464173D01*
Y296457D02*
Y301968D01*
X449606Y283858D02*
X463779D01*
X449606D02*
Y290945D01*
X463779D01*
Y283858D02*
Y290945D01*
X449606Y279134D02*
X463779D01*
Y272047D02*
Y279134D01*
X449606Y272047D02*
X463779D01*
X449606D02*
Y279134D01*
X342149Y362936D02*
X341361Y363723D01*
X339787D01*
X339000Y362936D01*
Y359787D01*
X339787Y359000D01*
X341361D01*
X342149Y359787D01*
Y361361D01*
X340574D01*
X343723Y359000D02*
Y363723D01*
X346871Y359000D01*
Y363723D01*
X348446D02*
Y359000D01*
X350807D01*
X351594Y359787D01*
Y362936D01*
X350807Y363723D01*
X348446D01*
X339000Y372936D02*
X339787Y373723D01*
X341361D01*
X342149Y372936D01*
Y372149D01*
X341361Y371361D01*
X340574D01*
X341361D01*
X342149Y370574D01*
Y369787D01*
X341361Y369000D01*
X339787D01*
X339000Y369787D01*
X343723Y373723D02*
Y370574D01*
X345297Y369000D01*
X346871Y370574D01*
Y373723D01*
X348446Y372936D02*
X349233Y373723D01*
X350807D01*
X351594Y372936D01*
Y372149D01*
X350807Y371361D01*
X350020D01*
X350807D01*
X351594Y370574D01*
Y369787D01*
X350807Y369000D01*
X349233D01*
X348446Y369787D01*
X346511Y383676D02*
X343362D01*
Y381314D01*
X344936Y382101D01*
X345724D01*
X346511Y381314D01*
Y379740D01*
X345724Y378953D01*
X344149D01*
X343362Y379740D01*
X348085Y383676D02*
Y380527D01*
X349659Y378953D01*
X351234Y380527D01*
Y383676D01*
X240961Y381146D02*
X244959D01*
X246959Y379146D01*
X244959Y377147D01*
X240961D01*
X243960D01*
Y381146D01*
X246959Y371149D02*
X240961D01*
Y374148D01*
X241960Y375148D01*
X243960D01*
X244959Y374148D01*
Y371149D01*
Y368150D02*
Y366150D01*
X243960Y365151D01*
X240961D01*
Y368150D01*
X241960Y369149D01*
X242960Y368150D01*
Y365151D01*
X240961Y362152D02*
X245959D01*
X243960D01*
Y363152D01*
Y361152D01*
Y362152D01*
X245959D01*
X246959Y361152D01*
X244959Y358153D02*
X240961D01*
X242960D01*
X243960Y357153D01*
X244959Y356154D01*
Y355154D01*
Y352155D02*
X241960D01*
X240961Y351155D01*
Y348156D01*
X244959D01*
X240961Y346157D02*
Y344158D01*
Y345157D01*
X244959D01*
Y346157D01*
X245959Y340159D02*
X244959D01*
Y341159D01*
Y339159D01*
Y340159D01*
X241960D01*
X240961Y339159D01*
X246959Y330162D02*
X240961D01*
Y327163D01*
X241960Y326164D01*
X242960D01*
X243960Y327163D01*
Y330162D01*
Y327163D01*
X244959Y326164D01*
X245959D01*
X246959Y327163D01*
Y330162D01*
X240961Y324164D02*
X246959D01*
X240961Y320165D01*
X246959D01*
Y315167D02*
Y317166D01*
X245959Y318166D01*
X241960D01*
X240961Y317166D01*
Y315167D01*
X241960Y314167D01*
X245959D01*
X246959Y315167D01*
X245959Y312168D02*
X246959Y311168D01*
Y309169D01*
X245959Y308169D01*
X241960D01*
X240961Y309169D01*
Y311168D01*
X241960Y312168D01*
X245959D01*
X246959Y302171D02*
Y306170D01*
X243960D01*
X244959Y304171D01*
Y303171D01*
X243960Y302171D01*
X241960D01*
X240961Y303171D01*
Y305170D01*
X241960Y306170D01*
X246959Y296173D02*
Y300172D01*
X243960D01*
X244959Y298172D01*
Y297173D01*
X243960Y296173D01*
X241960D01*
X240961Y297173D01*
Y299172D01*
X241960Y300172D01*
X415746Y301851D02*
Y305000D01*
X413385D01*
Y303426D01*
Y305000D01*
X411024D01*
X415746Y300277D02*
X411811D01*
X411024Y299490D01*
Y297916D01*
X411811Y297129D01*
X415746D01*
X414959Y292406D02*
X415746Y293193D01*
Y294767D01*
X414959Y295554D01*
X414172D01*
X413385Y294767D01*
Y293193D01*
X412598Y292406D01*
X411811D01*
X411024Y293193D01*
Y294767D01*
X411811Y295554D01*
X415746Y287683D02*
Y290831D01*
X411024D01*
Y287683D01*
X413385Y290831D02*
Y289257D01*
X302000Y401723D02*
Y397000D01*
X305149D01*
X306723Y401723D02*
X308297D01*
X307510D01*
Y397000D01*
X306723D01*
X308297D01*
X310659Y401723D02*
Y397000D01*
X313020D01*
X313807Y397787D01*
Y400936D01*
X313020Y401723D01*
X310659D01*
X315382Y397000D02*
Y400149D01*
X316956Y401723D01*
X318530Y400149D01*
Y397000D01*
Y399361D01*
X315382D01*
X320104Y397000D02*
Y401723D01*
X322466D01*
X323253Y400936D01*
Y399361D01*
X322466Y398574D01*
X320104D01*
X321679D02*
X323253Y397000D01*
X336614Y247835D02*
Y252557D01*
X338976D01*
X339763Y251770D01*
Y250196D01*
X338976Y249409D01*
X336614D01*
X338189D02*
X339763Y247835D01*
X341337D02*
X342911D01*
X342124D01*
Y252557D01*
X341337Y251770D01*
X345273Y247835D02*
X346847D01*
X346060D01*
Y252557D01*
X345273Y251770D01*
X355000Y247835D02*
Y252557D01*
X357361D01*
X358149Y251770D01*
Y250196D01*
X357361Y249409D01*
X355000D01*
X356574D02*
X358149Y247835D01*
X359723D02*
X361297D01*
X360510D01*
Y252557D01*
X359723Y251770D01*
X363659D02*
X364446Y252557D01*
X366020D01*
X366807Y251770D01*
Y248622D01*
X366020Y247835D01*
X364446D01*
X363659Y248622D01*
Y251770D01*
X417547Y245189D02*
X418334Y245977D01*
X419908D01*
X420695Y245189D01*
Y244402D01*
X419908Y243615D01*
X419121D01*
X419908D01*
X420695Y242828D01*
Y242041D01*
X419908Y241254D01*
X418334D01*
X417547Y242041D01*
X422270Y245977D02*
Y242828D01*
X423844Y241254D01*
X425418Y242828D01*
Y245977D01*
X426993Y245189D02*
X427780Y245977D01*
X429354D01*
X430141Y245189D01*
Y244402D01*
X429354Y243615D01*
X428567D01*
X429354D01*
X430141Y242828D01*
Y242041D01*
X429354Y241254D01*
X427780D01*
X426993Y242041D01*
X370000Y348000D02*
Y352723D01*
X372361D01*
X373149Y351936D01*
Y350361D01*
X372361Y349574D01*
X370000D01*
X371574D02*
X373149Y348000D01*
X374723D02*
X376297D01*
X375510D01*
Y352723D01*
X374723Y351936D01*
X378659D02*
X379446Y352723D01*
X381020D01*
X381807Y351936D01*
Y351149D01*
X381020Y350361D01*
X380233D01*
X381020D01*
X381807Y349574D01*
Y348787D01*
X381020Y348000D01*
X379446D01*
X378659Y348787D01*
X386849Y332136D02*
X386061Y332923D01*
X384487D01*
X383700Y332136D01*
Y328987D01*
X384487Y328200D01*
X386061D01*
X386849Y328987D01*
X388423D02*
X389210Y328200D01*
X390784D01*
X391571Y328987D01*
Y332136D01*
X390784Y332923D01*
X389210D01*
X388423Y332136D01*
Y331349D01*
X389210Y330561D01*
X391571D01*
X385038Y273030D02*
X384251Y273817D01*
X382677D01*
X381890Y273030D01*
Y269882D01*
X382677Y269094D01*
X384251D01*
X385038Y269882D01*
X386613Y273030D02*
X387400Y273817D01*
X388974D01*
X389761Y273030D01*
Y272243D01*
X388974Y271456D01*
X389761Y270669D01*
Y269882D01*
X388974Y269094D01*
X387400D01*
X386613Y269882D01*
Y270669D01*
X387400Y271456D01*
X386613Y272243D01*
Y273030D01*
X387400Y271456D02*
X388974D01*
X373621Y273030D02*
X372834Y273817D01*
X371260D01*
X370472Y273030D01*
Y269882D01*
X371260Y269094D01*
X372834D01*
X373621Y269882D01*
X375195Y273817D02*
X378344D01*
Y273030D01*
X375195Y269882D01*
Y269094D01*
X227000Y259000D02*
X231723D01*
Y256639D01*
X230936Y255851D01*
X229361D01*
X228574Y256639D01*
Y259000D01*
Y257426D02*
X227000Y255851D01*
X231723Y251129D02*
Y254277D01*
X227000D01*
Y251129D01*
X229361Y254277D02*
Y252703D01*
X230936Y246406D02*
X231723Y247193D01*
Y248767D01*
X230936Y249554D01*
X230149D01*
X229361Y248767D01*
Y247193D01*
X228574Y246406D01*
X227787D01*
X227000Y247193D01*
Y248767D01*
X227787Y249554D01*
X231723Y241683D02*
Y244831D01*
X227000D01*
Y241683D01*
X229361Y244831D02*
Y243257D01*
X231723Y240108D02*
Y236960D01*
Y238534D01*
X227000D01*
X345511Y344936D02*
X344724Y345723D01*
X343149D01*
X342362Y344936D01*
Y341787D01*
X343149Y341000D01*
X344724D01*
X345511Y341787D01*
X347085Y341000D02*
X348659D01*
X347872D01*
Y345723D01*
X347085Y344936D01*
X207086Y261936D02*
X206298Y262723D01*
X204724D01*
X203937Y261936D01*
Y258787D01*
X204724Y258000D01*
X206298D01*
X207086Y258787D01*
X211808Y258000D02*
X208660D01*
X211808Y261149D01*
Y261936D01*
X211021Y262723D01*
X209447D01*
X208660Y261936D01*
X205118Y281669D02*
Y276946D01*
X207480D01*
X208267Y277733D01*
Y280881D01*
X207480Y281669D01*
X205118D01*
X212989D02*
X209841D01*
Y279307D01*
X211415Y280094D01*
X212202D01*
X212989Y279307D01*
Y277733D01*
X212202Y276946D01*
X210628D01*
X209841Y277733D01*
X342362Y398424D02*
Y393701D01*
X344724D01*
X345511Y394488D01*
Y397637D01*
X344724Y398424D01*
X342362D01*
X350234D02*
X347085D01*
Y393701D01*
X350234D01*
X347085Y396062D02*
X348659D01*
X351808Y398424D02*
Y393701D01*
X354169D01*
X354957Y394488D01*
Y395275D01*
X354169Y396062D01*
X351808D01*
X354169D01*
X354957Y396849D01*
Y397637D01*
X354169Y398424D01*
X351808D01*
X356531D02*
Y394488D01*
X357318Y393701D01*
X358892D01*
X359679Y394488D01*
Y398424D01*
X364402Y397637D02*
X363615Y398424D01*
X362041D01*
X361254Y397637D01*
Y394488D01*
X362041Y393701D01*
X363615D01*
X364402Y394488D01*
Y396062D01*
X362828D01*
X224000Y276946D02*
Y281669D01*
X226361D01*
X227149Y280881D01*
Y279307D01*
X226361Y278520D01*
X224000D01*
X225574D02*
X227149Y276946D01*
X228723Y277733D02*
X229510Y276946D01*
X231084D01*
X231872Y277733D01*
Y280881D01*
X231084Y281669D01*
X229510D01*
X228723Y280881D01*
Y280094D01*
X229510Y279307D01*
X231872D01*
X356142Y315000D02*
Y319723D01*
X358503D01*
X359290Y318936D01*
Y317361D01*
X358503Y316574D01*
X356142D01*
X357716D02*
X359290Y315000D01*
X360865Y318936D02*
X361652Y319723D01*
X363226D01*
X364013Y318936D01*
Y318149D01*
X363226Y317361D01*
X362439D01*
X363226D01*
X364013Y316574D01*
Y315787D01*
X363226Y315000D01*
X361652D01*
X360865Y315787D01*
X356142Y325394D02*
Y330117D01*
X358503D01*
X359290Y329329D01*
Y327755D01*
X358503Y326968D01*
X356142D01*
X357716D02*
X359290Y325394D01*
X364013D02*
X360865D01*
X364013Y328542D01*
Y329329D01*
X363226Y330117D01*
X361652D01*
X360865Y329329D01*
X356142Y301968D02*
Y306691D01*
X358503D01*
X359290Y305904D01*
Y304330D01*
X358503Y303543D01*
X356142D01*
X357716D02*
X359290Y301968D01*
X363226D02*
Y306691D01*
X360865Y304330D01*
X364013D01*
X285000Y270223D02*
X288149Y265500D01*
Y270223D02*
X285000Y265500D01*
X289723D02*
X291297D01*
X290510D01*
Y270223D01*
X289723Y269436D01*
X322149D02*
X321361Y270223D01*
X319787D01*
X319000Y269436D01*
Y266287D01*
X319787Y265500D01*
X321361D01*
X322149Y266287D01*
X326871Y270223D02*
X323723D01*
Y267861D01*
X325297Y268649D01*
X326084D01*
X326871Y267861D01*
Y266287D01*
X326084Y265500D01*
X324510D01*
X323723Y266287D01*
X322149Y240936D02*
X321361Y241723D01*
X319787D01*
X319000Y240936D01*
Y237787D01*
X319787Y237000D01*
X321361D01*
X322149Y237787D01*
X326871Y241723D02*
X325297Y240936D01*
X323723Y239361D01*
Y237787D01*
X324510Y237000D01*
X326084D01*
X326871Y237787D01*
Y238574D01*
X326084Y239361D01*
X323723D01*
X289700Y348923D02*
Y344987D01*
X290487Y344200D01*
X292061D01*
X292849Y344987D01*
Y348923D01*
X294423Y344200D02*
X295997D01*
X295210D01*
Y348923D01*
X294423Y348136D01*
D15*
X362362Y454437D02*
X363862Y452937D01*
X360862D02*
X362362Y454437D01*
X360862Y424937D02*
Y452937D01*
X363862Y424937D02*
Y452937D01*
X372362Y454437D02*
X373862Y452937D01*
Y424937D02*
Y452937D01*
X344724Y457087D02*
X370000D01*
X370862Y424937D02*
Y452937D01*
X372362Y454437D01*
X336339Y412205D02*
X378362D01*
Y424803D01*
X336339Y412205D02*
Y424803D01*
X378362D01*
X372362D02*
Y454724D01*
X343862Y424937D02*
Y452937D01*
X340862Y424937D02*
Y452937D01*
X342362Y454437D01*
X343862Y452937D01*
X342362Y424803D02*
Y454724D01*
X353862Y424937D02*
Y452937D01*
X350862Y424937D02*
Y452937D01*
X352362Y454437D01*
X353862Y452937D01*
D16*
X336339Y475197D02*
X378386D01*
Y424803D02*
Y475197D01*
X336339Y424803D02*
Y475197D01*
D17*
X379921Y369291D02*
Y383858D01*
X368110Y369291D02*
Y383858D01*
X379921D01*
X368110Y369291D02*
X379921D01*
D18*
X374016Y370271D02*
D03*
D19*
X472441Y202441D02*
Y427559D01*
X466850Y196850D02*
X472441Y202441D01*
X202150Y196850D02*
X466850D01*
X196850Y202150D02*
X202150Y196850D01*
X196850Y202150D02*
Y427850D01*
X202071Y433071D01*
X466929D01*
X472441Y427559D01*
M02*
